<svg id="Capa_1" data-name="Capa 1" xmlns="http://www.w3.org/2000/svg" xmlns:xlink="http://www.w3.org/1999/xlink" viewBox="0 0 183 73">
  <defs>
    <clipPath id="clip-path">
      <path id="SVGID" d="M67.09,44c0-.09,0-.09,0-.09h.09a.37.37,0,0,0,.1-.07l.1-.07.08-.1c0-.11-.05-.13-.07-.15l0-.11-.1-.08-.14,0-.11,0-.1.07-.09.11-.11.08-.1,0h-.59l-.11,0-.11.06-.13,0-.12.09-.11.1-.13,0h-.25l-.11,0h-.21l-.11,0h-.3l-.14.06-.12,0-.11,0-.15,0h-.52l-.12.08-.11.06-.1.06-.12.07-.11.06-.11,0h-.66l-.11,0a.53.53,0,0,0-.08.11l-.13,0h-.82l-.14.09h-.41l-.18,0H59.7l-.1-.06c-.1-.08-.12-.09-.14-.09l-.13,0H59.1a.19.19,0,0,1-.1-.05l-.12-.13-.12-.05-.18-.11-.08-.12-.14-.14-.11-.1-.07-.13v-.11c0-.07,0-.08,0-.09l0-.16,0-.1,0-.1c0-.11,0-.12,0-.13l-.05-.1a.84.84,0,0,1,0-.1v-.13l-.06-.11,0-.11,0-.1,0-.13v-.84l0-.12,0-.11a.39.39,0,0,1,0-.12l0-.13,0-.14V39.62l0-.14,0-.11V39l0-.12a.68.68,0,0,0,0-.12v-.3a.72.72,0,0,0,0-.13v-.1a.64.64,0,0,1,0-.18l0-.12.05-.11,0-.13c0-.12,0-.15,0-.17s0-.14.06-.17a.37.37,0,0,0,0-.15v-.25l0-.11v-.1l0-.13,0-.11v-.4l0-.15V35.8l0-.11c0-.13,0-.16,0-.19a.27.27,0,0,1,.06-.11l0-.12,0-.15a1.9,1.9,0,0,1,0-.19c0-.07,0-.09,0-.1l0-.15,0-.11,0-.15,0-.13,0-.11,0-.11c0-.1,0-.11,0-.12v-.11l0-.11v-.24c0-.11,0-.14,0-.16l.12-.13.16-.12,0-.13v-.21l0-.12-.06-.13c0-.06,0-.1,0-.12l0-.1.08-.13v-.47l0-.1v-.24a.54.54,0,0,0,0-.11l.08-.14c0-.06,0-.08,0-.1l0-.16,0-.11,0-.13,0-.09,0-.15,0-.09v-.48l0-.12v-.1l0-.12V29c0-.1,0-.11.05-.12l.07-.1v-.1l0-.12c0-.11,0-.14,0-.16V28l0-.14V27.7l0-.12.06-.17,0-.12,0-.18v-.9l.11-.1,0-.17,0-.18v-.42l0-.11,0-.13,0-.11.09-.12,0-.1.07-.1.06-.09.07-.1V23.4a.25.25,0,0,1,0-.1l.09-.13,0-.1,0-.14,0-.13c0-.1,0-.11,0-.12l.12-.12.1-.09c.1-.11.11-.12.11-.14l0-.15,0-.11.06-.15V21.8c0-.05,0-.08,0-.1s0-.14,0-.16a1.26,1.26,0,0,1,0-.16l0-.12,0-.14a1.25,1.25,0,0,1,0-.14l.09-.15,0-.12c0-.11,0-.12,0-.12s0-.13,0-.14l.08-.1a1.32,1.32,0,0,0,.08-.14l.08-.11.08-.16.05-.16,0-.14c0-.09,0-.11,0-.12l-.09.06-.14.07-.15.09-.13.1-.11.11-.07.13-.07.12-.11.18-.1.11a1,1,0,0,0-.17.18L60,20.8l0,.1-.05.1-.07.12-.11.13-.07.11-.06.15,0,.15,0,.12v.1a.87.87,0,0,1,0,.12,1.14,1.14,0,0,0-.11.17l-.06.09-.06.11-.07.13-.06.12a.55.55,0,0,0,0,.17v.1a.81.81,0,0,1,0,.17.66.66,0,0,1-.09.09l-.06.12v.22l0,.13,0,.1-.08.1,0,.13,0,.13,0,.13,0,.11,0,.11v.23l0,.15v.13l0,.1v.39l0,.14v.11l0,.11,0,.12,0,.12,0,.11,0,.12,0,.12v.12l0,.13,0,.15c0,.14,0,.18,0,.2l-.08.12-.07.11v.11l0,.13,0,.16,0,.14v.12a.63.63,0,0,1,0,.14l0,.11a.62.62,0,0,0-.06.18.53.53,0,0,1,0,.11l-.06.12v.54l0,.17a.65.65,0,0,0,0,.17V30a.8.8,0,0,1-.06.18l-.06.1,0,.13a1.23,1.23,0,0,0,0,.18V31l0,.13v.25l0,.12a.27.27,0,0,0,0,.12.29.29,0,0,1,0,.15c0,.09-.06.12-.06.13a.27.27,0,0,0,0,.1l-.09.12a.87.87,0,0,0,0,.13v.61a.36.36,0,0,0,0,.13h.12c.05.07.05.09.05.1s-.1.09-.12.09l-.11.07,0,.12-.06.1,0,.15V34a.89.89,0,0,0,0,.11l0,.11,0,.13v.42c0,.09,0,.11,0,.12l-.11.12,0,.11,0,.16,0,.09,0,.09a.46.46,0,0,1,0,.1l0,.11v.39l0,.12,0,.11,0,.15v.28a.68.68,0,0,1,0,.12c0,.1,0,.11,0,.12l0,.12,0,.11a.53.53,0,0,1,0,.11.78.78,0,0,0-.07.17.67.67,0,0,0,0,.12.43.43,0,0,0,0,.12l-.1.09a.38.38,0,0,0,0,.12v.3l0,.12v.12c0,.1,0,.13,0,.15v.11l0,.13c0,.1,0,.12,0,.14v.14l0,.1,0,.1v.21a.89.89,0,0,0,0,.11.89.89,0,0,1-.09.15l0,.1,0,.12v.46a.93.93,0,0,1,0,.13l0,.13,0,.15,0,.12c0,.11,0,.14,0,.16a.51.51,0,0,1,0,.1l0,.1a1.83,1.83,0,0,0,0,.19c0,.11,0,.14-.06.16l-.12.14a.2.2,0,0,0,0,.09.53.53,0,0,0,.08.16l.06.11,0,.11,0,.11.05.12.07.16c0,.12,0,.14,0,.15s0,.1,0,.12a1.32,1.32,0,0,1,0,.13v.32a.67.67,0,0,0,0,.18l0,.12.06.13.08.12.07.12.07.12.07.13.07.13.1.15.09.12.11.14.09.13.1.14.14.19.13.08.14.06.13,0,.13,0,.2.1.17.06h.24l.14,0,.15.06.19.07h1l.17,0,.14-.08.13-.09c.11,0,.13,0,.15,0h.2l.11,0,.14-.05.12,0a.76.76,0,0,0,.11-.11l.1,0h.11l.09,0,.12,0,.11,0,.12,0c.11,0,.13-.06.14-.08l.13-.08.14-.1.1-.07.12-.06.14,0,.12-.07.1-.08h.37l.17,0h.15l.16,0,.1,0,.13-.07.12,0,.12-.05.16,0,.09,0,.11,0,.11-.05.13-.07.13-.06.14-.05.14,0h.29l.09,0a.79.79,0,0,0,.2,0l.11-.06.14-.11L67,44Z" style="fill: #fff"/>
    </clipPath>
    <clipPath id="clip-path-2">
      <rect id="SVGID-2" data-name="SVGID" x="-4.46" y="-4.05" width="262.92" height="856.1" style="fill: #fff"/>
    </clipPath>
    <clipPath id="clip-path-3">
      <path id="SVGID-3" data-name="SVGID" d="M151.5,34.36v.06l-.1.07,0,.1,0,.12.09.15v.24c0,.09,0,.1,0,.11l-.15.13-.06.09v.11l0,.13.08.09.07.11,0,.12-.06.13-.05.11,0,.11-.07.14-.07.15,0,.13,0,.12V37l0,.15,0,.16v.22l0,.11,0,.11-.07.13,0,.1,0,.13v.12l0,.16c0,.1,0,.11,0,.12l-.07.1c0,.11,0,.12,0,.13l0,.13,0,.13-.05.11v.21a.47.47,0,0,0,0,.12v.23l0,.14,0,.12-.05.1,0,.1,0,.12,0,.13v.48a.49.49,0,0,1,0,.13l0,.11,0,.11v.37l.05.15c0,.13,0,.15,0,.17l-.05.1,0,.15v.21l0,.1v.11l0,.14a.89.89,0,0,1,0,.1l-.07.1-.05.13v.54l0,.1,0,.13,0,.13,0,.12,0,.11-.05.13,0,.14v.14l.05.14.07.12.07.13c0,.15,0,.2,0,.23v.28a.31.31,0,0,1,0,.11l0,.1.06.11,0,.12,0,.14v.16a1.14,1.14,0,0,0,.07.19l.07.11,0,.12v.15l.06.09.1.12.12.12.11.1.11.11a.67.67,0,0,0,.15.13l.09,0,.12.05H152l.13,0,.19.08.1,0,.12.06.12.07.12,0H153l.15,0h.4a.47.47,0,0,0,.17-.05.59.59,0,0,0,.05-.12l.13-.09.1,0,.14,0,.19,0,.16,0,.16,0h.12l.1,0,.14-.12.1-.08.14,0h.11l.13,0H156l.07-.1v-.1l.15-.05h.57l.17,0L157,47l.13,0,.13,0h.47l.11,0,.14,0,.09,0h.4l.09,0,.13-.1.13-.08h.36l.11,0,.11-.06.11-.09.12-.12h.39l.11.09.05.15,0,.11,0,0-.12,0-.12,0-.12.11h-.1l-.11.07-.05.11-.11,0-.11,0H159l-.12,0h-.32l-.12,0-.13.09-.11.1-.1,0-.12,0-.11,0-.12.06-.11.06-.12.09-.13.09-.12.05h-.68c-.08,0-.1.06-.11.08l-.11.06-.11,0-.13.07-.16.08-.16.08-.13.06-.13.12-.12,0-.1,0h-.23l-.1-.11-.11,0-.13.09-.14,0-.13,0-.1.07-.12,0H154l-.17,0v.13h-1.15l-.1,0-.1-.07-.1-.05-.11,0-.11,0-.11,0-.11,0h-.47l-.11,0-.11-.07-.14-.08-.13-.11-.08-.1-.12-.13-.12-.17-.1-.16-.1-.17-.08-.14-.09-.13-.06-.13-.08-.12,0-.1-.05-.12,0-.17v-.36l-.06-.15-.05-.14v-.11l0-.12-.06-.15-.05-.13,0-.1,0-.13,0-.15,0-.15v-.15l.06-.13a.39.39,0,0,0,.06-.12v-.4l0-.1V43l0-.15,0-.13V42.4l0-.15,0-.11v-.5l0-.11,0-.11v-.14l0-.15v-.5l.11-.08.06-.11V38.25l.09-.13,0-.11,0-.14v-.1l0-.1,0-.13v-.19l0-.12V37l0-.13v-.13c0-.09,0-.09,0-.09l.13-.07.09-.12.07-.1-.06-.1-.1-.11-.13-.08,0-.13,0-.13,0-.09,0-.12,0-.11.12-.11.05-.13V35l.05-.13v-.1l.16-.09V34.6l0-.17v-.07Z" style="fill: #fff"/>
    </clipPath>
    <clipPath id="clip-path-5">
      <path id="SVGID-5" data-name="SVGID" d="M150.67,34.36v-.61l0-.11.17-.15v-.78l0-.1,0-.13v-.23a.49.49,0,0,0,0-.13l0-.09a.27.27,0,0,1,0-.15l.05-.13,0-.16v-.14l0-.13v-.64l0-.12,0-.12,0-.1v-.25l.08-.12.08-.13V28.9l.05-.1.05-.12,0-.15v-.35l0-.14.07-.15.08-.14v-.12l.06-.1,0-.1.05-.15v-1l0-.13,0-.14,0-.1,0-.12V25.7l.06-.11.07-.11,0-.14v-.25l0-.14.05-.11,0-.11a.64.64,0,0,1,.06-.16l0-.15.08-.12.05-.12v-.13c0-.12,0-.14,0-.16l.1-.11.09-.11,0-.11.07-.12.08-.13,0-.1.05-.11.09-.12.08-.12.07-.13a.31.31,0,0,1,0-.12l.09-.09.15-.12.08-.13.1-.08.14,0,.15,0,.11,0,.12,0,.13,0,.1,0,.1,0,.11,0,.12,0H155l.17-.08.11-.1.11-.07.13-.09.11-.09.11-.08.14-.09.09-.08.13-.12.11-.09.11-.08.13-.14.09-.11.08-.13.1-.12.09-.11.13-.15.14-.14.14-.16,0-.17,0-.11.09-.14.11-.11.1-.1a.8.8,0,0,0,.08-.12l.06-.11.05-.13,0-.12.07-.15v-.27l0-.12.07-.12.11-.09.12-.14v-.28l0-.16V16.6c0-.11,0-.13,0-.15l.06-.14.08-.12.09-.13.07-.13,0-.11V14.73l0-.14,0-.11,0-.09V14l0-.13V12.53l0-.12.08-.13V10.41l0-.1.06-.09,0-.12,0-.18,0-.1a.89.89,0,0,1,0-.1.55.55,0,0,0,0-.1V9.36l.05-.14.07-.15.08-.15.08-.16,0-.15.06-.16.07-.13,0-.13,0-.15,0-.14,0-.14.06-.13.08-.12.06-.11.1-.14c.07-.12.07-.15.07-.17a.5.5,0,0,1,.1-.12l.11-.1.11-.12.07-.11.13-.12h.2l.12-.06.11-.06.13,0h1.19l.11,0,0,.15-.12,0-.12,0-.12,0-.11.06-.11.06-.15.05-.1.06-.13,0c-.06,0-.09.07-.1.09l-.13.11-.16.09-.11.08-.11.06-.06.16-.09.1,0,.1,0,.11,0,.11,0,.11-.07.12-.08.13-.06.13-.07.13-.12.16-.07.11,0,.13L160,9l-.05.12,0,.1-.05.11-.09.12-.1.13,0,.12v.58l0,.15,0,.18,0,.13v.34l-.06.15-.1.12,0,.11v.67l0,.16-.06.15-.06.16V14l0,.14,0,.12,0,.11v.11l0,.11,0,.13,0,.13v1.52l0,.15v.13a.41.41,0,0,1,0,.14l0,.1c-.05.1-.07.13-.07.16v.38l0,.14v.11a.59.59,0,0,1,0,.11c0,.07,0,.1,0,.11l0,.14,0,.17v.11l0,.14,0,.11V19l-.08.14-.11.15-.05.14a.79.79,0,0,1-.08.13l-.06.12-.09.13-.12.13a1.83,1.83,0,0,1-.16.16l-.07.1-.14.16-.14.16c-.07.1-.09.12-.11.13l-.13.12-.08.11-.08.14-.08.16-.12.14-.11.14-.1.14-.1.15-.16.18a.22.22,0,0,0,0,.12v.12l0,.14-.06.11-.11.07-.1.07-.05.1,0,.1,0,.11-.07.09-.14.07-.13,0-.11,0-.11,0h-.13l-.13.05-.1.1-.11.12-.1.12-.13.08-.12.06-.07.13-.11-.05-.1-.07-.14-.06h-.15l-.11.12h-.21l-.11,0h-.1l-.1.07-.07.12-.06.11-.05.11,0,.12v.14l0,.15-.05.12a.37.37,0,0,1-.1.07l-.12.08-.07.1,0,.1-.07.1-.09.11,0,.12a.52.52,0,0,1-.05.16l-.07.15a.45.45,0,0,0,0,.11.33.33,0,0,0,0,.13l0,.09-.1.09-.15.1v.14l0,.09-.05.11v.13l0,.09-.08.16,0,.11v.11l0,.16v.14l0,.17v.65l-.16.07,0,.11-.09.11c0,.1,0,.11-.06.11v.25l0,.11v.14a.2.2,0,0,1,0,.11l-.07.11-.08.12v.21l0,.11V30l0,.11v.12l0,.12v.21l0,.13-.05.12-.06.12v.33l-.11.13-.06.13v.11l0,.13,0,.14-.06.12v2.15l0,.1v.09Z" style="fill: #fff"/>
    </clipPath>
    <clipPath id="clip-path-7">
      <path id="SVGID-7" data-name="SVGID" d="M141.44,38.14v.06l-.1.07,0,.1.05.12.08.15v.12l0,.12a.66.66,0,0,1,0,.11l-.15.13-.07.09v.11l0,.13.08.09.07.11,0,.12-.06.13,0,.11,0,.11-.07.14-.07.15,0,.13,0,.12v.12l0,.15,0,.16v.22l0,.1,0,.12-.07.13,0,.1,0,.13V42l0,.16c0,.1,0,.11,0,.12l-.07.1c0,.11,0,.12,0,.14l0,.12,0,.13-.05.11v.2a1.33,1.33,0,0,0,0,.13v.23l0,.14,0,.12,0,.1,0,.1,0,.12,0,.13v.48a.63.63,0,0,1,0,.13l0,.11,0,.11v.24l0,.13,0,.16c0,.12,0,.14,0,.16l0,.09,0,.16v.56a.34.34,0,0,1,0,.1l-.08.1,0,.13v.54l0,.1,0,.13,0,.13,0,.12,0,.11-.06.13,0,.14v.14l0,.14.08.12.06.13a1.07,1.07,0,0,1,0,.23v.28a.54.54,0,0,0,0,.11l0,.1,0,.11.06.12,0,.14V50c0,.13,0,.17.07.19l.06.11,0,.12a1.36,1.36,0,0,1,0,.15l.05.09.1.12.13.12.11.1.11.11a.67.67,0,0,0,.15.13l.09,0,.11,0,.12,0,.14,0,.19.08.1,0,.12.06.12.07.12,0h.15l.15,0h.39c.13,0,.16,0,.17-.05l.06-.12.13-.1h.1l.14,0,.18,0,.16,0,.16,0h.13l.09,0,.14-.12.11-.08.14,0h.1l.14-.05h.54l.06-.09,0-.1.15-.05h.57l.17,0,.09-.09.13,0,.12,0,.18,0h.41l.13,0,.1,0h.4l.09,0,.13-.1.13-.08.11,0h.24l.11,0,.12-.06.11-.09.11-.12H150l.11.09.06.15,0,.11,0,0-.12,0-.12,0-.12.11h-.1l-.12.07,0,.11-.1,0-.11,0h-.35l-.11,0h-.33l-.11,0-.13.09-.11.1-.11,0-.12,0-.1.05-.12,0-.11.06-.12.09-.14.09-.12,0H147l-.1,0h-.35c-.08,0-.1.06-.11.08l-.11.06-.12,0-.13.07-.15.08-.16.08-.13,0-.13.12-.13,0-.1,0h-.12l-.1,0-.1-.1-.11,0-.13.08-.15,0-.13,0-.09.07-.13,0H144l-.17,0v.13h-1.15l-.1,0-.1-.07-.11-.05-.1,0-.11,0H142l-.11,0h-.37l-.11,0-.1,0-.11-.07-.14-.09-.13-.1-.08-.1-.12-.14-.12-.16-.1-.16-.1-.17-.08-.14-.09-.13-.07-.13-.07-.12,0-.1L140,50.6l0-.17v-.25l0-.12,0-.14-.05-.14v-.11l0-.12-.05-.15-.05-.13,0-.1,0-.13,0-.15,0-.15v-.15l.05-.13c.07-.11.07-.12.07-.13V46.77l0-.15,0-.13v-.31l0-.15,0-.11V45.7l0-.12,0-.16,0-.11,0-.11v-.15l0-.14v-.5l.11-.08.05-.11V42l.09-.13,0-.11v-.14l0-.1,0-.11,0-.12v-.19l0-.12v-.49c0-.09,0-.09,0-.09l.13-.07.09-.12.07-.11-.07-.09-.09-.11-.13-.08,0-.13,0-.13,0-.09,0-.12,0-.12.13-.1.05-.13v-.22l.05-.13v-.1l.16-.09v-.35Z" style="fill: #fff"/>
    </clipPath>
    <clipPath id="clip-path-9">
      <path id="SVGID-9" data-name="SVGID" d="M140.61,38.14v-.61l0-.11.16-.15v-.78l0-.11,0-.12V36a.63.63,0,0,0,0-.13l0-.1a.4.4,0,0,1,0-.15l.06-.12,0-.16,0-.14v-.77l0-.12.05-.12,0-.1v-.26l.08-.12.07-.12v-.8l0-.14.05-.1.05-.12,0-.15v-.49l.07-.15.09-.14v-.12l.06-.1.05-.11,0-.14,0-.15v-.69l0-.11,0-.13,0-.14,0-.11,0-.11v-.14l.06-.11.07-.11,0-.14,0-.12v-.13l0-.14.05-.11,0-.11a1,1,0,0,1,.05-.16l.06-.15.07-.12.06-.12v-.13c0-.12,0-.15,0-.16s.1-.1.1-.11l.09-.11,0-.11.07-.13.08-.12,0-.1.05-.11a1.18,1.18,0,0,1,.08-.12l.09-.12a.35.35,0,0,0,.06-.14,1.1,1.1,0,0,1,0-.11l.1-.09.15-.12.08-.13s.08-.06.09-.08l.15,0,.15,0,.11,0,.11,0,.14,0,.1,0,.1,0,.11,0,.11,0h.38l.17-.08a.74.74,0,0,1,.11-.1l.11-.07.13-.09.1-.09.11-.08c.11-.06.13-.07.14-.09l.1-.08.13-.12.11-.09.11-.08.13-.14.08-.11.09-.14.09-.11.1-.1.13-.16.14-.15.13-.15,0-.16,0-.13.09-.13.1-.11.11-.1.08-.12.05-.11,0-.13.06-.12a.43.43,0,0,0,.06-.15l0-.14v-.12l0-.13.07-.12.1-.09.13-.14v-.28l0-.16v-.87c0-.11,0-.13,0-.15a1.13,1.13,0,0,1,.06-.14l.07-.12.1-.13.07-.13V18.9l0-.12v-.41l0-.11v-.5l0-.13V16.31l0-.12.08-.13v-.14l0-.13V14.18l0-.09.06-.09,0-.12,0-.18,0-.1a.89.89,0,0,1,0-.1.36.36,0,0,0,0-.11v-.11l0-.14L149,13l.07-.15.08-.15.07-.16.05-.16,0-.15.08-.13,0-.13,0-.15,0-.14,0-.14.06-.13.08-.12.06-.12.1-.13c.06-.13.06-.15.06-.17a.44.44,0,0,1,.11-.12l.11-.1.11-.12.06-.12.14-.11h.1l.1,0,.12,0,.11-.06.13,0h.16l.15,0h.88l.11,0,0,.15-.12.05-.12,0-.12,0-.11.06-.11.06-.15.06-.1.05-.13,0-.11.09-.13.1-.15.11-.12.07-.1.06-.07.16-.08.09,0,.1,0,.12-.05.11,0,.11-.08.12-.07.12-.06.14a1.05,1.05,0,0,1-.08.13l-.11.16-.07.11,0,.13-.05.13-.05.11,0,.1-.05.11-.09.12-.1.13,0,.12V14l0,.15,0,.18,0,.13v.34l-.07.15-.09.12,0,.11v.67l0,.16-.06.15-.06.16V17.8l0,.14,0,.12,0,.11v.11l0,.11,0,.13,0,.13v1.79a.32.32,0,0,1,0,.15l0,.1-.08.16v.39l0,.13v.11c0,.05,0,.09,0,.11a.75.75,0,0,0,0,.11l0,.14,0,.17v.11l0,.14v.55l-.09.15-.1.14,0,.14a.79.79,0,0,1-.08.13l-.07.12-.08.13-.12.13-.16.16L148,24l-.14.16-.14.16c-.07.1-.09.12-.11.13l-.13.12-.08.11-.08.14-.09.16-.11.14-.11.14-.1.14-.1.15a1.46,1.46,0,0,1-.16.17.26.26,0,0,0,0,.13V26l0,.14,0,.11-.12.07-.1.07,0,.1,0,.1v.1l-.06.1-.15.07-.12,0-.11,0-.11,0h-.13l-.13.05-.1.1-.11.12-.11.12-.12.09-.13.05-.07.13-.11-.05-.09-.07-.15-.06h-.14l-.12.12H144l-.11,0h-.1l-.11.07-.07.12,0,.11-.06.11,0,.12v.29l0,.12-.1.07-.12.08-.07.1,0,.1-.08.1L143,29l-.05.12a.93.93,0,0,1,0,.16l-.07.15a.36.36,0,0,0,0,.11c0,.09,0,.11,0,.12l0,.1-.11.09-.14.09v.15l0,.09-.06.11,0,.13,0,.09-.09.15v.12l0,.1,0,.17v1l-.15.07,0,.11-.09.11-.06.11v.36l0,.14V33l-.07.11-.08.12v.21l0,.11v.21l0,.11V34l0,.13v.33l0,.13-.06.11v.22l0,.1a.68.68,0,0,1-.1.14l-.06.13v.11l0,.13,0,.14-.06.12V38l0,.1v.09Z" style="fill: #fff"/>
    </clipPath>
    <clipPath id="clip-path-11">
      <path id="SVGID-11" data-name="SVGID" d="M159.13,41.26v.6l0,.08v.24l0,.1,0,.08s0,.08,0,.1a.34.34,0,0,1,0,.11s.05.06.05.08,0,.1,0,.11a.38.38,0,0,0,.05.11l.09.12.12.1.07.06.08.06.09,0,.08.05.09,0,.08,0,.09,0,.09,0v.16h.17l.09,0h.25l.09,0h1.73l.09-.06.1-.07.08,0,.08-.06.13-.07.1,0,.06-.08.05-.08,0-.08.05-.08h.25l0-.13.13,0,.12-.05.1,0,.09,0,.13-.06c.07-.07.08-.08.08-.09l.06-.12.1-.09.08,0,.09-.11.08,0,.07,0,.13,0,.11-.07.1-.09a.34.34,0,0,0,.08-.1l.07-.12a1.41,1.41,0,0,0,.06-.15.64.64,0,0,0,0-.07.24.24,0,0,0,0-.08l.1-.06.08,0,.09,0h0l.09.14.06.12,0,.1,0,.08,0,.1-.06.13-.09.14-.05.07-.06.09-.06.08,0,.09,0,.09,0,.09,0,.09,0,.09,0,.09h-.1l-.09,0-.08.14-.07.14-.07.14-.07.14h-.24l-.08,0-.09.06-.09.06-.09.06-.09.06-.09.06-.09.06-.09.06-.09.06-.06.14-.06.14h-.22l-.12.13-.12.14h-.37l-.08.13-.09,0h-.19l-.13,0-.12.07-.12.1H162L162,44.8h-.11l-.12.05-.11,0h-.35l-.12,0-.1-.05-.09,0h-.26l-.09,0-.08-.06-.12,0h-.24l-.14,0-.13,0-.11-.06-.1-.07-.09-.07a.31.31,0,0,0-.07-.08v-.33l-.1-.06-.11-.06-.1,0-.11-.06-.05-.14-.05-.13-.07-.1-.07-.1-.1-.09-.05-.1V43l0-.11,0-.1v-.08l0-.08,0-.08,0-.08,0-.07,0-.08,0-.08,0-.08,0-.08V42l0-.08,0-.08,0-.07,0-.08v-.38Z" style="fill: #fff"/>
    </clipPath>
    <clipPath id="clip-path-13">
      <path id="SVGID-13" data-name="SVGID" d="M162.12,37.62l-.1.07-.15.1-.14.1-.15.1h-.35l-.13.06-.12.06-.13,0-.12.06-.12-.06-.1-.07-.12,0-.15,0h-.07l-.11,0H160l-.09.1-.08.1-.07.11-.06.12,0,.12,0,.14V39l-.09.11-.09.11v.11l0,.12v.09l0,.1,0,.07v.08l0,.12-.14.07,0,.12v.12l0,.12,0,.12,0,.12,0,.12v.12l0,.12-.14.13v.23h-.69v-.51l0-.13,0-.13,0-.12,0-.13v-.56l0-.11,0-.12,0-.12,0-.12v-.09l0-.09v-.17l.08-.09.06-.08,0-.08,0-.09,0-.09,0-.1,0-.11v-.11l0-.14,0-.08V37.7l0-.08Zm.3,0h0Z" style="fill: #fff"/>
    </clipPath>
    <clipPath id="clip-path-15">
      <path id="SVGID-15" data-name="SVGID" d="M161.52,34l-.07.08,0,.09,0,.09-.05.09-.05.09,0,.09,0,.08,0,.09-.05.09-.09.09-.1.08-.06.08,0,.09,0,.11a.64.64,0,0,1,0,.09l0,.09,0,.11-.07.13-.09.16-.05.08-.06.1,0,.09-.07.11-.08.12-.07.11-.07.11.09,0,.09.05.05.11,0,.11.11,0,.11,0,.11,0,.11,0,.1-.06.09-.06.1,0,.1-.05.1,0,.1,0,.11,0,.1,0,0-.08,0-.07.12,0h.09l.08,0,.09-.06.08-.06.07,0h.16l.08-.06.07-.08,0-.08.05-.08.12,0h.09l.06-.14.07-.15H163l.08,0,.09,0,.08,0,.08,0,.08-.06.08-.06.08-.08v-.13l.09,0,.09-.09.11-.11.07-.11,0-.08,0-.08,0-.08,0-.08,0-.08.07-.12.06-.1.05-.1.08-.15,0,0H165v.49l-.13.12,0,.1,0,.1,0,.1,0,.1,0,.09,0,.1,0,.1,0,.1-.06.08-.07.09-.06.08-.07.08-.07.08-.06.09-.07.08-.06.08v.37l-.12.1-.11.09-.11.09-.11.08-.11.08-.1.08-.1.07-.1.07-.1.06-.09.06-.09.06-.09.05-.08,0-.09,0-.07,0-.08,0,0,.09-.07,0h-.16l-.1,0,0,0h-3.2l0-.1.12-.1.11-.09-.11-.13-.12-.13.08-.14.06-.1,0-.08v-.25l0-.1v-.1l0-.1v-.1l0-.1,0-.09v-.29l0-.13,0-.14.08.1.09.07.09.05h.2l.15,0,.08,0,.08,0,.08,0V35.2l0-.08L160,35l.09-.08,0-.08,0-.08,0-.08,0-.08,0-.07,0-.08,0-.08,0-.07,0-.08,0-.07.08-.15,0,0Z" style="fill: #fff"/>
    </clipPath>
    <clipPath id="clip-path-17">
      <path id="SVGID-17" data-name="SVGID" d="M160.5,34l.06-.1.09-.14.07-.07.09-.12.06-.14v-.16l.13,0,.07-.13.06-.13.08,0,.08,0,0-.08.05-.1.08-.1.1-.1.08,0,.07,0,.09,0,.09-.07.09-.08.09-.1.1-.11.1-.12.08,0h.14l.07-.08.09-.15.13-.09.09,0,.09,0,.08,0,.14,0,.08,0,.08.06.08.05h.24l.11,0,.09,0c.07,0,.08,0,.09.05l.05.09.1.14.14.1.1,0h.17l.06.09.06.1,0,.07a.15.15,0,0,0,0,.08l.08.09.08.09.07.11.06.13c0,.09,0,.12,0,.15s0,.05,0,.07v.09l0,.09v.19l0,.15,0,.15,0,.09V34h-.68l0-.05,0-.08v-.51l0-.09,0-.1,0-.11,0-.13,0-.13-.13,0-.13,0-.13-.05-.14,0-.09,0-.08,0h-.1l-.08,0-.07,0h-.1l-.07.05-.08.11c-.07.06-.08.06-.09.06l-.15,0-.08,0-.1,0-.1,0-.11,0-.11,0,0,.09,0,.09-.08,0-.1,0-.1.09-.05.09,0,.1,0,.12-.06.09-.11.14-.09.11,0,0Z" style="fill: #fff"/>
    </clipPath>
    <clipPath id="clip-path-19">
      <path id="SVGID-19" data-name="SVGID" d="M177,41.64l-.09.1-.09.11-.08.14,0,.1,0,.12-.05.12-.07.16-.06.16-.1.07-.09.06-.09.07-.1.07,0,.15h-.35l-.09.1-.08.09-.08.09-.09.1H175l-.15.08-.15.08-.09,0-.1,0a.31.31,0,0,1-.16,0l-.17,0H174l-.17,0-.11.12-.12.06h-.24l-.12,0-.09,0h-.19l-.09,0-.18,0-.17,0-.12,0h-.18l-.12,0h-.35l-.1,0-.1,0-.14,0-.13,0-.11.07-.1.07-.11-.12-.09.06-.1.06-.16-.09-.15-.06-.13,0-.11,0-.1,0-.14.06-.13,0-.12,0-.13,0h-.14l-.15,0-.14,0h-.75l-.13,0h-.09l-.09-.06c-.12-.09-.18-.11-.22-.14l-.11,0-.17-.07a.61.61,0,0,1-.14-.1l-.12-.12-.09-.17,0-.09,0-.1a.5.5,0,0,1,0-.12s0-.07,0-.12,0-.08,0-.12v-.14l.14,0,.14,0,.14,0,.14,0,0-.09v-.1l.13-.18.08.15H168v.13l.13-.06.12-.07.11,0c.08.08.08.1.09.1v.11l0,.1.14.09.06.11V43l.17,0,.16,0,.17,0,.17,0,.13.12.13.11.08-.13H170l.21,0h.64l.21,0h.42l.22,0h.63l.22,0H173l.14,0,.15,0,.15,0,.14,0,.15,0,.14,0,.15,0,.14,0,.07-.13.14,0,.14,0,.08-.11.15,0,.14,0,.14,0,.14-.05.13-.06.12-.06.13-.07.11-.07h.1l.13-.15.09-.08,0-.18,0-.1v-.1l0-.12-.15-.13-.14-.12,0-.1,0-.1-.09,0-.15-.07-.17-.07-.09-.05-.13-.13h-.1l-.12-.15h-.26a.46.46,0,0,0-.07-.11l-.11-.07h-.46l-.1,0-.1,0-.11,0-.09,0-.17-.1-.13,0H173l-.15-.05-.17-.11h-.29l-.13-.07-.17-.06-.15-.12-.12-.08-.1,0-.09-.05-.11,0-.1,0-.09,0-.1-.05-.1,0L171,39l-.15-.13-.13-.08-.11,0-.11,0-.12,0-.11,0-.11,0-.11,0-.11,0-.11,0-.1-.08-.1-.09-.1-.08-.1-.08-.09-.07-.09-.06-.1-.07-.09-.14,0-.11,0-.1-.05-.11,0-.11,0-.1,0-.11,0-.11-.07-.1-.07-.1-.07-.11-.06-.1,0-.15V35.57l.08-.13v-.25l0-.12,0-.11,0-.12,0-.1.06-.1.06-.1.11-.08.1-.06.11-.1a.61.61,0,0,0,.12-.14l.06-.14.09,0c.11,0,.13-.07.14-.09a1.58,1.58,0,0,0,.09-.17l.13-.15.17-.16.14-.12.16-.14.18-.11.09,0,.1,0,.09,0,.1,0,.09,0,.1,0,.1,0,.1,0,.09,0,.1,0,.09,0,.1,0,.1,0,.09,0,.1,0,.09,0,.1,0h.1l.1,0,.09,0,.1,0,.1,0h.1l.09,0,.1,0,.09,0,.1,0,.09,0,.1,0,.09,0,.1,0h1.19l0,.16h.19l.14.06.1.12v.12l.08.12.16.12,0,.17,0,.12,0,.13,0,.12,0,.14v.12a.64.64,0,0,1-.06.1c-.06.06-.08.07-.09.07a.24.24,0,0,1-.13,0,1.2,1.2,0,0,1-.12-.12l-.06-.1-.06-.11-.06-.12-.12-.07h-.35l-.18,0-.18,0h-.14l-.09-.06-.12-.09-.12-.07h-.13l-.12.07-.11.09-.12,0h-.2l-.17,0a.91.91,0,0,0-.17.08l-.17.09-.12,0-.1,0-.17.07-.15.09-.1.06-.14,0-.14,0-.12.07-.16.11-.13.05-.16,0-.13,0-.1.08-.12.1-.16.13-.18.17-.12.14-.07.1-.06.09-.06.1-.11.1-.15.11a.76.76,0,0,0-.14.14l-.05.15,0,.14,0,.14,0,.13,0,.14,0,.14,0,.13,0,.14.13.08v.15a.44.44,0,0,0,0,.12c0,.08,0,.1,0,.11l0,.1a1.18,1.18,0,0,0,.08.12l.18.17.06.12.08.12.18.1.18.11.18.11.17,0,.13.05.1.09.1.1.09.1.12,0h.4l.15.07.16.13.15.08.16,0,.15,0,.15,0,.16.08.17.1.14,0,.14,0,.14.05.15,0,.14,0,.14,0,.14,0a.44.44,0,0,1,.11.11l.11.06h.13l.15,0,.15,0,.14.06.14.07.14.06.12,0,.13,0,.09.14.11.07.12.06h.51l.11.08.11.07.11.08.12.07a.41.41,0,0,0,0,.1l.07.13.09.11.12.11.06.11.11.15.15.07v.11l-.05.09.11.11.09.1.06.11,0,.1" style="fill: #fff"/>
    </clipPath>
    <clipPath id="clip-path-21">
      <path id="SVGID-21" data-name="SVGID" d="M69.23,41.26V42l0,.08v.08s0,.07,0,.1l0,.08a.48.48,0,0,0,0,.14c0,.07,0,.09.06.09s0,.07,0,.1,0,.09,0,.1a.27.27,0,0,0,.06.11l.11.12.16.13.08.06.08,0,.08.05.09,0,.09,0,.09,0,.09,0v.16h.17l.08,0h.26l.09,0h1.72l.1-.06.09-.07.08,0,.08-.06.13-.07.11-.05,0-.07.05-.08,0-.08,0-.08h.25l0-.13.12,0,.13-.05.09,0,.1,0,.12-.06.09-.09.05-.12c.06-.07.08-.09.1-.09l.09,0,.08-.11.16-.07.12,0,.12-.07.1-.09.08-.1.07-.12a.66.66,0,0,0,0-.15s0-.1,0-.15l.09-.06.09,0,.08,0h0l.08.14.06.12,0,.1a.45.45,0,0,1,0,.08.41.41,0,0,1,0,.1l-.07.13-.09.14,0,.07-.06.09,0,.08-.05.09,0,.09,0,.09-.05.09,0,.09,0,.09h-.09l-.1,0-.07.14-.08.14-.06.14-.07.14h-.17l-.08,0h-.08l-.09.06-.09.06-.09.06-.09.06-.09.06-.08.06L74,44l-.09.06-.06.14-.07.14h-.22l-.12.13-.11.14H73l-.07.13-.1,0h-.09l-.13,0-.14,0-.12.09-.11.11-.09-.07L72,44.77l-.13.06-.12,0-.1,0h-.23l-.13,0-.11,0-.1-.06h-.35l-.07-.06-.08-.06-.17,0-.16,0-.14,0-.13,0-.11-.06-.1-.06-.08-.08a.27.27,0,0,1-.07-.08v-.33l-.11-.06-.1-.06-.11,0-.11-.06,0-.14,0-.13-.06-.1-.08-.1-.09-.09,0-.1V43l0-.21,0-.16,0-.16,0-.15,0-.16,0-.16,0-.16,0-.15v-.38Z" style="fill: #fff"/>
    </clipPath>
    <clipPath id="clip-path-23">
      <path id="SVGID-23" data-name="SVGID" d="M72.23,37.61l-.11.08-.15.1-.14.1-.15.1h-.35l-.12.06-.13.06-.12,0-.13.06-.11-.06-.11-.07-.11,0-.15,0h-.08l-.1,0h-.1a.47.47,0,0,0-.1.1l-.08.1-.07.11a6134925831680.13,6134925831680.13,0,0,1-.1.24l0,.14s0,.09,0,.14V39l-.09.11-.1.11v.23l0,.09,0,.1v.07l0,.08,0,.12-.15.07,0,.12,0,.12,0,.12v.12l0,.12,0,.12,0,.12,0,.12-.15.13,0,.15v.08h-.68v-.51l0-.13,0-.13,0-.12,0-.13v-.56l0-.11,0-.12,0-.12,0-.12,0-.09v-.18l0-.08.09-.09,0-.08,0-.08,0-.09,0-.09,0-.1,0-.11,0-.11,0-.14v-.18l0-.09v-.09Zm.31,0,0,0h-.12l0,0Z" style="fill: #fff"/>
    </clipPath>
    <clipPath id="clip-path-25">
      <path id="SVGID-25" data-name="SVGID" d="M71.62,34l-.07.08,0,.09-.05.09,0,.09,0,.09-.05.09,0,.08,0,.09,0,.09-.1.09L71,35l0,.08,0,.09,0,.11a.68.68,0,0,1,0,.13l0,.1-.06.12a1.09,1.09,0,0,1-.08.15l-.09.16-.12.19-.14.23-.15.22.1,0,.09.05,0,.11,0,.11.11,0,.11,0,.11,0,.11,0,.09-.06.1-.06.09,0,.1-.05.1,0,.11,0,.1,0,.11,0,0-.08,0-.07.13,0h.08l.09,0,.12-.09.08-.05h.07l.08,0h.08l.09-.09,0-.08,0-.08,0-.08h.19l.06-.14.06-.15h.09l.09,0,.08,0,.08,0,.08,0,.08-.06.09-.06.07-.08v-.13l.09,0,.1-.09L74,35,74,34.9l0-.08,0-.08,0-.08.08-.16.07-.12.06-.1,0-.1.08-.15,0,0h.69v.49l-.13.12,0,.1,0,.1,0,.1,0,.1,0,.09,0,.1,0,.1,0,.1-.07.08-.06.09-.07.08-.07.08-.06.08-.07.09-.06.08-.07.08v.37a2.11,2.11,0,0,1-.23.19l-.22.17-.21.16-.2.14-.19.12-.17.11-.17.1-.16.07,0,.09-.06,0h-.19l-.08,0,0,0H69l0-.1.12-.1.12-.09-.12-.13L69,37.06l.08-.14.06-.1,0-.08v-.35l0-.1v-.1l0-.1,0-.1v-.24l0-.14,0-.13,0-.14.08.1.09.07.09.05h.2l.15,0,.09,0,.08,0,.08,0,0-.09v-.09c0-.06,0-.08,0-.09s0-.07,0-.08a.31.31,0,0,1,.07-.08l.09-.08c0-.05,0-.1,0-.16l.06-.16.07-.15a.69.69,0,0,1,.07-.15l.07-.15.09-.15a.05.05,0,0,1,0,0Z" style="fill: #fff"/>
    </clipPath>
    <clipPath id="clip-path-27">
      <path id="SVGID-27" data-name="SVGID" d="M70.6,34l.06-.1.09-.14.11-.11a.7.7,0,0,0,.08-.12.63.63,0,0,0,0-.14,434864527641.54,434864527641.54,0,0,1,0-.16h.13l.06-.13.07-.13.07,0,.08,0a.27.27,0,0,1,0-.08l.06-.1.07-.1.1-.1.08,0,.08,0,.09,0,.08-.07.09-.08a.94.94,0,0,1,.1-.1l.1-.11a.94.94,0,0,1,.09-.12l.09,0h.14l.06-.08.1-.15.13-.09.09,0,.08,0,.09,0,.13,0,.08,0,.12.09.09,0,.13,0,.13,0,.1.05H74a.14.14,0,0,1,.08.1.56.56,0,0,0,.05.08l.12.14.14.08.09,0h.17l0,.09a.89.89,0,0,0,0,.1l0,.07a.2.2,0,0,0,.06.13l.08.09a.44.44,0,0,1,.08.1.39.39,0,0,1,.06.11.78.78,0,0,1,0,.14.83.83,0,0,1,0,.15c0,.06,0,.12,0,.18a1.15,1.15,0,0,1,0,.19l0,.15,0,.15V34h-.69l0-.05,0-.08v-.29a1,1,0,0,1,0-.14l0-.08,0-.09,0-.1,0-.11,0-.13,0-.13-.13,0-.14,0-.13-.05-.13,0-.09,0-.09,0h-.1l-.07,0-.08,0h-.09l-.08.05a.38.38,0,0,0-.07.11c0,.06-.08.06-.1.06l-.14,0-.09,0-.09,0-.1,0-.11,0-.12,0,0,.09,0,.09-.08,0-.11,0-.1.09,0,.09,0,.1,0,.12,0,.09-.11.14-.1.11,0,0Z" style="fill: #fff"/>
    </clipPath>
    <clipPath id="clip-path-29">
      <path id="SVGID-29" data-name="SVGID" d="M87.07,41.64l-.09.1-.09.11a1.74,1.74,0,0,0-.12.24l-.1.24-.13.32-.09.07-.1.06-.09.07-.09.07,0,.15h-.35l-.08.1-.09.09-.08.09-.08.1h-.46l-.15.08-.14.08-.14,0a.89.89,0,0,0-.15.12l-.17-.06-.18,0-.15,0-.19.06v.16l-.11,0h-.24l-.12,0-.1,0H83l-.09,0-.17,0-.18,0-.11,0h-.18l-.12,0h-.36l-.1,0-.1,0-.13,0-.14,0-.1.07-.11.07-.1-.12-.1.06-.1.06L80.68,44l-.15-.06-.13,0-.12,0-.1,0-.13.06-.2-.07-.12,0-.13,0h-.15l-.14,0h-.15l-.15,0h-.24l-.1,0-.11,0-.14,0-.12.07-.13-.08-.1-.1-.4-.16a.75.75,0,0,1-.25-.22,1.19,1.19,0,0,1-.16-.36,2.49,2.49,0,0,1-.05-.5l.14,0,.14,0,.14,0,.14,0v-.19l.12-.18.08.15h.16v.13l.12-.06.12-.07c.12,0,.14,0,.16.07s0,.1,0,.13a.3.3,0,0,1,0,.09l-.06.14.12,0h.11V43l.17,0,.17,0,.17,0,.17,0,.13.12.13.11.07-.13.85-.05.85,0,.85-.05.84,0,.29-.06.29,0,.3-.06.29,0,.06-.13.14,0,.15,0,.07-.11.3-.07.27-.09.26-.12.23-.14h.11l.12-.15.1-.08,0-.18,0-.1,0-.1,0-.12-.15-.13-.15-.12,0-.1,0-.1-.1,0-.15-.07-.16-.07-.1-.05-.13-.13H85l-.12-.15h-.25c-.07-.11-.09-.14-.12-.15a.48.48,0,0,0-.18-.06l-.18,0a.78.78,0,0,1-.22,0l-.2-.05L83.49,40l-.18-.12H83l-.16-.11-.17-.1-.17.1-.08-.13h-.18l-.15-.12L82,39.44l-.2-.08-.2-.09-.2-.08-.19-.09L81,39l-.15-.14-.23,0-.22,0-.22,0-.22,0-.21-.18-.19-.17-.19-.13-.19-.13-.09-.22-.08-.21L79,37.43l-.09-.22-.06-.1-.08-.1-.06-.11-.07-.1,0-.31,0-.3,0-.31,0-.31.08-.13a2,2,0,0,1,0-.25,1.55,1.55,0,0,1,.05-.23,1.43,1.43,0,0,1,.08-.22l.12-.2.22-.14.15-.14a.53.53,0,0,0,.1-.14,1,1,0,0,0,0-.14l.18,0a1.22,1.22,0,0,1,.07-.17l.1-.15a1.07,1.07,0,0,1,.14-.16l.18-.16.16-.14.16-.14.39-.17.38-.16.39-.17.38-.16.2,0,.19,0,.19,0,.2,0,.19-.06.19-.06.19-.06.19-.06.3,0,.3,0,.3,0,.29,0,0,.16h.18l.1,0c.11.06.13.08.15.11v.23l.16.12.16.11,0,.24-.05.25a.89.89,0,0,0,0,.14.92.92,0,0,1,0,.17c-.06.1-.09.11-.12.12h-.1a.34.34,0,0,1-.15-.14,1.94,1.94,0,0,1-.1-.17l-.13-.24h-.18l-.17,0H84l-.18.05-.18-.14L83.49,33l-.1-.06-.16.06-.1.09-.12.09H82.8l-.19.05-.17.07a.71.71,0,0,0-.14.1l-.23,0-.19.08a.38.38,0,0,0-.15.09.4.4,0,0,0-.12.1h-.29l-.11.09-.12.08-.17.08-.15,0-.19,0-.11.13-.14.08-.18.17-.18.18-.06.1-.06.09-.07.1-.06.1-.16.11-.12.09c-.09.09-.1.11-.1.12l-.07.27-.07.27-.07.28-.07.27.14.08a1.06,1.06,0,0,0,0,.27.66.66,0,0,0,.08.21l.13.18.19.16v.13l.18.11.18.1.17.11.18.11h.17l.1.1.09.09.1.1.1.1h.53l.16.13.16.14.15,0,.16,0,.15,0,.15,0,.18.15.29.09.28.09.28.08.29.09c0,.09,0,.1,0,.12l.14,0H84l.15,0,.15,0,.14.07.13.07.13.06.13,0,.12,0,0,.13.12.07.12.06h.5l.11.08.12.07.11.08.11.07,0,.14.08.12.1.12a1.27,1.27,0,0,0,.12.1l0,.17.18.12.12,0-.06.1,0,.09.11.11a.41.41,0,0,1,.09.1.6.6,0,0,1,.06.11.3.3,0,0,1,0,.1" style="fill: #fff"/>
    </clipPath>
    <clipPath id="clip-path-31">
      <path id="SVGID-31" data-name="SVGID" d="M97.53,39.57l0,.08.07.16-.18.12-.09.09a.63.63,0,0,0-.1.12l0,.1.05.1-.08.11-.08.1.06.13,0,.14.05.13,0,.13-.11.16-.12.17V42l0,.15,0,.15.13.07,0,.19.11,0,.09.07.18.17.14,0,.16,0,.15,0,.15,0a1,1,0,0,1,.1-.17.8.8,0,0,1,.13-.13l.16-.08a.58.58,0,0,1,.19,0l0-.1,0-.1.11,0,.1,0,.11,0,.1,0c0-.1.06-.12.06-.15a.35.35,0,0,1,.08-.13l.15-.14.11,0,.13-.18.13-.18.12-.14.12-.14h-.1l.14-.13.15-.12a.82.82,0,0,1,.17-.14l.12-.06.13,0,0-.13,0-.12,0-.13,0-.13.22-.11a.76.76,0,0,0,.17-.13.41.41,0,0,0,.1-.13h.94l-.11.06-.1.18-.1.18-.1.18-.1.17-.16.16-.15.16-.16.16-.16.16-.1.17-.11.18-.14.14-.13.15-.15.15-.13.14-.08.16-.06.15-.2.13-.19.13-.19.14-.19.13-.21.25-.22.26-.21.25-.21.25-.15,0-.14,0-.16.08-.11.08-.13.11a.37.37,0,0,1-.17,0,.21.21,0,0,1-.11-.08l-.08-.13a2,2,0,0,1-.07-.19,2.15,2.15,0,0,1-.43-.21,1.81,1.81,0,0,1-.33-.26,1,1,0,0,1-.2-.3.81.81,0,0,1-.08-.34l.1-.06.1-.07c0-.08-.05-.17-.08-.25l-.06-.26a2.34,2.34,0,0,1,0-.26,2.28,2.28,0,0,1,0-.26l-.15-.11.09-.14,0-.11a.94.94,0,0,0,0-.16l0-.13,0-.13,0-.13,0-.13,0-.25,0-.24,0-.25v-.06Zm7.33,0,0,0-.12.16.06.13.06.1.12.12a1.31,1.31,0,0,0-.09.17c0,.06-.06.14-.09.22s0,.18-.07.29a2.9,2.9,0,0,0-.07.34l.11,0,.11,0,0,.14a.26.26,0,0,1,0,.11,1,1,0,0,1,0,.18.93.93,0,0,1,0,.13l-.06.13a.51.51,0,0,1-.09.16h.17l0,.1,0,.1,0,.1,0,.1H105l.13,0h.27l.09.17.09.17a.24.24,0,0,0,0,.13.35.35,0,0,0,.12.14l.11.08c-.05.08,0,.1,0,.12l.16.15-.09,0-.09,0-.1.05-.09,0,0,.12,0,.11-.1,0-.11,0-.1,0-.09,0-.13-.09-.1,0-.09,0-.11-.13-.1-.13-.1-.12-.11-.13v-.58l-.09-.09-.1-.08v-.2l0-.21v-.4l0-.43,0-.42,0-.42,0-.43,0-.14,0-.14,0-.14,0-.14-.07-.11Z" style="fill: #fff"/>
    </clipPath>
    <clipPath id="clip-path-33">
      <path id="SVGID-33" data-name="SVGID" d="M98.6,35c0,.1-.08.18-.12.27l.11.05.1,0-.17.15-.17.15.06.1,0,.11a.78.78,0,0,0-.11.18l-.07.19c0,.07,0,.14,0,.22a1.5,1.5,0,0,0,0,.22v.14l-.09.14-.1.15v.45l-.09.12a.75.75,0,0,0-.07.12.61.61,0,0,0-.05.12.5.5,0,0,0,0,.12l-.1.1v.48l-.1.13v.14s0,.11,0,.17l0,.19c0,.06,0,.14,0,.21l0,.08h-.72l0-.18a.89.89,0,0,1,0-.11.66.66,0,0,1,0-.15.64.64,0,0,1,0-.14v-.17c0-.1,0-.12,0-.14v-.11c0-.09,0-.11,0-.14l.07-.09a.43.43,0,0,0,.15-.16.83.83,0,0,0,.07-.13.56.56,0,0,0,0-.12.41.41,0,0,0,0-.11c0-.08,0-.1,0-.11l-.12-.16c0-.09,0-.1,0-.12l.11,0c-.11,0-.13,0-.15-.06s-.05-.08-.05-.11.05-.08.07-.09l.21,0a1,1,0,0,1,0-.18.32.32,0,0,1,0-.14.69.69,0,0,1,0-.13.75.75,0,0,1,.07-.12l.07-.11a.93.93,0,0,0,.09-.17l-.17-.1.09-.14.09-.14.08-.14.09-.14v-.13a1.09,1.09,0,0,1,0-.26.76.76,0,0,1,0-.16Zm6.85,0,0,.07-.07.11-.08.1,0,.1a.5.5,0,0,0,0,.13.88.88,0,0,0,0,.17,1.21,1.21,0,0,0,0,.2c.08.1.08.11.08.13l0,.1,0,.11,0,.18,0,.15,0,.14,0,.12,0,.12-.16.19v.14l0,.15v.29l0,.13V38s0,.08,0,.1v.1c0,.08,0,.1,0,.12v.28l-.06.12c-.06.07-.07.08-.08.11l-.06.18v.14l.05.17,0,.17-.09.13h-.78l0,0-.09-.15.12-.07.11-.06-.08-.12L104,39l0-.13,0-.12.13-.1,0-.17v-.16h.14v-.53l0-.13,0-.13a.29.29,0,0,1-.11-.07l-.13-.17-.11,0-.1,0-.1.06-.11,0a.71.71,0,0,1-.08.15l-.09.12a.36.36,0,0,1-.08.09l-.1.14v.14l-.09.11-.14.06-.09.13v.09l0,.09v.1l-.18.13v.19l-.12.1-.1.11-.09.13s0,.08-.07.13l-.07,0h-.94v0a.44.44,0,0,0,.06-.16h.16l.12-.17.13-.17,0-.11,0-.11.12,0,.13,0a.22.22,0,0,1,0-.1.31.31,0,0,1,0-.12l.07-.1.07-.1.08-.12.08-.11.06-.1.06-.09.12.05,0-.15a.45.45,0,0,1,.06-.12.31.31,0,0,1,.08-.11,1,1,0,0,1,.11-.1l0-.1a.74.74,0,0,1,.1-.16l.14-.12.15-.06.14-.09.06-.16c0-.12,0-.14,0-.15a.61.61,0,0,0,0-.15.38.38,0,0,1,.07-.22l.1-.14.09-.1.09-.13,0-.15.1-.14.08-.13,0-.11a.41.41,0,0,1,.06-.18.61.61,0,0,0,0-.12l0-.08Z" style="fill: #fff"/>
    </clipPath>
    <clipPath id="clip-path-35">
      <path id="SVGID-35" data-name="SVGID" d="M97.83,35l0-.1A.94.94,0,0,1,98,34.7a1.07,1.07,0,0,1,.15-.22V34l.11-.08c0-.08-.06-.1-.06-.13a1.32,1.32,0,0,1,0-.13c.12-.08.15-.08.17-.08v-.43l.1,0a.81.81,0,0,1,0-.11.32.32,0,0,1,0-.17.39.39,0,0,1,.08-.1l.11-.13.12-.13.13-.15.1-.14.09-.12,0-.11h.2s.08,0,.1,0,.08-.08.08-.1-.07-.12-.08-.13l.23,0a.84.84,0,0,0,.18,0,.26.26,0,0,0,.1-.07l.17-.15.12-.06.12-.07.12-.06.34,0,.34,0,.35,0,.34,0v.11l.27.05.28.06.28.06.28.06h.21c.1.06.11.08.12.11a.3.3,0,0,1,0,.1l.13,0a.42.42,0,0,0,0,.1c.09.09.12.1.15.11l.1,0,.13,0,.12.12.12.12.14,0,.14,0,.14,0,.13,0v.23l.21-.12.22-.11.25-.1.28-.1v.43h-.13l.13.06.13.07,0,.19,0,.2.06.17,0,.16-.11.13-.12.13,0,.11,0,.11,0,.11,0,.11a.56.56,0,0,1,0,.12,1.12,1.12,0,0,1,0,.13s0,.09-.07.14a.89.89,0,0,1-.09.16l.09.16,0,.1h-1.2s0,0,0,0,0-.08,0-.12l.12-.12.11-.11,0-.18V34.1l0-.17,0-.12,0-.12,0-.12,0-.12-.11,0-.1,0-.11,0-.11,0-.18-.16-.18-.17-.19-.16-.18-.17-.15-.08-.12,0-.14,0-.13,0-.18-.06h-.32l-.13-.17-.15.06-.15.06-.12-.12-.11,0-.11,0-.11,0-.1,0h-.1l-.11,0-.17,0-.21.06-.26.09-.29.13.05.1-.11,0-.12,0-.06.1-.14,0-.15,0v.16a.42.42,0,0,0-.13.11,1.43,1.43,0,0,0-.15.18l-.16.24c0,.09-.11.19-.17.31s-.07.26-.11.38-.08.25-.12.36l-.12.32s0,0,0,0Z" style="fill: #fff"/>
    </clipPath>
    <clipPath id="clip-path-37">
      <path id="SVGID-37" data-name="SVGID" d="M121.27,40.37l-.06.25,0,.26,0,.25-.06.25,0,.12,0,.11-.1.13s0,.1.07.14,0,.1.05.15l0,.14s0,.09,0,.14l0,.13,0,.13v.53a2.35,2.35,0,0,1,0,.26c0,.1,0,.2,0,.3s0,.22,0,.33,0,.24,0,.37l0,.32,0,.31,0,.19,0,.2v.39a.58.58,0,0,1,0,.1,1.42,1.42,0,0,1,0,.16,2.2,2.2,0,0,0-.09.21c0,.07-.08.16-.12.25h.14l0,.1v.1l0,.1v.1l-.08.1-.08.1a.36.36,0,0,0-.08.15s0,.08,0,.13,0,.1,0,.15a1.62,1.62,0,0,1-.06.17,1,1,0,0,1,0,.16l-.06.13-.06.13-.08.12-.07.13-.09.15-.09.15-.11.15a1.47,1.47,0,0,1-.1.13l-.12.13-.12.1-.15.13-.15.13-.2.17-.2.18-.1,0-.1,0-.1,0-.1.05-.14.11-.13.09-.11.05-.1,0-.12.15-.36.07-.35.07-.12,0-.13,0-.11.09-.18.06-.21.05a.83.83,0,0,1-.22,0h-1.18l-.17,0-.18,0-.17,0-.17,0-.11,0-.1,0-.11,0h-.11l-.09-.08-.1-.08-.19,0-.19,0-.19,0-.19,0-.16-.14-.15-.14-.1-.08-.15-.1-.19-.11-.24-.14a2.25,2.25,0,0,1-.31-.16,1.26,1.26,0,0,1-.25-.19,1.31,1.31,0,0,1-.17-.24,1.19,1.19,0,0,1-.11-.26l.11-.13,0-.12,0-.12,0-.12,0-.12.11-.1a.3.3,0,0,1,.13,0l.1-.09h.1l.15,0,.1,0,.14,0,.15,0,.17,0h.17v.28a.32.32,0,0,1,.16,0l.1,0,.11.07a.8.8,0,0,1,0,.11.53.53,0,0,1,0,.11l0,.13a.53.53,0,0,0,0,.13.51.51,0,0,0,0,.1c.11.09.14.1.18.11a.89.89,0,0,0,0,.13l.13.08.09,0,.28.09.28.09.28.09.27.09.15,0,.15,0,0,.11H115l.11,0,.12,0,.12,0a.38.38,0,0,1,.18-.09,1.71,1.71,0,0,1,.29-.08l.41-.07.52-.06.11,0,.11,0,.1-.06a.39.39,0,0,0,.1-.08l.23,0,.17,0,.11-.06c.14-.08.18-.08.21-.08l.14,0,.11,0,.11-.07.27-.29.23-.23.22-.23.22-.24.13-.19.12-.19.13-.19.13-.19v-.35l.07-.11.07-.1.08-.11.07-.1v-.2l0-.09v-.1l.07-.16.07-.17,0-.19,0-.2,0-.2,0-.2,0-.19,0-.19,0-.2,0-.19v-.76a2.53,2.53,0,0,1,0-.28l0-.26a1.42,1.42,0,0,1,.07-.22,1.19,1.19,0,0,1,.08-.2l0-.15,0-.14,0-.15,0-.14V40.7l0-.13,0-.13,0-.12,0-.13v-.8l0-.14-.06-.14-.06-.14-.06-.14v-.22l0-.22v-.45l-.08-.25-.08-.24L120,37.2l-.08-.25-.12-.06h-.14a.73.73,0,0,0-.18.13l-.09.12,0,.13,0,.14-.18.08-.18.07,0,.13,0,.13,0,.12-.05.13-.17.17-.16.17-.12.19-.12.19-.12.2-.12.19-.16.11-.16.12-.16.11-.15.11-.2.21-.18.21-.19.21-.19.21-.16.15-.16.15-.14.12L116,41l-.14.11-.14.12-.15.1-.14.12-.13.09-.1.08c-.09.09-.11.1-.11.12l-.07.09L115,42l-.12.11-.1.08-.13.08-.11.05-.11,0-.1,0-.11,0-.11.13-.12.12-.2.15-.16.1-.21.11c-.08.11-.11.13-.14.14l-.09,0h-.11a2.49,2.49,0,0,1-.34.2,1.28,1.28,0,0,1-.29.14l-.3.09a1.55,1.55,0,0,1-.31,0h-.22l-.15,0-.11.07-.11.06-.22-.07-.15,0-.19,0a6.17,6.17,0,0,1-.44-.47c-.12-.15-.23-.29-.32-.42a2.55,2.55,0,0,1-.22-.37,1.82,1.82,0,0,1-.11-.33l0-.26,0-.26,0-.26,0-.26v-.32l0-.17v-.17l.07-.25.08-.25.07-.25.08-.25,0-.16V39l0-.11,0-.11,0-.11,0-.11.06-.22a1.34,1.34,0,0,1,.07-.18.67.67,0,0,1,.06-.15l.06-.13.06-.12a.66.66,0,0,0,0-.15.85.85,0,0,0,0-.17,1.5,1.5,0,0,1,0-.2v-.42l.13-.26.14-.25.13-.26.13-.26.09-.12a.74.74,0,0,0,.14-.17.85.85,0,0,0,.1-.14l.13-.2.15-.25.14-.16.14-.15c0-.08.07-.16.11-.23a1,1,0,0,1,.11-.17.53.53,0,0,1,.11-.14l.11-.08.1-.09a.64.64,0,0,0,.1-.13,1.59,1.59,0,0,0,.08-.18q0-.09.06-.21a.9.9,0,0,1,.2-.14l.16,0,.18-.05.19,0a.77.77,0,0,0,.29-.26,1.11,1.11,0,0,0,.09-.19l.19.05.12-.08.11-.09.12-.08.12-.08a.77.77,0,0,1,.12-.13l.13-.1.12,0a.2.2,0,0,1,.11,0l.13,0,.27,0,.2-.07.19-.07.2-.08.12,0,.12,0,.12,0,.13,0h.35l.13.09.14.09H117l.16.2.16.16.19.19.2.2.15.15a.9.9,0,0,1,.1.12.51.51,0,0,1,0,.24.75.75,0,0,1,0,.16.58.58,0,0,1,0,.14.54.54,0,0,1-.07.13h-.41l-.09-.14-.08-.13-.09-.14-.09-.14-.21-.1a.67.67,0,0,1-.17-.08l-.11-.08-.13,0a.89.89,0,0,1-.24-.05l-.15,0-.12,0-.11,0a.83.83,0,0,0-.22,0,1,1,0,0,0-.23.06l-.23.11-.23.15-.18,0,0,.18h-.25l-.16,0-.17,0-.08.16a.43.43,0,0,1-.11.12.47.47,0,0,1-.12.07l-.15,0-.14.15a.75.75,0,0,1-.14.12.47.47,0,0,1-.12.09l-.1.07-.08.17-.07.17-.13,0-.12,0,0,.18h-.23l-.11.19-.1.18-.11.19-.11.18-.17.12-.18.12,0,.13,0,.12,0,.12,0,.11-.09.14-.09.14-.09.14-.09.14a1.2,1.2,0,0,0-.06.2,1.41,1.41,0,0,1,0,.18c0,.07,0,.14,0,.23l-.15.15-.14.16-.07.3-.08.29-.07.3-.08.3-.12.15-.13.15v.47l-.08.28-.08.27-.08.27-.08.27,0,.18,0,.18v.26l0,.12v.13a.79.79,0,0,1,.11.15,1.17,1.17,0,0,1,0,.11s0,.09,0,.14a.78.78,0,0,0,.05.14.33.33,0,0,0,.06.1c.1.1.13.12.16.13l0,.14,0,.12.13,0,.1,0a.8.8,0,0,1,.13.08l.09,0,.1,0h.24l.14,0h.11l.16,0,.11,0a.48.48,0,0,1,.15-.1l.26-.09a3,3,0,0,1,.37-.08l.49-.07.14-.16.09-.1.08-.11.09-.11.09-.09a.67.67,0,0,1,.18-.13l.1-.07.09-.06.13-.08.12-.09.12-.08.1-.07.16-.07a.93.93,0,0,0,.2-.08A.42.42,0,0,0,115,41a.34.34,0,0,0,.09-.14.7.7,0,0,0,0-.16,2.64,2.64,0,0,0,.29-.14l.22-.13a.92.92,0,0,0,.14-.14.37.37,0,0,0,.08-.15l.1,0,.11,0,.1-.06.17-.14a.68.68,0,0,0,.12-.12l.13-.16.17-.22c.05-.08.12-.17.18-.27l.16.11,0-.13.05-.12.15-.05.15,0a.69.69,0,0,1,0-.13.63.63,0,0,1,0-.17,1,1,0,0,1,.12-.15h.1l.12,0,.09-.13.07-.14.15-.21.12-.17.13-.16.13-.17h.1l0-.13,0-.13,0-.14,0-.13a.37.37,0,0,0,.1-.14l.15-.33c.06-.14.13-.31.21-.52l.25-.7.09,0,.1,0,0-.1,0-.1,0-.11,0-.1,0-.11,0-.1,0-.11,0-.11a.56.56,0,0,0,0-.12,879157700429.3,879157700429.3,0,0,0-.08-.2l-.11-.19-.07-.12-.07-.11-.07-.11,0-.1,0-.11,0-.1,0-.11,0-.12,0-.12,0-.12,0-.11a.63.63,0,0,1,.07-.12c.1-.11.12-.13.15-.14s.16,0,.18,0,.12.1.14.14l.09.13.1.18.12.07.13.06v.48l.06.17.06.18,0,.15,0,.12c0,.09,0,.12,0,.15l0,.11,0,.11,0,.12a.38.38,0,0,1,0,.1c0,.11,0,.13,0,.15s-.07.1-.08.1,0,.12.06.19l.08.17.09.17.1.16,0,.13v.13l0,.14,0,.13a1.77,1.77,0,0,1,.14.17.85.85,0,0,0,.09.14l0,.1c0,.09,0,.12,0,.14a.66.66,0,0,1-.08.17l-.06.16,0,.17.11.13.07.12,0,.18v.26l0,.17,0,.17,0,.17a.88.88,0,0,1,0,.15,1,1,0,0,1,0,.14.8.8,0,0,1,0,.15c0,.05,0,.09,0,.14A.42.42,0,0,0,121,39a.58.58,0,0,0,0,.14s0,.1,0,.17a1.34,1.34,0,0,0,0,.21l.18.14.05.19,0,.18,0,.19Z" style="fill: #fff"/>
    </clipPath>
    <clipPath id="clip-path-39">
      <path id="SVGID-39" data-name="SVGID" d="M137.25,42.41h.55c.11.06.13.08.14.11a.33.33,0,0,1,0,.18.93.93,0,0,1-.05.1l-.09.1-.12.11-.1,0-.1.05-.13.14-.14.11-.13.08-.18.1-.11,0-.11,0-.1,0-.11,0-.11.07-.18,0a1,1,0,0,1-.25,0h-.33l-.13,0-.13,0-.12,0-.15-.05-.12,0-.15-.08-.21-.19-.22-.2-.22-.19-.21-.2-.05-.2,0-.21-.05-.2,0-.2-.13-.13-.13-.12v-.13a1.21,1.21,0,0,0,0-.19l0-.17-.06-.17a1.09,1.09,0,0,0-.08-.15v-.64l0-.19,0-.18s0-.09,0-.12a.71.71,0,0,0,0-.21.4.4,0,0,0,0-.15.34.34,0,0,0,0-.14l-.06-.15,0-.29v-.3l0-.3,0-.3-.15.08-.15.08-.08.14-.1.14-.12.09-.12.08a.52.52,0,0,0-.13.12,1.24,1.24,0,0,0-.13.19h-.12l-.11,0L132,39a1.13,1.13,0,0,0-.1.13.69.69,0,0,0,0,.13.68.68,0,0,0,0,.14l-.18.09-.14.11a.58.58,0,0,0-.1.12.61.61,0,0,0-.07.14l-.06.15-.09.14a1,1,0,0,1-.12.16l-.13.16a1.85,1.85,0,0,0-.14.14l-.13.11-.1.07-.16.07-.12.08-.24.28-.19.24-.19.23-.19.23-.2.19-.19.18-.16.18-.15.19-.13.07-.12.06-.12.07-.12.07-.12.17-.11.17-.23.08-.26.1-.29.12-.3.15-.1-.06-.1-.07-.1-.07-.1-.06-.12,0h-.13c-.08-.09-.09-.11-.09-.13a.55.55,0,0,1,0-.12l-.13-.12L126,43a.44.44,0,0,1,0-.12.71.71,0,0,1,.07-.15l-.18-.16-.17-.18.1-.13.1-.14h-.28l0-.12-.05-.13,0-.13,0-.12.1-.08.1-.08-.12-.17-.13-.18c0-.1,0-.2,0-.28s0-.15,0-.21a1.23,1.23,0,0,1,0-.13l0-.17V40a.62.62,0,0,1,0-.13l0-.13a.57.57,0,0,1,0-.14l.06-.16-.11-.08-.11-.08a.71.71,0,0,0,.1-.14.49.49,0,0,0,.06-.13.28.28,0,0,0,0-.12.43.43,0,0,0,0-.11c0-.12,0-.15,0-.19s0-.07,0-.11l-.06-.13c.09-.08.1-.11.11-.14a.34.34,0,0,0,0-.12v-.5l0-.22,0-.22,0-.22,0-.22.07-.46.08-.47.08-.46.08-.46c0-.08,0-.16,0-.24l0-.25a2.34,2.34,0,0,0,0-.26c0-.08,0-.17,0-.26l0-.11,0-.12,0-.11,0-.11a.48.48,0,0,1,0-.18.25.25,0,0,1,.09-.13.27.27,0,0,1,.14-.08.6.6,0,0,1,.2,0l.09,0,.1,0,.1,0,.09,0,.1.11.1.12,0,.14,0,.14,0,.14,0,.14v1l0,.33,0,.21v.63l0,.11,0,.1,0,.11,0,.11.05.13,0,.13,0,.1,0,.1,0,.1,0,.1v.34l-.07.1,0,.12a1,1,0,0,1,0,.19c0,.11,0,.13,0,.16v.13l.09.12,0,.13-.13.16,0,.14.08.12,0,.15,0,.17v.2l0,.1,0,.11,0,.1v.51l.15.18,0,.16,0,.16,0,.16,0,.15a.65.65,0,0,0,0,.18l0,.11a.75.75,0,0,0,.07.12l0,.14,0,.14,0,.09,0,.1,0,.09,0,.1a.42.42,0,0,1,.12.08l.13.11.15.14.16.17.14,0a.38.38,0,0,0,.13-.06l.12-.07a.52.52,0,0,0,.11-.1l.12-.11.13-.11L128,42l.16-.12a.24.24,0,0,0-.11,0,.67.67,0,0,0,.19-.1.85.85,0,0,0,.14-.1.76.76,0,0,0,.08-.11.22.22,0,0,0,0-.11l.14,0,.12,0,.09,0,.09-.11,0-.16.08-.11.13-.05c.11-.08.16-.15.23-.2l.2-.14a1.33,1.33,0,0,1,.24-.11l.27-.08v-.13l0-.13.12-.1.11-.1.13-.1.11-.1a.71.71,0,0,1,.06-.22.4.4,0,0,1,.12-.16.46.46,0,0,1,.16-.11.72.72,0,0,1,.22,0l0-.17.06-.18.11,0,.12-.05.08-.13.09-.12.09-.13.09-.13H132v-.15l.12-.07.13-.06,0-.09,0-.1,0-.09,0-.1.16-.08.16-.07.16-.07.15-.07.06-.15,0-.14.1,0,.09,0v-.16l.11,0a1.78,1.78,0,0,1,0-.28.93.93,0,0,1,.09-.2.42.42,0,0,1,.13-.11.37.37,0,0,1,.18,0l.08-.41.09-.4.12-.37.13-.36h.11v-.37a.48.48,0,0,0,.18-.23,2.23,2.23,0,0,0,.13-.3c.05-.12.11-.26.17-.42l.11,0h.24l.11,0,0,.11.07.13.07.12.07.13.06.12,0,.25-.05.25-.06.24-.06.25-.09.14-.1.15-.1.14-.09.15-.07.24-.07.25-.07.25-.06.24-.17.12-.17.11v.59l0,.09-.05.09,0,.1,0,.09v.21l0,.11v.11l-.18.18V39l0,.29,0,.36,0,.36,0,.36,0,.36.08.16v.2l0,.1,0,.1v.2l.19.28.13.23a1.22,1.22,0,0,1,.08.17.3.3,0,0,1,0,.11l.09,0,.1,0,.09,0,.09,0,0,.12,0,.12.17.07.17.08.15.07.15.07H136l.14,0,.14.05.1-.05.11,0,.1,0,.11,0,.1-.06.13-.07.14-.1.17-.14" style="fill: #fff"/>
    </clipPath>
    <clipPath id="clip-path-41">
      <path id="SVGID-41" data-name="SVGID" d="M34.83,27Z" style="fill: none;clip-rule: evenodd"/>
    </clipPath>
    <clipPath id="clip-path-42">
      <rect id="SVGID-42" data-name="SVGID" x="-4.46" y="-4.05" width="262.92" height="856.1" style="fill: none"/>
    </clipPath>
    <clipPath id="clip-path-43">
      <rect id="SVGID-43" data-name="SVGID" x="9.72" y="13.98" width="39.28" height="39.28" style="fill: none"/>
    </clipPath>
    <clipPath id="clip-path-44">
      <rect id="SVGID-44" data-name="SVGID" x="9.13" y="13.67" width="40.18" height="39.59" style="fill: none"/>
    </clipPath>
    <clipPath id="clip-path-45">
      <path id="SVGID-45" data-name="SVGID" d="M29.36,14A19.64,19.64,0,1,0,49,33.62,19.65,19.65,0,0,0,29.36,14Zm-.47,34.44,0,.08-.41.19,0,.07-.26.08h-.26l-.31,0L27.3,49l-.29.12-.34.18-.4,0h0l0,0-.79.4-.22,0-.17,0-.25.08h0l-.06,0-.13,0h-.12V50l-.93,0-.22,0L23,49.9l-.52-.07-.32-.21-.34-.45-.36-.67-.13-.62v-.11L21.14,47l.05-.13,0-.07v-.23l0-.62.05-.41v-.2l0-.33v-.06l.05-.37,0-.11V44l.07-.06,0,0v-.48l0-1.07.09-.14,0-.32,0-.17v-.36a.24.24,0,0,1,.08-.24l.07,0L21.51,41l0-.18,0-.31.06-.15.09-.08v-.15l0-.09v-.15l.12-.08,0-.28h0l0-.45L22,39l0-.54,0-.12v-.11a.31.31,0,0,1,0-.08l0-.07v0a.59.59,0,0,1,.05-.2l.05-.21.05-.66.06-.2v-.14l.11-.2v-.36l0-.3.08-.26v-.15l0-.19.05-.1,0-.07v-.08l.12-.26v-.43l0-.39,0-.16v-.11l.12-.31,0-.2.06-.18a.68.68,0,0,1,.06-.16.22.22,0,0,1,0-.08l.07-.12v0a.5.5,0,0,1,0-.18v-.06l0,0,.08-.08,0-.08.32-.54v0l0-.12,0-.06.23-.24.08-.07L24,31l.78-.19h.21l.09,0,.07-.05.32-.24.09-.05.43-.41.46-.59.05-.16.07-.1c.09-.11.1-.12.12-.13l.05-.05,0,0,.1-.23a.37.37,0,0,0,0-.09v-.12l0-.19.08-.13.11-.13,0-.3v-.55a.3.3,0,0,1,0-.11l.21-.42V26.2l0-.19v-.08l0-.33v-.08l0-.31v0l.08-1,0-.05v-.32l0-.93.2-.61v-.15l.5-1.28.18-.29,0,0v-.06l0,0a.44.44,0,0,1,.11-.12l.34-.35.23-.05.11-.05,1-.07.25.05.1.39-.69.26-.06,0-.11.05-.32.22-.34.7-.08.12-.43.78,0,.3.06.45,0,.26-.13.29,0,.24,0,.27-.09.29,0,.89-.12.76,0,.82,0,.3a.69.69,0,0,1,0,.19l0,.06,0,.09v.43c0,.1,0,.14,0,.17L28,29l-.16.28-.06.13-.11.18-.11.12-.11.1-.24.3a.58.58,0,0,1-.1.11l-.12.13-.1.19-.4.52,0,.22-.08.17-.15.1,0,.11-.12.19-.16.07-.39.08-.38.35-.09.15-.17-.06-.11-.06-.08,0-.07.08h-.31l-.09.18,0,.22-.06.18,0,0-.12.08,0,.06,0,.07-.12.19a.6.6,0,0,1,0,.11l0,.11,0,0,0,.22-.12.11,0,0-.06.16v.07l-.1.31,0,.21,0,.23v.49l-.13.08-.09.1,0,.45-.11.19,0,.18v.2l0,.21,0,.26-.08.19v0l-.05.18-.07.1-.11.44v.1l0,1.3,0,.24h0v.08h0l.06.13v.16a.45.45,0,0,1,0,.21l0,0-.08.06h0l0,0a.39.39,0,0,1,.1.17l0,0,0,.17-.16.39,0,.13v.08l0,.12,0,.13V42l0,.12-.09.24,0,.21a.34.34,0,0,1-.05.15l0,0,0,.23-.05.15,0,.18,0,.25-.14.39v.32a.46.46,0,0,1,0,.16l0,.11.05.27a.36.36,0,0,1,0,.29v.13l0,.17,0,.18v0a.67.67,0,0,1-.06.12l-.05.12,0,.41.05.22,0,.17-.05.13,0,.09.11.22a1.16,1.16,0,0,1,0,.2v.21l0,.12.07.13,0,.24v0l.05.08.05.18a.11.11,0,0,1,0,.05l.06.08.23.22.09.08.26.07.44.18.34,0H24l0,0,.22-.15h.16l.46.07.06,0c.09-.07.11-.09.15-.1l.3-.06h.26l0-.08.42-.09h.27l.06-.05.07,0,1-.13.05,0c.11-.08.13-.1.17-.11l.11,0H28l.11-.07.11-.12.15,0h.3l.17.14.07.22Zm8-30.56-.06,0-.12.05-.43.41-.23.51L36,19l-.1.13-.36.73,0,.25.06.44,0,.26-.12.28,0,.25,0,.27-.09.3v.88l-.12.71,0,.87v.3a.41.41,0,0,1,0,.17l0,.08,0,.08v.46c0,.09,0,.11,0,.13l-.12.83-.19.35a.15.15,0,0,1,0,.06l-.1.17-.11.12-.1.11-.24.29c-.06.08-.08.1-.1.11l-.13.13-.1.19-.31.42-.09.11a.18.18,0,0,0,0,.06v.06l-.11.26-.14.1v.12l-.12.18L33,29.3l-.4.08-.38.35-.09.16-.17-.07-.1-.05-.08-.06-.07.08h-.31l-.09.18v.22l-.06.17,0,0-.11.08L31,30.6l-.13.19c0,.07,0,.09,0,.11l-.06.13,0,.07-.17.28-.05,0-.06.16v.07l-.1.31,0,.21,0,.23,0,.35v.14l-.14.08-.09.1,0,.28a.78.78,0,0,1,0,.13v.05l-.11.18,0,.18v0l0,.18,0,.2,0,.26-.07.19v0l0,.19-.07.09-.12.44v.1l0,1.22h0v.07l-.05.33h0l.06.13,0,.19v0a.61.61,0,0,1,0,.14l-.06.08-.07.06v0a.73.73,0,0,1,.11.16v.05l0,.14-.17.42,0,.15v.07l0,.12,0,.13v.17l0,.05,0,.11-.1.2v0l0,.22a.89.89,0,0,1-.06.15l0,0,.05.23-.06.16,0,.17,0,.24-.14.4v.31a.81.81,0,0,1,0,.16l0,.12,0,.27a.35.35,0,0,1,0,.27l0,.15,0,.17,0,.18,0,0-.06.12-.05.07.05.85-.05.13v.07l.12.24a.79.79,0,0,1,0,.2l0,.27,0,.06.06.13,0,.24,0,0,0,.07.08.26.28.28.07.06.27.07.14.06.3.12.35,0H31l.2-.17h.21l.45.07.06,0c.1-.07.13-.1.19-.1L32.4,46h.27V45.9l.43-.09h.27a.12.12,0,0,1,.06,0l.07,0,1-.13.05,0a1.33,1.33,0,0,1,.15-.1l.06,0h.28l.1-.07.12-.12.14,0h.3l.17.14.08.21-.1.3-.21,0-.09.08-.1,0,0,.07-.27.08h-.25l-.32,0-.26.17-.3.12-.15.11-.19.07-.4,0h0l0,0-.71.38-.3.05-.18-.05-.3.12-.14,0h-.12v.1l-.93,0-.21,0L30,47.26l-.52-.08L29.19,47l-.34-.44-.36-.67-.12-.62v-.11l-.18-.78.1-.25V43.9l0-.34v-.28l.06-.41v-.2l.05-.28v-.11l0-.37,0-.11v-.46l.11-.09v-.48l0-.55V39.7l.08-.13.05-.34,0-.16v-.35a.28.28,0,0,1,0-.18l0,0,.09-.05-.14-.09,0-.18.05-.3.05-.16.09-.08v-.15l0-.09v-.15l.12-.07,0-.19,0-.55.09-.09,0-.54,0-.12v-.11a.11.11,0,0,0,0,0l0-.1v0a.32.32,0,0,1,0-.18l.06-.23.05-.66.05-.21V34l.11-.2v-.36l0-.3.07-.14s0,0,0-.06v-.06l0-.15,0-.19,0-.1s0-.05,0-.07l0-.12a.64.64,0,0,1,.06-.1l0-.18,0-.38.05-.38,0-.17v-.1l.12-.31.05-.25.05-.13c0-.09,0-.12,0-.14A.41.41,0,0,1,30,30l.07-.13v0a1.16,1.16,0,0,1,0-.13v-.08l.06-.06.09-.09.34-.61,0,0a.23.23,0,0,1,0-.11l0-.06.07-.06.1-.08.07-.1.13-.09.78-.19H32l.6-.43.37-.34.46-.6,0-.16.07-.1.1-.11.08-.07,0,0,.1-.23,0-.07v-.14l0-.19.09-.13.1-.12,0-.31,0-.22v-.28l0-.19.06-.11.15-.28v-.73l0-.33v-.08l0-.31v0l.09-1,0-.05v-.33l0-.92.05-.18,0-.1v-.09l0-.12a.34.34,0,0,1,0-.08l.07-.33.64-1.43s0,0,0,0v-.06l0,0a.69.69,0,0,1,.11-.12l.35-.36.24-.06.19-.06.87-.05.25.05.1.39Z" style="fill: none;clip-rule: evenodd"/>
    </clipPath>
    <clipPath id="clip-path-46">
      <rect id="SVGID-46" data-name="SVGID" x="9.72" y="13.67" width="39.59" height="39.59" style="fill: none"/>
    </clipPath>
  </defs>
  <title>logo</title>
  <g>
    <g>
      <path id="SVGID-47" data-name="SVGID" d="M67.09,44c0-.09,0-.09,0-.09h.09a.37.37,0,0,0,.1-.07l.1-.07.08-.1c0-.11-.05-.13-.07-.15l0-.11-.1-.08-.14,0-.11,0-.1.07-.09.11-.11.08-.1,0h-.59l-.11,0-.11.06-.13,0-.12.09-.11.1-.13,0h-.25l-.11,0h-.21l-.11,0h-.3l-.14.06-.12,0-.11,0-.15,0h-.52l-.12.08-.11.06-.1.06-.12.07-.11.06-.11,0h-.66l-.11,0a.53.53,0,0,0-.08.11l-.13,0h-.82l-.14.09h-.41l-.18,0H59.7l-.1-.06c-.1-.08-.12-.09-.14-.09l-.13,0H59.1a.19.19,0,0,1-.1-.05l-.12-.13-.12-.05-.18-.11-.08-.12-.14-.14-.11-.1-.07-.13v-.11c0-.07,0-.08,0-.09l0-.16,0-.1,0-.1c0-.11,0-.12,0-.13l-.05-.1a.84.84,0,0,1,0-.1v-.13l-.06-.11,0-.11,0-.1,0-.13v-.84l0-.12,0-.11a.39.39,0,0,1,0-.12l0-.13,0-.14V39.62l0-.14,0-.11V39l0-.12a.68.68,0,0,0,0-.12v-.3a.72.72,0,0,0,0-.13v-.1a.64.64,0,0,1,0-.18l0-.12.05-.11,0-.13c0-.12,0-.15,0-.17s0-.14.06-.17a.37.37,0,0,0,0-.15v-.25l0-.11v-.1l0-.13,0-.11v-.4l0-.15V35.8l0-.11c0-.13,0-.16,0-.19a.27.27,0,0,1,.06-.11l0-.12,0-.15a1.9,1.9,0,0,1,0-.19c0-.07,0-.09,0-.1l0-.15,0-.11,0-.15,0-.13,0-.11,0-.11c0-.1,0-.11,0-.12v-.11l0-.11v-.24c0-.11,0-.14,0-.16l.12-.13.16-.12,0-.13v-.21l0-.12-.06-.13c0-.06,0-.1,0-.12l0-.1.08-.13v-.47l0-.1v-.24a.54.54,0,0,0,0-.11l.08-.14c0-.06,0-.08,0-.1l0-.16,0-.11,0-.13,0-.09,0-.15,0-.09v-.48l0-.12v-.1l0-.12V29c0-.1,0-.11.05-.12l.07-.1v-.1l0-.12c0-.11,0-.14,0-.16V28l0-.14V27.7l0-.12.06-.17,0-.12,0-.18v-.9l.11-.1,0-.17,0-.18v-.42l0-.11,0-.13,0-.11.09-.12,0-.1.07-.1.06-.09.07-.1V23.4a.25.25,0,0,1,0-.1l.09-.13,0-.1,0-.14,0-.13c0-.1,0-.11,0-.12l.12-.12.1-.09c.1-.11.11-.12.11-.14l0-.15,0-.11.06-.15V21.8c0-.05,0-.08,0-.1s0-.14,0-.16a1.26,1.26,0,0,1,0-.16l0-.12,0-.14a1.25,1.25,0,0,1,0-.14l.09-.15,0-.12c0-.11,0-.12,0-.12s0-.13,0-.14l.08-.1a1.32,1.32,0,0,0,.08-.14l.08-.11.08-.16.05-.16,0-.14c0-.09,0-.11,0-.12l-.09.06-.14.07-.15.09-.13.1-.11.11-.07.13-.07.12-.11.18-.1.11a1,1,0,0,0-.17.18L60,20.8l0,.1-.05.1-.07.12-.11.13-.07.11-.06.15,0,.15,0,.12v.1a.87.87,0,0,1,0,.12,1.14,1.14,0,0,0-.11.17l-.06.09-.06.11-.07.13-.06.12a.55.55,0,0,0,0,.17v.1a.81.81,0,0,1,0,.17.66.66,0,0,1-.09.09l-.06.12v.22l0,.13,0,.1-.08.1,0,.13,0,.13,0,.13,0,.11,0,.11v.23l0,.15v.13l0,.1v.39l0,.14v.11l0,.11,0,.12,0,.12,0,.11,0,.12,0,.12v.12l0,.13,0,.15c0,.14,0,.18,0,.2l-.08.12-.07.11v.11l0,.13,0,.16,0,.14v.12a.63.63,0,0,1,0,.14l0,.11a.62.62,0,0,0-.06.18.53.53,0,0,1,0,.11l-.06.12v.54l0,.17a.65.65,0,0,0,0,.17V30a.8.8,0,0,1-.06.18l-.06.1,0,.13a1.23,1.23,0,0,0,0,.18V31l0,.13v.25l0,.12a.27.27,0,0,0,0,.12.29.29,0,0,1,0,.15c0,.09-.06.12-.06.13a.27.27,0,0,0,0,.1l-.09.12a.87.87,0,0,0,0,.13v.61a.36.36,0,0,0,0,.13h.12c.05.07.05.09.05.1s-.1.09-.12.09l-.11.07,0,.12-.06.1,0,.15V34a.89.89,0,0,0,0,.11l0,.11,0,.13v.42c0,.09,0,.11,0,.12l-.11.12,0,.11,0,.16,0,.09,0,.09a.46.46,0,0,1,0,.1l0,.11v.39l0,.12,0,.11,0,.15v.28a.68.68,0,0,1,0,.12c0,.1,0,.11,0,.12l0,.12,0,.11a.53.53,0,0,1,0,.11.78.78,0,0,0-.07.17.67.67,0,0,0,0,.12.43.43,0,0,0,0,.12l-.1.09a.38.38,0,0,0,0,.12v.3l0,.12v.12c0,.1,0,.13,0,.15v.11l0,.13c0,.1,0,.12,0,.14v.14l0,.1,0,.1v.21a.89.89,0,0,0,0,.11.89.89,0,0,1-.09.15l0,.1,0,.12v.46a.93.93,0,0,1,0,.13l0,.13,0,.15,0,.12c0,.11,0,.14,0,.16a.51.51,0,0,1,0,.1l0,.1a1.83,1.83,0,0,0,0,.19c0,.11,0,.14-.06.16l-.12.14a.2.2,0,0,0,0,.09.53.53,0,0,0,.08.16l.06.11,0,.11,0,.11.05.12.07.16c0,.12,0,.14,0,.15s0,.1,0,.12a1.32,1.32,0,0,1,0,.13v.32a.67.67,0,0,0,0,.18l0,.12.06.13.08.12.07.12.07.12.07.13.07.13.1.15.09.12.11.14.09.13.1.14.14.19.13.08.14.06.13,0,.13,0,.2.1.17.06h.24l.14,0,.15.06.19.07h1l.17,0,.14-.08.13-.09c.11,0,.13,0,.15,0h.2l.11,0,.14-.05.12,0a.76.76,0,0,0,.11-.11l.1,0h.11l.09,0,.12,0,.11,0,.12,0c.11,0,.13-.06.14-.08l.13-.08.14-.1.1-.07.12-.06.14,0,.12-.07.1-.08h.37l.17,0h.15l.16,0,.1,0,.13-.07.12,0,.12-.05.16,0,.09,0,.11,0,.11-.05.13-.07.13-.06.14-.05.14,0h.29l.09,0a.79.79,0,0,0,.2,0l.11-.06.14-.11L67,44Z" style="fill: #fff"/>
      <g style="clip-path: url(#clip-path)">
        <g>
          <rect id="SVGID-48" data-name="SVGID" x="-4.46" y="-4.05" width="262.92" height="856.1" style="fill: #fff"/>
          <g style="clip-path: url(#clip-path-2)">
            <rect x="53.74" y="16.57" width="16.73" height="32.32" style="fill: #fff"/>
          </g>
        </g>
      </g>
    </g>
    <g>
      <path id="SVGID-49" data-name="SVGID" d="M151.5,34.36v.06l-.1.07,0,.1,0,.12.09.15v.24c0,.09,0,.1,0,.11l-.15.13-.06.09v.11l0,.13.08.09.07.11,0,.12-.06.13-.05.11,0,.11-.07.14-.07.15,0,.13,0,.12V37l0,.15,0,.16v.22l0,.11,0,.11-.07.13,0,.1,0,.13v.12l0,.16c0,.1,0,.11,0,.12l-.07.1c0,.11,0,.12,0,.13l0,.13,0,.13-.05.11v.21a.47.47,0,0,0,0,.12v.23l0,.14,0,.12-.05.1,0,.1,0,.12,0,.13v.48a.49.49,0,0,1,0,.13l0,.11,0,.11v.37l.05.15c0,.13,0,.15,0,.17l-.05.1,0,.15v.21l0,.1v.11l0,.14a.89.89,0,0,1,0,.1l-.07.1-.05.13v.54l0,.1,0,.13,0,.13,0,.12,0,.11-.05.13,0,.14v.14l.05.14.07.12.07.13c0,.15,0,.2,0,.23v.28a.31.31,0,0,1,0,.11l0,.1.06.11,0,.12,0,.14v.16a1.14,1.14,0,0,0,.07.19l.07.11,0,.12v.15l.06.09.1.12.12.12.11.1.11.11a.67.67,0,0,0,.15.13l.09,0,.12.05H152l.13,0,.19.08.1,0,.12.06.12.07.12,0H153l.15,0h.4a.47.47,0,0,0,.17-.05.59.59,0,0,0,.05-.12l.13-.09.1,0,.14,0,.19,0,.16,0,.16,0h.12l.1,0,.14-.12.1-.08.14,0h.11l.13,0H156l.07-.1v-.1l.15-.05h.57l.17,0L157,47l.13,0,.13,0h.47l.11,0,.14,0,.09,0h.4l.09,0,.13-.1.13-.08h.36l.11,0,.11-.06.11-.09.12-.12h.39l.11.09.05.15,0,.11,0,0-.12,0-.12,0-.12.11h-.1l-.11.07-.05.11-.11,0-.11,0H159l-.12,0h-.32l-.12,0-.13.09-.11.1-.1,0-.12,0-.11,0-.12.06-.11.06-.12.09-.13.09-.12.05h-.68c-.08,0-.1.06-.11.08l-.11.06-.11,0-.13.07-.16.08-.16.08-.13.06-.13.12-.12,0-.1,0h-.23l-.1-.11-.11,0-.13.09-.14,0-.13,0-.1.07-.12,0H154l-.17,0v.13h-1.15l-.1,0-.1-.07-.1-.05-.11,0-.11,0-.11,0-.11,0h-.47l-.11,0-.11-.07-.14-.08-.13-.11-.08-.1-.12-.13-.12-.17-.1-.16-.1-.17-.08-.14-.09-.13-.06-.13-.08-.12,0-.1-.05-.12,0-.17v-.36l-.06-.15-.05-.14v-.11l0-.12-.06-.15-.05-.13,0-.1,0-.13,0-.15,0-.15v-.15l.06-.13a.39.39,0,0,0,.06-.12v-.4l0-.1V43l0-.15,0-.13V42.4l0-.15,0-.11v-.5l0-.11,0-.11v-.14l0-.15v-.5l.11-.08.06-.11V38.25l.09-.13,0-.11,0-.14v-.1l0-.1,0-.13v-.19l0-.12V37l0-.13v-.13c0-.09,0-.09,0-.09l.13-.07.09-.12.07-.1-.06-.1-.1-.11-.13-.08,0-.13,0-.13,0-.09,0-.12,0-.11.12-.11.05-.13V35l.05-.13v-.1l.16-.09V34.6l0-.17v-.07Z" style="fill: #fff"/>
      <g style="clip-path: url(#clip-path-3)">
        <g>
          <rect id="SVGID-50" data-name="SVGID" x="-4.46" y="-4.05" width="262.92" height="856.1" style="fill: #fff"/>
          <g style="clip-path: url(#clip-path-2)">
            <rect x="146.74" y="31.4" width="16.44" height="20.45" style="fill: #fff"/>
          </g>
        </g>
      </g>
    </g>
    <g>
      <path id="SVGID-51" data-name="SVGID" d="M150.67,34.36v-.61l0-.11.17-.15v-.78l0-.1,0-.13v-.23a.49.49,0,0,0,0-.13l0-.09a.27.27,0,0,1,0-.15l.05-.13,0-.16v-.14l0-.13v-.64l0-.12,0-.12,0-.1v-.25l.08-.12.08-.13V28.9l.05-.1.05-.12,0-.15v-.35l0-.14.07-.15.08-.14v-.12l.06-.1,0-.1.05-.15v-1l0-.13,0-.14,0-.1,0-.12V25.7l.06-.11.07-.11,0-.14v-.25l0-.14.05-.11,0-.11a.64.64,0,0,1,.06-.16l0-.15.08-.12.05-.12v-.13c0-.12,0-.14,0-.16l.1-.11.09-.11,0-.11.07-.12.08-.13,0-.1.05-.11.09-.12.08-.12.07-.13a.31.31,0,0,1,0-.12l.09-.09.15-.12.08-.13.1-.08.14,0,.15,0,.11,0,.12,0,.13,0,.1,0,.1,0,.11,0,.12,0H155l.17-.08.11-.1.11-.07.13-.09.11-.09.11-.08.14-.09.09-.08.13-.12.11-.09.11-.08.13-.14.09-.11.08-.13.1-.12.09-.11.13-.15.14-.14.14-.16,0-.17,0-.11.09-.14.11-.11.1-.1a.8.8,0,0,0,.08-.12l.06-.11.05-.13,0-.12.07-.15v-.27l0-.12.07-.12.11-.09.12-.14v-.28l0-.16V16.6c0-.11,0-.13,0-.15l.06-.14.08-.12.09-.13.07-.13,0-.11V14.73l0-.14,0-.11,0-.09V14l0-.13V12.53l0-.12.08-.13V10.41l0-.1.06-.09,0-.12,0-.18,0-.1a.89.89,0,0,1,0-.1.55.55,0,0,0,0-.1V9.36l.05-.14.07-.15.08-.15.08-.16,0-.15.06-.16.07-.13,0-.13,0-.15,0-.14,0-.14.06-.13.08-.12.06-.11.1-.14c.07-.12.07-.15.07-.17a.5.5,0,0,1,.1-.12l.11-.1.11-.12.07-.11.13-.12h.2l.12-.06.11-.06.13,0h1.19l.11,0,0,.15-.12,0-.12,0-.12,0-.11.06-.11.06-.15.05-.1.06-.13,0c-.06,0-.09.07-.1.09l-.13.11-.16.09-.11.08-.11.06-.06.16-.09.1,0,.1,0,.11,0,.11,0,.11-.07.12-.08.13-.06.13-.07.13-.12.16-.07.11,0,.13L160,9l-.05.12,0,.1-.05.11-.09.12-.1.13,0,.12v.58l0,.15,0,.18,0,.13v.34l-.06.15-.1.12,0,.11v.67l0,.16-.06.15-.06.16V14l0,.14,0,.12,0,.11v.11l0,.11,0,.13,0,.13v1.52l0,.15v.13a.41.41,0,0,1,0,.14l0,.1c-.05.1-.07.13-.07.16v.38l0,.14v.11a.59.59,0,0,1,0,.11c0,.07,0,.1,0,.11l0,.14,0,.17v.11l0,.14,0,.11V19l-.08.14-.11.15-.05.14a.79.79,0,0,1-.08.13l-.06.12-.09.13-.12.13a1.83,1.83,0,0,1-.16.16l-.07.1-.14.16-.14.16c-.07.1-.09.12-.11.13l-.13.12-.08.11-.08.14-.08.16-.12.14-.11.14-.1.14-.1.15-.16.18a.22.22,0,0,0,0,.12v.12l0,.14-.06.11-.11.07-.1.07-.05.1,0,.1,0,.11-.07.09-.14.07-.13,0-.11,0-.11,0h-.13l-.13.05-.1.1-.11.12-.1.12-.13.08-.12.06-.07.13-.11-.05-.1-.07-.14-.06h-.15l-.11.12h-.21l-.11,0h-.1l-.1.07-.07.12-.06.11-.05.11,0,.12v.14l0,.15-.05.12a.37.37,0,0,1-.1.07l-.12.08-.07.1,0,.1-.07.1-.09.11,0,.12a.52.52,0,0,1-.05.16l-.07.15a.45.45,0,0,0,0,.11.33.33,0,0,0,0,.13l0,.09-.1.09-.15.1v.14l0,.09-.05.11v.13l0,.09-.08.16,0,.11v.11l0,.16v.14l0,.17v.65l-.16.07,0,.11-.09.11c0,.1,0,.11-.06.11v.25l0,.11v.14a.2.2,0,0,1,0,.11l-.07.11-.08.12v.21l0,.11V30l0,.11v.12l0,.12v.21l0,.13-.05.12-.06.12v.33l-.11.13-.06.13v.11l0,.13,0,.14-.06.12v2.15l0,.1v.09Z" style="fill: #fff"/>
      <g style="clip-path: url(#clip-path-5)">
        <g>
          <rect id="SVGID-52" data-name="SVGID" x="-4.46" y="-4.05" width="262.92" height="856.1" style="fill: #fff"/>
          <g style="clip-path: url(#clip-path-2)">
            <rect x="147.72" y="3.33" width="17.69" height="33.98" style="fill: #fff"/>
          </g>
        </g>
      </g>
    </g>
    <g>
      <path id="SVGID-53" data-name="SVGID" d="M141.44,38.14v.06l-.1.07,0,.1.05.12.08.15v.12l0,.12a.66.66,0,0,1,0,.11l-.15.13-.07.09v.11l0,.13.08.09.07.11,0,.12-.06.13,0,.11,0,.11-.07.14-.07.15,0,.13,0,.12v.12l0,.15,0,.16v.22l0,.1,0,.12-.07.13,0,.1,0,.13V42l0,.16c0,.1,0,.11,0,.12l-.07.1c0,.11,0,.12,0,.14l0,.12,0,.13-.05.11v.2a1.33,1.33,0,0,0,0,.13v.23l0,.14,0,.12,0,.1,0,.1,0,.12,0,.13v.48a.63.63,0,0,1,0,.13l0,.11,0,.11v.24l0,.13,0,.16c0,.12,0,.14,0,.16l0,.09,0,.16v.56a.34.34,0,0,1,0,.1l-.08.1,0,.13v.54l0,.1,0,.13,0,.13,0,.12,0,.11-.06.13,0,.14v.14l0,.14.08.12.06.13a1.07,1.07,0,0,1,0,.23v.28a.54.54,0,0,0,0,.11l0,.1,0,.11.06.12,0,.14V50c0,.13,0,.17.07.19l.06.11,0,.12a1.36,1.36,0,0,1,0,.15l.05.09.1.12.13.12.11.1.11.11a.67.67,0,0,0,.15.13l.09,0,.11,0,.12,0,.14,0,.19.08.1,0,.12.06.12.07.12,0h.15l.15,0h.39c.13,0,.16,0,.17-.05l.06-.12.13-.1h.1l.14,0,.18,0,.16,0,.16,0h.13l.09,0,.14-.12.11-.08.14,0h.1l.14-.05h.54l.06-.09,0-.1.15-.05h.57l.17,0,.09-.09.13,0,.12,0,.18,0h.41l.13,0,.1,0h.4l.09,0,.13-.1.13-.08.11,0h.24l.11,0,.12-.06.11-.09.11-.12H150l.11.09.06.15,0,.11,0,0-.12,0-.12,0-.12.11h-.1l-.12.07,0,.11-.1,0-.11,0h-.35l-.11,0h-.33l-.11,0-.13.09-.11.1-.11,0-.12,0-.1.05-.12,0-.11.06-.12.09-.14.09-.12,0H147l-.1,0h-.35c-.08,0-.1.06-.11.08l-.11.06-.12,0-.13.07-.15.08-.16.08-.13,0-.13.12-.13,0-.1,0h-.12l-.1,0-.1-.1-.11,0-.13.08-.15,0-.13,0-.09.07-.13,0H144l-.17,0v.13h-1.15l-.1,0-.1-.07-.11-.05-.1,0-.11,0H142l-.11,0h-.37l-.11,0-.1,0-.11-.07-.14-.09-.13-.1-.08-.1-.12-.14-.12-.16-.1-.16-.1-.17-.08-.14-.09-.13-.07-.13-.07-.12,0-.1L140,50.6l0-.17v-.25l0-.12,0-.14-.05-.14v-.11l0-.12-.05-.15-.05-.13,0-.1,0-.13,0-.15,0-.15v-.15l.05-.13c.07-.11.07-.12.07-.13V46.77l0-.15,0-.13v-.31l0-.15,0-.11V45.7l0-.12,0-.16,0-.11,0-.11v-.15l0-.14v-.5l.11-.08.05-.11V42l.09-.13,0-.11v-.14l0-.1,0-.11,0-.12v-.19l0-.12v-.49c0-.09,0-.09,0-.09l.13-.07.09-.12.07-.11-.07-.09-.09-.11-.13-.08,0-.13,0-.13,0-.09,0-.12,0-.12.13-.1.05-.13v-.22l.05-.13v-.1l.16-.09v-.35Z" style="fill: #fff"/>
      <g style="clip-path: url(#clip-path-7)">
        <g>
          <rect id="SVGID-54" data-name="SVGID" x="-4.46" y="-4.05" width="262.92" height="856.1" style="fill: #fff"/>
          <g style="clip-path: url(#clip-path-2)">
            <rect x="136.68" y="35.18" width="16.43" height="20.45" style="fill: #fff"/>
          </g>
        </g>
      </g>
    </g>
    <g>
      <path id="SVGID-55" data-name="SVGID" d="M140.61,38.14v-.61l0-.11.16-.15v-.78l0-.11,0-.12V36a.63.63,0,0,0,0-.13l0-.1a.4.4,0,0,1,0-.15l.06-.12,0-.16,0-.14v-.77l0-.12.05-.12,0-.1v-.26l.08-.12.07-.12v-.8l0-.14.05-.1.05-.12,0-.15v-.49l.07-.15.09-.14v-.12l.06-.1.05-.11,0-.14,0-.15v-.69l0-.11,0-.13,0-.14,0-.11,0-.11v-.14l.06-.11.07-.11,0-.14,0-.12v-.13l0-.14.05-.11,0-.11a1,1,0,0,1,.05-.16l.06-.15.07-.12.06-.12v-.13c0-.12,0-.15,0-.16s.1-.1.1-.11l.09-.11,0-.11.07-.13.08-.12,0-.1.05-.11a1.18,1.18,0,0,1,.08-.12l.09-.12a.35.35,0,0,0,.06-.14,1.1,1.1,0,0,1,0-.11l.1-.09.15-.12.08-.13s.08-.06.09-.08l.15,0,.15,0,.11,0,.11,0,.14,0,.1,0,.1,0,.11,0,.11,0h.38l.17-.08a.74.74,0,0,1,.11-.1l.11-.07.13-.09.1-.09.11-.08c.11-.06.13-.07.14-.09l.1-.08.13-.12.11-.09.11-.08.13-.14.08-.11.09-.14.09-.11.1-.1.13-.16.14-.15.13-.15,0-.16,0-.13.09-.13.1-.11.11-.1.08-.12.05-.11,0-.13.06-.12a.43.43,0,0,0,.06-.15l0-.14v-.12l0-.13.07-.12.1-.09.13-.14v-.28l0-.16v-.87c0-.11,0-.13,0-.15a1.13,1.13,0,0,1,.06-.14l.07-.12.1-.13.07-.13V18.9l0-.12v-.41l0-.11v-.5l0-.13V16.31l0-.12.08-.13v-.14l0-.13V14.18l0-.09.06-.09,0-.12,0-.18,0-.1a.89.89,0,0,1,0-.1.36.36,0,0,0,0-.11v-.11l0-.14L149,13l.07-.15.08-.15.07-.16.05-.16,0-.15.08-.13,0-.13,0-.15,0-.14,0-.14.06-.13.08-.12.06-.12.1-.13c.06-.13.06-.15.06-.17a.44.44,0,0,1,.11-.12l.11-.1.11-.12.06-.12.14-.11h.1l.1,0,.12,0,.11-.06.13,0h.16l.15,0h.88l.11,0,0,.15-.12.05-.12,0-.12,0-.11.06-.11.06-.15.06-.1.05-.13,0-.11.09-.13.1-.15.11-.12.07-.1.06-.07.16-.08.09,0,.1,0,.12-.05.11,0,.11-.08.12-.07.12-.06.14a1.05,1.05,0,0,1-.08.13l-.11.16-.07.11,0,.13-.05.13-.05.11,0,.1-.05.11-.09.12-.1.13,0,.12V14l0,.15,0,.18,0,.13v.34l-.07.15-.09.12,0,.11v.67l0,.16-.06.15-.06.16V17.8l0,.14,0,.12,0,.11v.11l0,.11,0,.13,0,.13v1.79a.32.32,0,0,1,0,.15l0,.1-.08.16v.39l0,.13v.11c0,.05,0,.09,0,.11a.75.75,0,0,0,0,.11l0,.14,0,.17v.11l0,.14v.55l-.09.15-.1.14,0,.14a.79.79,0,0,1-.08.13l-.07.12-.08.13-.12.13-.16.16L148,24l-.14.16-.14.16c-.07.1-.09.12-.11.13l-.13.12-.08.11-.08.14-.09.16-.11.14-.11.14-.1.14-.1.15a1.46,1.46,0,0,1-.16.17.26.26,0,0,0,0,.13V26l0,.14,0,.11-.12.07-.1.07,0,.1,0,.1v.1l-.06.1-.15.07-.12,0-.11,0-.11,0h-.13l-.13.05-.1.1-.11.12-.11.12-.12.09-.13.05-.07.13-.11-.05-.09-.07-.15-.06h-.14l-.12.12H144l-.11,0h-.1l-.11.07-.07.12,0,.11-.06.11,0,.12v.29l0,.12-.1.07-.12.08-.07.1,0,.1-.08.1L143,29l-.05.12a.93.93,0,0,1,0,.16l-.07.15a.36.36,0,0,0,0,.11c0,.09,0,.11,0,.12l0,.1-.11.09-.14.09v.15l0,.09-.06.11,0,.13,0,.09-.09.15v.12l0,.1,0,.17v1l-.15.07,0,.11-.09.11-.06.11v.36l0,.14V33l-.07.11-.08.12v.21l0,.11v.21l0,.11V34l0,.13v.33l0,.13-.06.11v.22l0,.1a.68.68,0,0,1-.1.14l-.06.13v.11l0,.13,0,.14-.06.12V38l0,.1v.09Z" style="fill: #fff"/>
      <g style="clip-path: url(#clip-path-9)">
        <g>
          <rect id="SVGID-56" data-name="SVGID" x="-4.46" y="-4.05" width="262.92" height="856.1" style="fill: #fff"/>
          <g style="clip-path: url(#clip-path-2)">
            <rect x="137.66" y="7.12" width="17.69" height="33.97" style="fill: #fff"/>
          </g>
        </g>
      </g>
    </g>
    <g>
      <path id="SVGID-57" data-name="SVGID" d="M159.13,41.26v.6l0,.08v.24l0,.1,0,.08s0,.08,0,.1a.34.34,0,0,1,0,.11s.05.06.05.08,0,.1,0,.11a.38.38,0,0,0,.05.11l.09.12.12.1.07.06.08.06.09,0,.08.05.09,0,.08,0,.09,0,.09,0v.16h.17l.09,0h.25l.09,0h1.73l.09-.06.1-.07.08,0,.08-.06.13-.07.1,0,.06-.08.05-.08,0-.08.05-.08h.25l0-.13.13,0,.12-.05.1,0,.09,0,.13-.06c.07-.07.08-.08.08-.09l.06-.12.1-.09.08,0,.09-.11.08,0,.07,0,.13,0,.11-.07.1-.09a.34.34,0,0,0,.08-.1l.07-.12a1.41,1.41,0,0,0,.06-.15.64.64,0,0,0,0-.07.24.24,0,0,0,0-.08l.1-.06.08,0,.09,0h0l.09.14.06.12,0,.1,0,.08,0,.1-.06.13-.09.14-.05.07-.06.09-.06.08,0,.09,0,.09,0,.09,0,.09,0,.09,0,.09h-.1l-.09,0-.08.14-.07.14-.07.14-.07.14h-.24l-.08,0-.09.06-.09.06-.09.06-.09.06-.09.06-.09.06-.09.06-.09.06-.06.14-.06.14h-.22l-.12.13-.12.14h-.37l-.08.13-.09,0h-.19l-.13,0-.12.07-.12.1H162L162,44.8h-.11l-.12.05-.11,0h-.35l-.12,0-.1-.05-.09,0h-.26l-.09,0-.08-.06-.12,0h-.24l-.14,0-.13,0-.11-.06-.1-.07-.09-.07a.31.31,0,0,0-.07-.08v-.33l-.1-.06-.11-.06-.1,0-.11-.06-.05-.14-.05-.13-.07-.1-.07-.1-.1-.09-.05-.1V43l0-.11,0-.1v-.08l0-.08,0-.08,0-.08,0-.07,0-.08,0-.08,0-.08,0-.08V42l0-.08,0-.08,0-.07,0-.08v-.38Z" style="fill: #fff"/>
      <g style="clip-path: url(#clip-path-11)">
        <g>
          <rect id="SVGID-58" data-name="SVGID" x="-4.46" y="-4.05" width="262.92" height="856.1" style="fill: #fff"/>
          <g style="clip-path: url(#clip-path-2)">
            <rect x="155.47" y="38.3" width="13.41" height="9.54" style="fill: #fff"/>
          </g>
        </g>
      </g>
    </g>
    <g>
      <path id="SVGID-59" data-name="SVGID" d="M162.12,37.62l-.1.07-.15.1-.14.1-.15.1h-.35l-.13.06-.12.06-.13,0-.12.06-.12-.06-.1-.07-.12,0-.15,0h-.07l-.11,0H160l-.09.1-.08.1-.07.11-.06.12,0,.12,0,.14V39l-.09.11-.09.11v.11l0,.12v.09l0,.1,0,.07v.08l0,.12-.14.07,0,.12v.12l0,.12,0,.12,0,.12,0,.12v.12l0,.12-.14.13v.23h-.69v-.51l0-.13,0-.13,0-.12,0-.13v-.56l0-.11,0-.12,0-.12,0-.12v-.09l0-.09v-.17l.08-.09.06-.08,0-.08,0-.09,0-.09,0-.1,0-.11v-.11l0-.14,0-.08V37.7l0-.08Zm.3,0h0Z" style="fill: #fff"/>
      <g style="clip-path: url(#clip-path-13)">
        <g>
          <rect id="SVGID-60" data-name="SVGID" x="-4.46" y="-4.05" width="262.92" height="856.1" style="fill: #fff"/>
          <g style="clip-path: url(#clip-path-2)">
            <rect x="155.49" y="34.66" width="9.89" height="9.55" style="fill: #fff"/>
          </g>
        </g>
      </g>
    </g>
    <g>
      <path id="SVGID-61" data-name="SVGID" d="M161.52,34l-.07.08,0,.09,0,.09-.05.09-.05.09,0,.09,0,.08,0,.09-.05.09-.09.09-.1.08-.06.08,0,.09,0,.11a.64.64,0,0,1,0,.09l0,.09,0,.11-.07.13-.09.16-.05.08-.06.1,0,.09-.07.11-.08.12-.07.11-.07.11.09,0,.09.05.05.11,0,.11.11,0,.11,0,.11,0,.11,0,.1-.06.09-.06.1,0,.1-.05.1,0,.1,0,.11,0,.1,0,0-.08,0-.07.12,0h.09l.08,0,.09-.06.08-.06.07,0h.16l.08-.06.07-.08,0-.08.05-.08.12,0h.09l.06-.14.07-.15H163l.08,0,.09,0,.08,0,.08,0,.08-.06.08-.06.08-.08v-.13l.09,0,.09-.09.11-.11.07-.11,0-.08,0-.08,0-.08,0-.08,0-.08.07-.12.06-.1.05-.1.08-.15,0,0H165v.49l-.13.12,0,.1,0,.1,0,.1,0,.1,0,.09,0,.1,0,.1,0,.1-.06.08-.07.09-.06.08-.07.08-.07.08-.06.09-.07.08-.06.08v.37l-.12.1-.11.09-.11.09-.11.08-.11.08-.1.08-.1.07-.1.07-.1.06-.09.06-.09.06-.09.05-.08,0-.09,0-.07,0-.08,0,0,.09-.07,0h-.16l-.1,0,0,0h-3.2l0-.1.12-.1.11-.09-.11-.13-.12-.13.08-.14.06-.1,0-.08v-.25l0-.1v-.1l0-.1v-.1l0-.1,0-.09v-.29l0-.13,0-.14.08.1.09.07.09.05h.2l.15,0,.08,0,.08,0,.08,0V35.2l0-.08L160,35l.09-.08,0-.08,0-.08,0-.08,0-.08,0-.07,0-.08,0-.08,0-.07,0-.08,0-.07.08-.15,0,0Z" style="fill: #fff"/>
      <g style="clip-path: url(#clip-path-15)">
        <g>
          <rect id="SVGID-62" data-name="SVGID" x="-4.46" y="-4.05" width="262.92" height="856.1" style="fill: #fff"/>
          <g style="clip-path: url(#clip-path-2)">
            <rect x="155.95" y="31.03" width="12.08" height="9.54" style="fill: #fff"/>
          </g>
        </g>
      </g>
    </g>
    <g>
      <path id="SVGID-63" data-name="SVGID" d="M160.5,34l.06-.1.09-.14.07-.07.09-.12.06-.14v-.16l.13,0,.07-.13.06-.13.08,0,.08,0,0-.08.05-.1.08-.1.1-.1.08,0,.07,0,.09,0,.09-.07.09-.08.09-.1.1-.11.1-.12.08,0h.14l.07-.08.09-.15.13-.09.09,0,.09,0,.08,0,.14,0,.08,0,.08.06.08.05h.24l.11,0,.09,0c.07,0,.08,0,.09.05l.05.09.1.14.14.1.1,0h.17l.06.09.06.1,0,.07a.15.15,0,0,0,0,.08l.08.09.08.09.07.11.06.13c0,.09,0,.12,0,.15s0,.05,0,.07v.09l0,.09v.19l0,.15,0,.15,0,.09V34h-.68l0-.05,0-.08v-.51l0-.09,0-.1,0-.11,0-.13,0-.13-.13,0-.13,0-.13-.05-.14,0-.09,0-.08,0h-.1l-.08,0-.07,0h-.1l-.07.05-.08.11c-.07.06-.08.06-.09.06l-.15,0-.08,0-.1,0-.1,0-.11,0-.11,0,0,.09,0,.09-.08,0-.1,0-.1.09-.05.09,0,.1,0,.12-.06.09-.11.14-.09.11,0,0Z" style="fill: #fff"/>
      <g style="clip-path: url(#clip-path-17)">
        <g>
          <rect id="SVGID-64" data-name="SVGID" x="-4.46" y="-4.05" width="262.92" height="856.1" style="fill: #fff"/>
          <g style="clip-path: url(#clip-path-2)">
            <rect x="157.54" y="28.51" width="10.48" height="8.43" style="fill: #fff"/>
          </g>
        </g>
      </g>
    </g>
    <g>
      <path id="SVGID-65" data-name="SVGID" d="M177,41.64l-.09.1-.09.11-.08.14,0,.1,0,.12-.05.12-.07.16-.06.16-.1.07-.09.06-.09.07-.1.07,0,.15h-.35l-.09.1-.08.09-.08.09-.09.1H175l-.15.08-.15.08-.09,0-.1,0a.31.31,0,0,1-.16,0l-.17,0H174l-.17,0-.11.12-.12.06h-.24l-.12,0-.09,0h-.19l-.09,0-.18,0-.17,0-.12,0h-.18l-.12,0h-.35l-.1,0-.1,0-.14,0-.13,0-.11.07-.1.07-.11-.12-.09.06-.1.06-.16-.09-.15-.06-.13,0-.11,0-.1,0-.14.06-.13,0-.12,0-.13,0h-.14l-.15,0-.14,0h-.75l-.13,0h-.09l-.09-.06c-.12-.09-.18-.11-.22-.14l-.11,0-.17-.07a.61.61,0,0,1-.14-.1l-.12-.12-.09-.17,0-.09,0-.1a.5.5,0,0,1,0-.12s0-.07,0-.12,0-.08,0-.12v-.14l.14,0,.14,0,.14,0,.14,0,0-.09v-.1l.13-.18.08.15H168v.13l.13-.06.12-.07.11,0c.08.08.08.1.09.1v.11l0,.1.14.09.06.11V43l.17,0,.16,0,.17,0,.17,0,.13.12.13.11.08-.13H170l.21,0h.64l.21,0h.42l.22,0h.63l.22,0H173l.14,0,.15,0,.15,0,.14,0,.15,0,.14,0,.15,0,.14,0,.07-.13.14,0,.14,0,.08-.11.15,0,.14,0,.14,0,.14-.05.13-.06.12-.06.13-.07.11-.07h.1l.13-.15.09-.08,0-.18,0-.1v-.1l0-.12-.15-.13-.14-.12,0-.1,0-.1-.09,0-.15-.07-.17-.07-.09-.05-.13-.13h-.1l-.12-.15h-.26a.46.46,0,0,0-.07-.11l-.11-.07h-.46l-.1,0-.1,0-.11,0-.09,0-.17-.1-.13,0H173l-.15-.05-.17-.11h-.29l-.13-.07-.17-.06-.15-.12-.12-.08-.1,0-.09-.05-.11,0-.1,0-.09,0-.1-.05-.1,0L171,39l-.15-.13-.13-.08-.11,0-.11,0-.12,0-.11,0-.11,0-.11,0-.11,0-.11,0-.1-.08-.1-.09-.1-.08-.1-.08-.09-.07-.09-.06-.1-.07-.09-.14,0-.11,0-.1-.05-.11,0-.11,0-.1,0-.11,0-.11-.07-.1-.07-.1-.07-.11-.06-.1,0-.15V35.57l.08-.13v-.25l0-.12,0-.11,0-.12,0-.1.06-.1.06-.1.11-.08.1-.06.11-.1a.61.61,0,0,0,.12-.14l.06-.14.09,0c.11,0,.13-.07.14-.09a1.58,1.58,0,0,0,.09-.17l.13-.15.17-.16.14-.12.16-.14.18-.11.09,0,.1,0,.09,0,.1,0,.09,0,.1,0,.1,0,.1,0,.09,0,.1,0,.09,0,.1,0,.1,0,.09,0,.1,0,.09,0,.1,0h.1l.1,0,.09,0,.1,0,.1,0h.1l.09,0,.1,0,.09,0,.1,0,.09,0,.1,0,.09,0,.1,0h1.19l0,.16h.19l.14.06.1.12v.12l.08.12.16.12,0,.17,0,.12,0,.13,0,.12,0,.14v.12a.64.64,0,0,1-.06.1c-.06.06-.08.07-.09.07a.24.24,0,0,1-.13,0,1.2,1.2,0,0,1-.12-.12l-.06-.1-.06-.11-.06-.12-.12-.07h-.35l-.18,0-.18,0h-.14l-.09-.06-.12-.09-.12-.07h-.13l-.12.07-.11.09-.12,0h-.2l-.17,0a.91.91,0,0,0-.17.08l-.17.09-.12,0-.1,0-.17.07-.15.09-.1.06-.14,0-.14,0-.12.07-.16.11-.13.05-.16,0-.13,0-.1.08-.12.1-.16.13-.18.17-.12.14-.07.1-.06.09-.06.1-.11.1-.15.11a.76.76,0,0,0-.14.14l-.05.15,0,.14,0,.14,0,.13,0,.14,0,.14,0,.13,0,.14.13.08v.15a.44.44,0,0,0,0,.12c0,.08,0,.1,0,.11l0,.1a1.18,1.18,0,0,0,.08.12l.18.17.06.12.08.12.18.1.18.11.18.11.17,0,.13.05.1.09.1.1.09.1.12,0h.4l.15.07.16.13.15.08.16,0,.15,0,.15,0,.16.08.17.1.14,0,.14,0,.14.05.15,0,.14,0,.14,0,.14,0a.44.44,0,0,1,.11.11l.11.06h.13l.15,0,.15,0,.14.06.14.07.14.06.12,0,.13,0,.09.14.11.07.12.06h.51l.11.08.11.07.11.08.12.07a.41.41,0,0,0,0,.1l.07.13.09.11.12.11.06.11.11.15.15.07v.11l-.05.09.11.11.09.1.06.11,0,.1" style="fill: #fff"/>
      <g style="clip-path: url(#clip-path-19)">
        <g>
          <rect id="SVGID-66" data-name="SVGID" x="-4.46" y="-4.05" width="262.92" height="856.1" style="fill: #fff"/>
          <g style="clip-path: url(#clip-path-2)">
            <rect x="164.15" y="29.1" width="15.77" height="17.92" style="fill: #fff"/>
          </g>
        </g>
      </g>
    </g>
    <g>
      <path id="SVGID-67" data-name="SVGID" d="M69.23,41.26V42l0,.08v.08s0,.07,0,.1l0,.08a.48.48,0,0,0,0,.14c0,.07,0,.09.06.09s0,.07,0,.1,0,.09,0,.1a.27.27,0,0,0,.06.11l.11.12.16.13.08.06.08,0,.08.05.09,0,.09,0,.09,0,.09,0v.16h.17l.08,0h.26l.09,0h1.72l.1-.06.09-.07.08,0,.08-.06.13-.07.11-.05,0-.07.05-.08,0-.08,0-.08h.25l0-.13.12,0,.13-.05.09,0,.1,0,.12-.06.09-.09.05-.12c.06-.07.08-.09.1-.09l.09,0,.08-.11.16-.07.12,0,.12-.07.1-.09.08-.1.07-.12a.66.66,0,0,0,0-.15s0-.1,0-.15l.09-.06.09,0,.08,0h0l.08.14.06.12,0,.1a.45.45,0,0,1,0,.08.41.41,0,0,1,0,.1l-.07.13-.09.14,0,.07-.06.09,0,.08-.05.09,0,.09,0,.09-.05.09,0,.09,0,.09h-.09l-.1,0-.07.14-.08.14-.06.14-.07.14h-.17l-.08,0h-.08l-.09.06-.09.06-.09.06-.09.06-.09.06-.08.06L74,44l-.09.06-.06.14-.07.14h-.22l-.12.13-.11.14H73l-.07.13-.1,0h-.09l-.13,0-.14,0-.12.09-.11.11-.09-.07L72,44.77l-.13.06-.12,0-.1,0h-.23l-.13,0-.11,0-.1-.06h-.35l-.07-.06-.08-.06-.17,0-.16,0-.14,0-.13,0-.11-.06-.1-.06-.08-.08a.27.27,0,0,1-.07-.08v-.33l-.11-.06-.1-.06-.11,0-.11-.06,0-.14,0-.13-.06-.1-.08-.1-.09-.09,0-.1V43l0-.21,0-.16,0-.16,0-.15,0-.16,0-.16,0-.16,0-.15v-.38Z" style="fill: #fff"/>
      <g style="clip-path: url(#clip-path-21)">
        <g>
          <rect id="SVGID-68" data-name="SVGID" x="-4.46" y="-4.05" width="262.92" height="856.1" style="fill: #fff"/>
          <g style="clip-path: url(#clip-path-2)">
            <rect x="65.57" y="38.31" width="13.41" height="9.54" style="fill: #fff"/>
          </g>
        </g>
      </g>
    </g>
    <g>
      <path id="SVGID-69" data-name="SVGID" d="M72.23,37.61l-.11.08-.15.1-.14.1-.15.1h-.35l-.12.06-.13.06-.12,0-.13.06-.11-.06-.11-.07-.11,0-.15,0h-.08l-.1,0h-.1a.47.47,0,0,0-.1.1l-.08.1-.07.11a6134925831680.13,6134925831680.13,0,0,1-.1.24l0,.14s0,.09,0,.14V39l-.09.11-.1.11v.23l0,.09,0,.1v.07l0,.08,0,.12-.15.07,0,.12,0,.12,0,.12v.12l0,.12,0,.12,0,.12,0,.12-.15.13,0,.15v.08h-.68v-.51l0-.13,0-.13,0-.12,0-.13v-.56l0-.11,0-.12,0-.12,0-.12,0-.09v-.18l0-.08.09-.09,0-.08,0-.08,0-.09,0-.09,0-.1,0-.11,0-.11,0-.14v-.18l0-.09v-.09Zm.31,0,0,0h-.12l0,0Z" style="fill: #fff"/>
      <g style="clip-path: url(#clip-path-23)">
        <g>
          <rect id="SVGID-70" data-name="SVGID" x="-4.46" y="-4.05" width="262.92" height="856.1" style="fill: #fff"/>
          <g style="clip-path: url(#clip-path-2)">
            <rect x="65.6" y="34.66" width="9.9" height="9.56" style="fill: #fff"/>
          </g>
        </g>
      </g>
    </g>
    <g>
      <path id="SVGID-71" data-name="SVGID" d="M71.62,34l-.07.08,0,.09-.05.09,0,.09,0,.09-.05.09,0,.08,0,.09,0,.09-.1.09L71,35l0,.08,0,.09,0,.11a.68.68,0,0,1,0,.13l0,.1-.06.12a1.09,1.09,0,0,1-.08.15l-.09.16-.12.19-.14.23-.15.22.1,0,.09.05,0,.11,0,.11.11,0,.11,0,.11,0,.11,0,.09-.06.1-.06.09,0,.1-.05.1,0,.11,0,.1,0,.11,0,0-.08,0-.07.13,0h.08l.09,0,.12-.09.08-.05h.07l.08,0h.08l.09-.09,0-.08,0-.08,0-.08h.19l.06-.14.06-.15h.09l.09,0,.08,0,.08,0,.08,0,.08-.06.09-.06.07-.08v-.13l.09,0,.1-.09L74,35,74,34.9l0-.08,0-.08,0-.08.08-.16.07-.12.06-.1,0-.1.08-.15,0,0h.69v.49l-.13.12,0,.1,0,.1,0,.1,0,.1,0,.09,0,.1,0,.1,0,.1-.07.08-.06.09-.07.08-.07.08-.06.08-.07.09-.06.08-.07.08v.37a2.11,2.11,0,0,1-.23.19l-.22.17-.21.16-.2.14-.19.12-.17.11-.17.1-.16.07,0,.09-.06,0h-.19l-.08,0,0,0H69l0-.1.12-.1.12-.09-.12-.13L69,37.06l.08-.14.06-.1,0-.08v-.35l0-.1v-.1l0-.1,0-.1v-.24l0-.14,0-.13,0-.14.08.1.09.07.09.05h.2l.15,0,.09,0,.08,0,.08,0,0-.09v-.09c0-.06,0-.08,0-.09s0-.07,0-.08a.31.31,0,0,1,.07-.08l.09-.08c0-.05,0-.1,0-.16l.06-.16.07-.15a.69.69,0,0,1,.07-.15l.07-.15.09-.15a.05.05,0,0,1,0,0Z" style="fill: #fff"/>
      <g style="clip-path: url(#clip-path-25)">
        <g>
          <rect id="SVGID-72" data-name="SVGID" x="-4.46" y="-4.05" width="262.92" height="856.1" style="fill: #fff"/>
          <g style="clip-path: url(#clip-path-2)">
            <rect x="66.05" y="31.04" width="12.08" height="9.54" style="fill: #fff"/>
          </g>
        </g>
      </g>
    </g>
    <g>
      <path id="SVGID-73" data-name="SVGID" d="M70.6,34l.06-.1.09-.14.11-.11a.7.7,0,0,0,.08-.12.63.63,0,0,0,0-.14,434864527641.54,434864527641.54,0,0,1,0-.16h.13l.06-.13.07-.13.07,0,.08,0a.27.27,0,0,1,0-.08l.06-.1.07-.1.1-.1.08,0,.08,0,.09,0,.08-.07.09-.08a.94.94,0,0,1,.1-.1l.1-.11a.94.94,0,0,1,.09-.12l.09,0h.14l.06-.08.1-.15.13-.09.09,0,.08,0,.09,0,.13,0,.08,0,.12.09.09,0,.13,0,.13,0,.1.05H74a.14.14,0,0,1,.08.1.56.56,0,0,0,.05.08l.12.14.14.08.09,0h.17l0,.09a.89.89,0,0,0,0,.1l0,.07a.2.2,0,0,0,.06.13l.08.09a.44.44,0,0,1,.08.1.39.39,0,0,1,.06.11.78.78,0,0,1,0,.14.83.83,0,0,1,0,.15c0,.06,0,.12,0,.18a1.15,1.15,0,0,1,0,.19l0,.15,0,.15V34h-.69l0-.05,0-.08v-.29a1,1,0,0,1,0-.14l0-.08,0-.09,0-.1,0-.11,0-.13,0-.13-.13,0-.14,0-.13-.05-.13,0-.09,0-.09,0h-.1l-.07,0-.08,0h-.09l-.08.05a.38.38,0,0,0-.07.11c0,.06-.08.06-.1.06l-.14,0-.09,0-.09,0-.1,0-.11,0-.12,0,0,.09,0,.09-.08,0-.11,0-.1.09,0,.09,0,.1,0,.12,0,.09-.11.14-.1.11,0,0Z" style="fill: #fff"/>
      <g style="clip-path: url(#clip-path-27)">
        <g>
          <rect id="SVGID-74" data-name="SVGID" x="-4.46" y="-4.05" width="262.92" height="856.1" style="fill: #fff"/>
          <g style="clip-path: url(#clip-path-2)">
            <rect x="67.64" y="28.51" width="10.49" height="8.43" style="fill: #fff"/>
          </g>
        </g>
      </g>
    </g>
    <g>
      <path id="SVGID-75" data-name="SVGID" d="M87.07,41.64l-.09.1-.09.11a1.74,1.74,0,0,0-.12.24l-.1.24-.13.32-.09.07-.1.06-.09.07-.09.07,0,.15h-.35l-.08.1-.09.09-.08.09-.08.1h-.46l-.15.08-.14.08-.14,0a.89.89,0,0,0-.15.12l-.17-.06-.18,0-.15,0-.19.06v.16l-.11,0h-.24l-.12,0-.1,0H83l-.09,0-.17,0-.18,0-.11,0h-.18l-.12,0h-.36l-.1,0-.1,0-.13,0-.14,0-.1.07-.11.07-.1-.12-.1.06-.1.06L80.68,44l-.15-.06-.13,0-.12,0-.1,0-.13.06-.2-.07-.12,0-.13,0h-.15l-.14,0h-.15l-.15,0h-.24l-.1,0-.11,0-.14,0-.12.07-.13-.08-.1-.1-.4-.16a.75.75,0,0,1-.25-.22,1.19,1.19,0,0,1-.16-.36,2.49,2.49,0,0,1-.05-.5l.14,0,.14,0,.14,0,.14,0v-.19l.12-.18.08.15h.16v.13l.12-.06.12-.07c.12,0,.14,0,.16.07s0,.1,0,.13a.3.3,0,0,1,0,.09l-.06.14.12,0h.11V43l.17,0,.17,0,.17,0,.17,0,.13.12.13.11.07-.13.85-.05.85,0,.85-.05.84,0,.29-.06.29,0,.3-.06.29,0,.06-.13.14,0,.15,0,.07-.11.3-.07.27-.09.26-.12.23-.14h.11l.12-.15.1-.08,0-.18,0-.1,0-.1,0-.12-.15-.13-.15-.12,0-.1,0-.1-.1,0-.15-.07-.16-.07-.1-.05-.13-.13H85l-.12-.15h-.25c-.07-.11-.09-.14-.12-.15a.48.48,0,0,0-.18-.06l-.18,0a.78.78,0,0,1-.22,0l-.2-.05L83.49,40l-.18-.12H83l-.16-.11-.17-.1-.17.1-.08-.13h-.18l-.15-.12L82,39.44l-.2-.08-.2-.09-.2-.08-.19-.09L81,39l-.15-.14-.23,0-.22,0-.22,0-.22,0-.21-.18-.19-.17-.19-.13-.19-.13-.09-.22-.08-.21L79,37.43l-.09-.22-.06-.1-.08-.1-.06-.11-.07-.1,0-.31,0-.3,0-.31,0-.31.08-.13a2,2,0,0,1,0-.25,1.55,1.55,0,0,1,.05-.23,1.43,1.43,0,0,1,.08-.22l.12-.2.22-.14.15-.14a.53.53,0,0,0,.1-.14,1,1,0,0,0,0-.14l.18,0a1.22,1.22,0,0,1,.07-.17l.1-.15a1.07,1.07,0,0,1,.14-.16l.18-.16.16-.14.16-.14.39-.17.38-.16.39-.17.38-.16.2,0,.19,0,.19,0,.2,0,.19-.06.19-.06.19-.06.19-.06.3,0,.3,0,.3,0,.29,0,0,.16h.18l.1,0c.11.06.13.08.15.11v.23l.16.12.16.11,0,.24-.05.25a.89.89,0,0,0,0,.14.92.92,0,0,1,0,.17c-.06.1-.09.11-.12.12h-.1a.34.34,0,0,1-.15-.14,1.94,1.94,0,0,1-.1-.17l-.13-.24h-.18l-.17,0H84l-.18.05-.18-.14L83.49,33l-.1-.06-.16.06-.1.09-.12.09H82.8l-.19.05-.17.07a.71.71,0,0,0-.14.1l-.23,0-.19.08a.38.38,0,0,0-.15.09.4.4,0,0,0-.12.1h-.29l-.11.09-.12.08-.17.08-.15,0-.19,0-.11.13-.14.08-.18.17-.18.18-.06.1-.06.09-.07.1-.06.1-.16.11-.12.09c-.09.09-.1.11-.1.12l-.07.27-.07.27-.07.28-.07.27.14.08a1.06,1.06,0,0,0,0,.27.66.66,0,0,0,.08.21l.13.18.19.16v.13l.18.11.18.1.17.11.18.11h.17l.1.1.09.09.1.1.1.1h.53l.16.13.16.14.15,0,.16,0,.15,0,.15,0,.18.15.29.09.28.09.28.08.29.09c0,.09,0,.1,0,.12l.14,0H84l.15,0,.15,0,.14.07.13.07.13.06.13,0,.12,0,0,.13.12.07.12.06h.5l.11.08.12.07.11.08.11.07,0,.14.08.12.1.12a1.27,1.27,0,0,0,.12.1l0,.17.18.12.12,0-.06.1,0,.09.11.11a.41.41,0,0,1,.09.1.6.6,0,0,1,.06.11.3.3,0,0,1,0,.1" style="fill: #fff"/>
      <g style="clip-path: url(#clip-path-29)">
        <g>
          <rect id="SVGID-76" data-name="SVGID" x="-4.46" y="-4.05" width="262.92" height="856.1" style="fill: #fff"/>
          <g style="clip-path: url(#clip-path-2)">
            <rect x="74.26" y="29.1" width="15.76" height="17.92" style="fill: #fff"/>
          </g>
        </g>
      </g>
    </g>
    <g>
      <path id="SVGID-77" data-name="SVGID" d="M97.53,39.57l0,.08.07.16-.18.12-.09.09a.63.63,0,0,0-.1.12l0,.1.05.1-.08.11-.08.1.06.13,0,.14.05.13,0,.13-.11.16-.12.17V42l0,.15,0,.15.13.07,0,.19.11,0,.09.07.18.17.14,0,.16,0,.15,0,.15,0a1,1,0,0,1,.1-.17.8.8,0,0,1,.13-.13l.16-.08a.58.58,0,0,1,.19,0l0-.1,0-.1.11,0,.1,0,.11,0,.1,0c0-.1.06-.12.06-.15a.35.35,0,0,1,.08-.13l.15-.14.11,0,.13-.18.13-.18.12-.14.12-.14h-.1l.14-.13.15-.12a.82.82,0,0,1,.17-.14l.12-.06.13,0,0-.13,0-.12,0-.13,0-.13.22-.11a.76.76,0,0,0,.17-.13.41.41,0,0,0,.1-.13h.94l-.11.06-.1.18-.1.18-.1.18-.1.17-.16.16-.15.16-.16.16-.16.16-.1.17-.11.18-.14.14-.13.15-.15.15-.13.14-.08.16-.06.15-.2.13-.19.13-.19.14-.19.13-.21.25-.22.26-.21.25-.21.25-.15,0-.14,0-.16.08-.11.08-.13.11a.37.37,0,0,1-.17,0,.21.21,0,0,1-.11-.08l-.08-.13a2,2,0,0,1-.07-.19,2.15,2.15,0,0,1-.43-.21,1.81,1.81,0,0,1-.33-.26,1,1,0,0,1-.2-.3.81.81,0,0,1-.08-.34l.1-.06.1-.07c0-.08-.05-.17-.08-.25l-.06-.26a2.34,2.34,0,0,1,0-.26,2.28,2.28,0,0,1,0-.26l-.15-.11.09-.14,0-.11a.94.94,0,0,0,0-.16l0-.13,0-.13,0-.13,0-.13,0-.25,0-.24,0-.25v-.06Zm7.33,0,0,0-.12.16.06.13.06.1.12.12a1.31,1.31,0,0,0-.09.17c0,.06-.06.14-.09.22s0,.18-.07.29a2.9,2.9,0,0,0-.07.34l.11,0,.11,0,0,.14a.26.26,0,0,1,0,.11,1,1,0,0,1,0,.18.93.93,0,0,1,0,.13l-.06.13a.51.51,0,0,1-.09.16h.17l0,.1,0,.1,0,.1,0,.1H105l.13,0h.27l.09.17.09.17a.24.24,0,0,0,0,.13.35.35,0,0,0,.12.14l.11.08c-.05.08,0,.1,0,.12l.16.15-.09,0-.09,0-.1.05-.09,0,0,.12,0,.11-.1,0-.11,0-.1,0-.09,0-.13-.09-.1,0-.09,0-.11-.13-.1-.13-.1-.12-.11-.13v-.58l-.09-.09-.1-.08v-.2l0-.21v-.4l0-.43,0-.42,0-.42,0-.43,0-.14,0-.14,0-.14,0-.14-.07-.11Z" style="fill: #fff"/>
      <g style="clip-path: url(#clip-path-31)">
        <g>
          <rect id="SVGID-78" data-name="SVGID" x="-4.46" y="-4.05" width="262.92" height="856.1" style="fill: #fff"/>
          <g style="clip-path: url(#clip-path-2)">
            <rect x="93.46" y="36.61" width="15.43" height="10.45" style="fill: #fff"/>
          </g>
        </g>
      </g>
    </g>
    <g>
      <path id="SVGID-79" data-name="SVGID" d="M98.6,35c0,.1-.08.18-.12.27l.11.05.1,0-.17.15-.17.15.06.1,0,.11a.78.78,0,0,0-.11.18l-.07.19c0,.07,0,.14,0,.22a1.5,1.5,0,0,0,0,.22v.14l-.09.14-.1.15v.45l-.09.12a.75.75,0,0,0-.07.12.61.61,0,0,0-.05.12.5.5,0,0,0,0,.12l-.1.1v.48l-.1.13v.14s0,.11,0,.17l0,.19c0,.06,0,.14,0,.21l0,.08h-.72l0-.18a.89.89,0,0,1,0-.11.66.66,0,0,1,0-.15.64.64,0,0,1,0-.14v-.17c0-.1,0-.12,0-.14v-.11c0-.09,0-.11,0-.14l.07-.09a.43.43,0,0,0,.15-.16.83.83,0,0,0,.07-.13.56.56,0,0,0,0-.12.41.41,0,0,0,0-.11c0-.08,0-.1,0-.11l-.12-.16c0-.09,0-.1,0-.12l.11,0c-.11,0-.13,0-.15-.06s-.05-.08-.05-.11.05-.08.07-.09l.21,0a1,1,0,0,1,0-.18.32.32,0,0,1,0-.14.69.69,0,0,1,0-.13.75.75,0,0,1,.07-.12l.07-.11a.93.93,0,0,0,.09-.17l-.17-.1.09-.14.09-.14.08-.14.09-.14v-.13a1.09,1.09,0,0,1,0-.26.76.76,0,0,1,0-.16Zm6.85,0,0,.07-.07.11-.08.1,0,.1a.5.5,0,0,0,0,.13.88.88,0,0,0,0,.17,1.21,1.21,0,0,0,0,.2c.08.1.08.11.08.13l0,.1,0,.11,0,.18,0,.15,0,.14,0,.12,0,.12-.16.19v.14l0,.15v.29l0,.13V38s0,.08,0,.1v.1c0,.08,0,.1,0,.12v.28l-.06.12c-.06.07-.07.08-.08.11l-.06.18v.14l.05.17,0,.17-.09.13h-.78l0,0-.09-.15.12-.07.11-.06-.08-.12L104,39l0-.13,0-.12.13-.1,0-.17v-.16h.14v-.53l0-.13,0-.13a.29.29,0,0,1-.11-.07l-.13-.17-.11,0-.1,0-.1.06-.11,0a.71.71,0,0,1-.08.15l-.09.12a.36.36,0,0,1-.08.09l-.1.14v.14l-.09.11-.14.06-.09.13v.09l0,.09v.1l-.18.13v.19l-.12.1-.1.11-.09.13s0,.08-.07.13l-.07,0h-.94v0a.44.44,0,0,0,.06-.16h.16l.12-.17.13-.17,0-.11,0-.11.12,0,.13,0a.22.22,0,0,1,0-.1.31.31,0,0,1,0-.12l.07-.1.07-.1.08-.12.08-.11.06-.1.06-.09.12.05,0-.15a.45.45,0,0,1,.06-.12.31.31,0,0,1,.08-.11,1,1,0,0,1,.11-.1l0-.1a.74.74,0,0,1,.1-.16l.14-.12.15-.06.14-.09.06-.16c0-.12,0-.14,0-.15a.61.61,0,0,0,0-.15.38.38,0,0,1,.07-.22l.1-.14.09-.1.09-.13,0-.15.1-.14.08-.13,0-.11a.41.41,0,0,1,.06-.18.61.61,0,0,0,0-.12l0-.08Z" style="fill: #fff"/>
      <g style="clip-path: url(#clip-path-33)">
        <g>
          <rect id="SVGID-80" data-name="SVGID" x="-4.46" y="-4.05" width="262.92" height="856.1" style="fill: #fff"/>
          <g style="clip-path: url(#clip-path-2)">
            <rect x="93.85" y="32.06" width="14.58" height="10.46" style="fill: #fff"/>
          </g>
        </g>
      </g>
    </g>
    <g>
      <path id="SVGID-81" data-name="SVGID" d="M97.83,35l0-.1A.94.94,0,0,1,98,34.7a1.07,1.07,0,0,1,.15-.22V34l.11-.08c0-.08-.06-.1-.06-.13a1.32,1.32,0,0,1,0-.13c.12-.08.15-.08.17-.08v-.43l.1,0a.81.81,0,0,1,0-.11.32.32,0,0,1,0-.17.39.39,0,0,1,.08-.1l.11-.13.12-.13.13-.15.1-.14.09-.12,0-.11h.2s.08,0,.1,0,.08-.08.08-.1-.07-.12-.08-.13l.23,0a.84.84,0,0,0,.18,0,.26.26,0,0,0,.1-.07l.17-.15.12-.06.12-.07.12-.06.34,0,.34,0,.35,0,.34,0v.11l.27.05.28.06.28.06.28.06h.21c.1.06.11.08.12.11a.3.3,0,0,1,0,.1l.13,0a.42.42,0,0,0,0,.1c.09.09.12.1.15.11l.1,0,.13,0,.12.12.12.12.14,0,.14,0,.14,0,.13,0v.23l.21-.12.22-.11.25-.1.28-.1v.43h-.13l.13.06.13.07,0,.19,0,.2.06.17,0,.16-.11.13-.12.13,0,.11,0,.11,0,.11,0,.11a.56.56,0,0,1,0,.12,1.12,1.12,0,0,1,0,.13s0,.09-.07.14a.89.89,0,0,1-.09.16l.09.16,0,.1h-1.2s0,0,0,0,0-.08,0-.12l.12-.12.11-.11,0-.18V34.1l0-.17,0-.12,0-.12,0-.12,0-.12-.11,0-.1,0-.11,0-.11,0-.18-.16-.18-.17-.19-.16-.18-.17-.15-.08-.12,0-.14,0-.13,0-.18-.06h-.32l-.13-.17-.15.06-.15.06-.12-.12-.11,0-.11,0-.11,0-.1,0h-.1l-.11,0-.17,0-.21.06-.26.09-.29.13.05.1-.11,0-.12,0-.06.1-.14,0-.15,0v.16a.42.42,0,0,0-.13.11,1.43,1.43,0,0,0-.15.18l-.16.24c0,.09-.11.19-.17.31s-.07.26-.11.38-.08.25-.12.36l-.12.32s0,0,0,0Z" style="fill: #fff"/>
      <g style="clip-path: url(#clip-path-35)">
        <g>
          <rect id="SVGID-82" data-name="SVGID" x="-4.46" y="-4.05" width="262.92" height="856.1" style="fill: #fff"/>
          <g style="clip-path: url(#clip-path-2)">
            <rect x="94.88" y="28.27" width="13.97" height="9.71" style="fill: #fff"/>
          </g>
        </g>
      </g>
    </g>
    <g>
      <path id="SVGID-83" data-name="SVGID" d="M121.27,40.37l-.06.25,0,.26,0,.25-.06.25,0,.12,0,.11-.1.13s0,.1.07.14,0,.1.05.15l0,.14s0,.09,0,.14l0,.13,0,.13v.53a2.35,2.35,0,0,1,0,.26c0,.1,0,.2,0,.3s0,.22,0,.33,0,.24,0,.37l0,.32,0,.31,0,.19,0,.2v.39a.58.58,0,0,1,0,.1,1.42,1.42,0,0,1,0,.16,2.2,2.2,0,0,0-.09.21c0,.07-.08.16-.12.25h.14l0,.1v.1l0,.1v.1l-.08.1-.08.1a.36.36,0,0,0-.08.15s0,.08,0,.13,0,.1,0,.15a1.62,1.62,0,0,1-.06.17,1,1,0,0,1,0,.16l-.06.13-.06.13-.08.12-.07.13-.09.15-.09.15-.11.15a1.47,1.47,0,0,1-.1.13l-.12.13-.12.1-.15.13-.15.13-.2.17-.2.18-.1,0-.1,0-.1,0-.1.05-.14.11-.13.09-.11.05-.1,0-.12.15-.36.07-.35.07-.12,0-.13,0-.11.09-.18.06-.21.05a.83.83,0,0,1-.22,0h-1.18l-.17,0-.18,0-.17,0-.17,0-.11,0-.1,0-.11,0h-.11l-.09-.08-.1-.08-.19,0-.19,0-.19,0-.19,0-.16-.14-.15-.14-.1-.08-.15-.1-.19-.11-.24-.14a2.25,2.25,0,0,1-.31-.16,1.26,1.26,0,0,1-.25-.19,1.31,1.31,0,0,1-.17-.24,1.19,1.19,0,0,1-.11-.26l.11-.13,0-.12,0-.12,0-.12,0-.12.11-.1a.3.3,0,0,1,.13,0l.1-.09h.1l.15,0,.1,0,.14,0,.15,0,.17,0h.17v.28a.32.32,0,0,1,.16,0l.1,0,.11.07a.8.8,0,0,1,0,.11.53.53,0,0,1,0,.11l0,.13a.53.53,0,0,0,0,.13.51.51,0,0,0,0,.1c.11.09.14.1.18.11a.89.89,0,0,0,0,.13l.13.08.09,0,.28.09.28.09.28.09.27.09.15,0,.15,0,0,.11H115l.11,0,.12,0,.12,0a.38.38,0,0,1,.18-.09,1.71,1.71,0,0,1,.29-.08l.41-.07.52-.06.11,0,.11,0,.1-.06a.39.39,0,0,0,.1-.08l.23,0,.17,0,.11-.06c.14-.08.18-.08.21-.08l.14,0,.11,0,.11-.07.27-.29.23-.23.22-.23.22-.24.13-.19.12-.19.13-.19.13-.19v-.35l.07-.11.07-.1.08-.11.07-.1v-.2l0-.09v-.1l.07-.16.07-.17,0-.19,0-.2,0-.2,0-.2,0-.19,0-.19,0-.2,0-.19v-.76a2.53,2.53,0,0,1,0-.28l0-.26a1.42,1.42,0,0,1,.07-.22,1.19,1.19,0,0,1,.08-.2l0-.15,0-.14,0-.15,0-.14V40.7l0-.13,0-.13,0-.12,0-.13v-.8l0-.14-.06-.14-.06-.14-.06-.14v-.22l0-.22v-.45l-.08-.25-.08-.24L120,37.2l-.08-.25-.12-.06h-.14a.73.73,0,0,0-.18.13l-.09.12,0,.13,0,.14-.18.08-.18.07,0,.13,0,.13,0,.12-.05.13-.17.17-.16.17-.12.19-.12.19-.12.2-.12.19-.16.11-.16.12-.16.11-.15.11-.2.21-.18.21-.19.21-.19.21-.16.15-.16.15-.14.12L116,41l-.14.11-.14.12-.15.1-.14.12-.13.09-.1.08c-.09.09-.11.1-.11.12l-.07.09L115,42l-.12.11-.1.08-.13.08-.11.05-.11,0-.1,0-.11,0-.11.13-.12.12-.2.15-.16.1-.21.11c-.08.11-.11.13-.14.14l-.09,0h-.11a2.49,2.49,0,0,1-.34.2,1.28,1.28,0,0,1-.29.14l-.3.09a1.55,1.55,0,0,1-.31,0h-.22l-.15,0-.11.07-.11.06-.22-.07-.15,0-.19,0a6.17,6.17,0,0,1-.44-.47c-.12-.15-.23-.29-.32-.42a2.55,2.55,0,0,1-.22-.37,1.82,1.82,0,0,1-.11-.33l0-.26,0-.26,0-.26,0-.26v-.32l0-.17v-.17l.07-.25.08-.25.07-.25.08-.25,0-.16V39l0-.11,0-.11,0-.11,0-.11.06-.22a1.34,1.34,0,0,1,.07-.18.67.67,0,0,1,.06-.15l.06-.13.06-.12a.66.66,0,0,0,0-.15.85.85,0,0,0,0-.17,1.5,1.5,0,0,1,0-.2v-.42l.13-.26.14-.25.13-.26.13-.26.09-.12a.74.74,0,0,0,.14-.17.85.85,0,0,0,.1-.14l.13-.2.15-.25.14-.16.14-.15c0-.08.07-.16.11-.23a1,1,0,0,1,.11-.17.53.53,0,0,1,.11-.14l.11-.08.1-.09a.64.64,0,0,0,.1-.13,1.59,1.59,0,0,0,.08-.18q0-.09.06-.21a.9.9,0,0,1,.2-.14l.16,0,.18-.05.19,0a.77.77,0,0,0,.29-.26,1.11,1.11,0,0,0,.09-.19l.19.05.12-.08.11-.09.12-.08.12-.08a.77.77,0,0,1,.12-.13l.13-.1.12,0a.2.2,0,0,1,.11,0l.13,0,.27,0,.2-.07.19-.07.2-.08.12,0,.12,0,.12,0,.13,0h.35l.13.09.14.09H117l.16.2.16.16.19.19.2.2.15.15a.9.9,0,0,1,.1.12.51.51,0,0,1,0,.24.75.75,0,0,1,0,.16.58.58,0,0,1,0,.14.54.54,0,0,1-.07.13h-.41l-.09-.14-.08-.13-.09-.14-.09-.14-.21-.1a.67.67,0,0,1-.17-.08l-.11-.08-.13,0a.89.89,0,0,1-.24-.05l-.15,0-.12,0-.11,0a.83.83,0,0,0-.22,0,1,1,0,0,0-.23.06l-.23.11-.23.15-.18,0,0,.18h-.25l-.16,0-.17,0-.08.16a.43.43,0,0,1-.11.12.47.47,0,0,1-.12.07l-.15,0-.14.15a.75.75,0,0,1-.14.12.47.47,0,0,1-.12.09l-.1.07-.08.17-.07.17-.13,0-.12,0,0,.18h-.23l-.11.19-.1.18-.11.19-.11.18-.17.12-.18.12,0,.13,0,.12,0,.12,0,.11-.09.14-.09.14-.09.14-.09.14a1.2,1.2,0,0,0-.06.2,1.41,1.41,0,0,1,0,.18c0,.07,0,.14,0,.23l-.15.15-.14.16-.07.3-.08.29-.07.3-.08.3-.12.15-.13.15v.47l-.08.28-.08.27-.08.27-.08.27,0,.18,0,.18v.26l0,.12v.13a.79.79,0,0,1,.11.15,1.17,1.17,0,0,1,0,.11s0,.09,0,.14a.78.78,0,0,0,.05.14.33.33,0,0,0,.06.1c.1.1.13.12.16.13l0,.14,0,.12.13,0,.1,0a.8.8,0,0,1,.13.08l.09,0,.1,0h.24l.14,0h.11l.16,0,.11,0a.48.48,0,0,1,.15-.1l.26-.09a3,3,0,0,1,.37-.08l.49-.07.14-.16.09-.1.08-.11.09-.11.09-.09a.67.67,0,0,1,.18-.13l.1-.07.09-.06.13-.08.12-.09.12-.08.1-.07.16-.07a.93.93,0,0,0,.2-.08A.42.42,0,0,0,115,41a.34.34,0,0,0,.09-.14.7.7,0,0,0,0-.16,2.64,2.64,0,0,0,.29-.14l.22-.13a.92.92,0,0,0,.14-.14.37.37,0,0,0,.08-.15l.1,0,.11,0,.1-.06.17-.14a.68.68,0,0,0,.12-.12l.13-.16.17-.22c.05-.08.12-.17.18-.27l.16.11,0-.13.05-.12.15-.05.15,0a.69.69,0,0,1,0-.13.63.63,0,0,1,0-.17,1,1,0,0,1,.12-.15h.1l.12,0,.09-.13.07-.14.15-.21.12-.17.13-.16.13-.17h.1l0-.13,0-.13,0-.14,0-.13a.37.37,0,0,0,.1-.14l.15-.33c.06-.14.13-.31.21-.52l.25-.7.09,0,.1,0,0-.1,0-.1,0-.11,0-.1,0-.11,0-.1,0-.11,0-.11a.56.56,0,0,0,0-.12,879157700429.3,879157700429.3,0,0,0-.08-.2l-.11-.19-.07-.12-.07-.11-.07-.11,0-.1,0-.11,0-.1,0-.11,0-.12,0-.12,0-.12,0-.11a.63.63,0,0,1,.07-.12c.1-.11.12-.13.15-.14s.16,0,.18,0,.12.1.14.14l.09.13.1.18.12.07.13.06v.48l.06.17.06.18,0,.15,0,.12c0,.09,0,.12,0,.15l0,.11,0,.11,0,.12a.38.38,0,0,1,0,.1c0,.11,0,.13,0,.15s-.07.1-.08.1,0,.12.06.19l.08.17.09.17.1.16,0,.13v.13l0,.14,0,.13a1.77,1.77,0,0,1,.14.17.85.85,0,0,0,.09.14l0,.1c0,.09,0,.12,0,.14a.66.66,0,0,1-.08.17l-.06.16,0,.17.11.13.07.12,0,.18v.26l0,.17,0,.17,0,.17a.88.88,0,0,1,0,.15,1,1,0,0,1,0,.14.8.8,0,0,1,0,.15c0,.05,0,.09,0,.14A.42.42,0,0,0,121,39a.58.58,0,0,0,0,.14s0,.1,0,.17a1.34,1.34,0,0,0,0,.21l.18.14.05.19,0,.18,0,.19Z" style="fill: #fff"/>
      <g style="clip-path: url(#clip-path-37)">
        <g>
          <rect id="SVGID-84" data-name="SVGID" x="-4.46" y="-4.05" width="262.92" height="856.1" style="fill: #fff"/>
          <g style="clip-path: url(#clip-path-2)">
            <rect x="106.49" y="28.89" width="17.73" height="24.87" style="fill: #fff"/>
          </g>
        </g>
      </g>
    </g>
    <g>
      <path id="SVGID-85" data-name="SVGID" d="M137.25,42.41h.55c.11.06.13.08.14.11a.33.33,0,0,1,0,.18.93.93,0,0,1-.05.1l-.09.1-.12.11-.1,0-.1.05-.13.14-.14.11-.13.08-.18.1-.11,0-.11,0-.1,0-.11,0-.11.07-.18,0a1,1,0,0,1-.25,0h-.33l-.13,0-.13,0-.12,0-.15-.05-.12,0-.15-.08-.21-.19-.22-.2-.22-.19-.21-.2-.05-.2,0-.21-.05-.2,0-.2-.13-.13-.13-.12v-.13a1.21,1.21,0,0,0,0-.19l0-.17-.06-.17a1.09,1.09,0,0,0-.08-.15v-.64l0-.19,0-.18s0-.09,0-.12a.71.71,0,0,0,0-.21.4.4,0,0,0,0-.15.34.34,0,0,0,0-.14l-.06-.15,0-.29v-.3l0-.3,0-.3-.15.08-.15.08-.08.14-.1.14-.12.09-.12.08a.52.52,0,0,0-.13.12,1.24,1.24,0,0,0-.13.19h-.12l-.11,0L132,39a1.13,1.13,0,0,0-.1.13.69.69,0,0,0,0,.13.68.68,0,0,0,0,.14l-.18.09-.14.11a.58.58,0,0,0-.1.12.61.61,0,0,0-.07.14l-.06.15-.09.14a1,1,0,0,1-.12.16l-.13.16a1.85,1.85,0,0,0-.14.14l-.13.11-.1.07-.16.07-.12.08-.24.28-.19.24-.19.23-.19.23-.2.19-.19.18-.16.18-.15.19-.13.07-.12.06-.12.07-.12.07-.12.17-.11.17-.23.08-.26.1-.29.12-.3.15-.1-.06-.1-.07-.1-.07-.1-.06-.12,0h-.13c-.08-.09-.09-.11-.09-.13a.55.55,0,0,1,0-.12l-.13-.12L126,43a.44.44,0,0,1,0-.12.71.71,0,0,1,.07-.15l-.18-.16-.17-.18.1-.13.1-.14h-.28l0-.12-.05-.13,0-.13,0-.12.1-.08.1-.08-.12-.17-.13-.18c0-.1,0-.2,0-.28s0-.15,0-.21a1.23,1.23,0,0,1,0-.13l0-.17V40a.62.62,0,0,1,0-.13l0-.13a.57.57,0,0,1,0-.14l.06-.16-.11-.08-.11-.08a.71.71,0,0,0,.1-.14.49.49,0,0,0,.06-.13.28.28,0,0,0,0-.12.43.43,0,0,0,0-.11c0-.12,0-.15,0-.19s0-.07,0-.11l-.06-.13c.09-.08.1-.11.11-.14a.34.34,0,0,0,0-.12v-.5l0-.22,0-.22,0-.22,0-.22.07-.46.08-.47.08-.46.08-.46c0-.08,0-.16,0-.24l0-.25a2.34,2.34,0,0,0,0-.26c0-.08,0-.17,0-.26l0-.11,0-.12,0-.11,0-.11a.48.48,0,0,1,0-.18.25.25,0,0,1,.09-.13.27.27,0,0,1,.14-.08.6.6,0,0,1,.2,0l.09,0,.1,0,.1,0,.09,0,.1.11.1.12,0,.14,0,.14,0,.14,0,.14v1l0,.33,0,.21v.63l0,.11,0,.1,0,.11,0,.11.05.13,0,.13,0,.1,0,.1,0,.1,0,.1v.34l-.07.1,0,.12a1,1,0,0,1,0,.19c0,.11,0,.13,0,.16v.13l.09.12,0,.13-.13.16,0,.14.08.12,0,.15,0,.17v.2l0,.1,0,.11,0,.1v.51l.15.18,0,.16,0,.16,0,.16,0,.15a.65.65,0,0,0,0,.18l0,.11a.75.75,0,0,0,.07.12l0,.14,0,.14,0,.09,0,.1,0,.09,0,.1a.42.42,0,0,1,.12.08l.13.11.15.14.16.17.14,0a.38.38,0,0,0,.13-.06l.12-.07a.52.52,0,0,0,.11-.1l.12-.11.13-.11L128,42l.16-.12a.24.24,0,0,0-.11,0,.67.67,0,0,0,.19-.1.85.85,0,0,0,.14-.1.76.76,0,0,0,.08-.11.22.22,0,0,0,0-.11l.14,0,.12,0,.09,0,.09-.11,0-.16.08-.11.13-.05c.11-.08.16-.15.23-.2l.2-.14a1.33,1.33,0,0,1,.24-.11l.27-.08v-.13l0-.13.12-.1.11-.1.13-.1.11-.1a.71.71,0,0,1,.06-.22.4.4,0,0,1,.12-.16.46.46,0,0,1,.16-.11.72.72,0,0,1,.22,0l0-.17.06-.18.11,0,.12-.05.08-.13.09-.12.09-.13.09-.13H132v-.15l.12-.07.13-.06,0-.09,0-.1,0-.09,0-.1.16-.08.16-.07.16-.07.15-.07.06-.15,0-.14.1,0,.09,0v-.16l.11,0a1.78,1.78,0,0,1,0-.28.93.93,0,0,1,.09-.2.42.42,0,0,1,.13-.11.37.37,0,0,1,.18,0l.08-.41.09-.4.12-.37.13-.36h.11v-.37a.48.48,0,0,0,.18-.23,2.23,2.23,0,0,0,.13-.3c.05-.12.11-.26.17-.42l.11,0h.24l.11,0,0,.11.07.13.07.12.07.13.06.12,0,.25-.05.25-.06.24-.06.25-.09.14-.1.15-.1.14-.09.15-.07.24-.07.25-.07.25-.06.24-.17.12-.17.11v.59l0,.09-.05.09,0,.1,0,.09v.21l0,.11v.11l-.18.18V39l0,.29,0,.36,0,.36,0,.36,0,.36.08.16v.2l0,.1,0,.1v.2l.19.28.13.23a1.22,1.22,0,0,1,.08.17.3.3,0,0,1,0,.11l.09,0,.1,0,.09,0,.09,0,0,.12,0,.12.17.07.17.08.15.07.15.07H136l.14,0,.14.05.1-.05.11,0,.1,0,.11,0,.1-.06.13-.07.14-.1.17-.14" style="fill: #fff"/>
      <g style="clip-path: url(#clip-path-39)">
        <g>
          <rect id="SVGID-86" data-name="SVGID" x="-4.46" y="-4.05" width="262.92" height="856.1" style="fill: #fff"/>
          <g style="clip-path: url(#clip-path-2)">
            <rect x="122.47" y="30.03" width="18.44" height="16.74" style="fill: #fff"/>
          </g>
        </g>
      </g>
    </g>
    <g style="clip-path: url(#clip-path-41)">
      <g style="clip-path: url(#clip-path-42)">
        <rect x="31.88" y="24.01" width="5.91" height="5.91" style="fill: #252724"/>
      </g>
    </g>
    <g style="clip-path: url(#clip-path-43)">
      <g style="isolation: isolate">
        <g style="clip-path: url(#clip-path-44)">
          <g style="clip-path: url(#clip-path-45)">
            <g style="clip-path: url(#clip-path-46)">
              <rect x="6.77" y="11.03" width="45.18" height="45.18" style="fill: #fff"/>
            </g>
          </g>
        </g>
      </g>
    </g>
  </g>
</svg>
