<?xml version="1.0" encoding="utf-8"?>
<!-- Generator: Adobe Illustrator 24.0.1, SVG Export Plug-In . SVG Version: 6.00 Build 0)  -->
<svg version="1.1" id="Capa_1" xmlns="http://www.w3.org/2000/svg" xmlns:xlink="http://www.w3.org/1999/xlink" x="0px" y="0px"
	 viewBox="0 0 890.7 658.1" style="enable-background:new 0 0 890.7 658.1;" xml:space="preserve">
<style type="text/css">
	.st0{fill:#FFFFFF;}
	.st1{enable-background:new    ;}
	.st2{clip-path:url(#SVGID_1_);}
	.st3{clip-path:url(#SVGID_2_);fill:#FFFFFF;}
</style>
<g>
	<g>
		<path class="st0" d="M399.9,378.7c0-0.5,0.4-1,1-1h4.8c0.5,0,1,0.5,1,1v29.5h13.4c0.6,0,1,0.5,1,1v4.3c0,0.5-0.4,1-1,1h-19.2
			c-0.6,0-1-0.5-1-1V378.7z"/>
		<path class="st0" d="M433.2,378.7c0-0.5,0.4-1,1-1h21.4c0.6,0,1,0.5,1,1v4.3c0,0.5-0.4,1-1,1h-15.5v8.6h13c0.5,0,1,0.5,1,1v4.4
			c0,0.6-0.5,1-1,1h-13v9.2h15.5c0.6,0,1,0.5,1,1v4.3c0,0.5-0.4,1-1,1h-21.4c-0.6,0-1-0.5-1-1V378.7z"/>
		<path class="st0" d="M466.7,409.3l1.9-3.3c0.4-0.7,1.3-0.7,1.8-0.4c0.3,0.2,4.5,3.3,7.9,3.3c2.7,0,4.8-1.8,4.8-4
			c0-2.7-2.3-4.5-6.7-6.3c-4.9-2-9.9-5.1-9.9-11.3c0-4.7,3.5-10.1,11.8-10.1c5.4,0,9.5,2.7,10.5,3.5c0.5,0.3,0.7,1.2,0.3,1.7l-2,3
			c-0.4,0.6-1.2,1.1-1.8,0.6c-0.4-0.3-4.4-2.9-7.3-2.9c-3,0-4.6,2-4.6,3.7c0,2.5,1.9,4.2,6.2,5.9c5.1,2,11,5.1,11,11.9
			c0,5.4-4.7,10.4-12.1,10.4c-6.6,0-10.5-3.1-11.6-4.1C466.5,410.4,466.2,410.2,466.7,409.3z"/>
	</g>
	<g>
		<path class="st0" d="M33.7,568.9l53.4-115.6c0.5-1,1.4-1.9,2.9-1.9h1.7c1.7,0,2.4,0.9,2.9,1.9l52.9,115.6c1,2.2-0.3,4.5-2.9,4.5
			h-14.9c-2.6,0-3.8-1-5-3.4l-8.4-18.6H65l-8.4,18.6c-0.7,1.7-2.2,3.4-5,3.4H36.6C34.1,573.3,32.7,571.1,33.7,568.9z M107.9,532.3
			l-17.2-37.8h-0.5l-16.8,37.8H107.9z"/>
		<path class="st0" d="M232.7,451.4c15.5,0,30.2,6,41.9,16c1.4,1.4,1.5,3.4,0.2,4.8l-10.7,11.2c-1.4,1.4-2.9,1.4-4.5,0
			c-7.4-6.5-16.5-10-25.9-10c-21.5,0-38.5,18.4-38.5,39.9c0,21.3,17,39.3,38.7,39.3c9.6,0,17-2.9,20.4-4.3v-14.6h-13.7
			c-1.9,0-3.3-1.4-3.3-3.1V517c0-1.9,1.4-3.3,3.3-3.3h33c1.7,0,3.1,1.5,3.1,3.3v44c0,1.4-0.7,2.2-1.4,2.7c0,0-17.7,11.2-42.6,11.2
			c-34.2,0-61.7-27.1-61.7-61.5S198.5,451.4,232.7,451.4z"/>
		<path class="st0" d="M317.4,456.3c0-1.7,1.5-3.3,3.3-3.3H337c1.9,0,3.3,1.5,3.3,3.3v70.3c0,14.6,10,26.1,24.9,26.1
			c15,0,25.1-11.5,25.1-25.9v-70.4c0-1.7,1.4-3.3,3.3-3.3h16.3c1.7,0,3.3,1.5,3.3,3.3v71.5c0,26.1-20.8,47.2-47.9,47.2
			c-27,0-47.8-21.1-47.8-47.2V456.3z"/>
		<path class="st0" d="M459.8,456.3c0-1.7,1.4-3.3,3.3-3.3h15.8c1.7,0,3.3,1.5,3.3,3.3v96.4H526c1.9,0,3.3,1.5,3.3,3.3v14.1
			c0,1.7-1.4,3.3-3.3,3.3h-62.9c-1.9,0-3.3-1.5-3.3-3.3V456.3z"/>
		<path class="st0" d="M563.8,456.3c0-1.7,1.4-3.3,3.3-3.3h15.8c1.7,0,3.3,1.5,3.3,3.3v96.4h43.8c1.9,0,3.3,1.5,3.3,3.3v14.1
			c0,1.7-1.4,3.3-3.3,3.3h-62.9c-1.9,0-3.3-1.5-3.3-3.3V456.3z"/>
		<path class="st0" d="M667.8,456.3c0-1.7,1.4-3.3,3.3-3.3h69.9c1.9,0,3.3,1.5,3.3,3.3v14.1c0,1.7-1.4,3.3-3.3,3.3h-50.9v28.2h42.4
			c1.7,0,3.3,1.5,3.3,3.3v14.3c0,1.9-1.5,3.3-3.3,3.3h-42.4v30.1h50.9c1.9,0,3.3,1.5,3.3,3.3v14.1c0,1.7-1.4,3.3-3.3,3.3H671
			c-1.9,0-3.3-1.5-3.3-3.3V456.3z"/>
		<path class="st0" d="M778.9,556.5l6.2-10.7c1.4-2.4,4.3-2.4,5.8-1.2c0.9,0.5,14.8,10.7,25.9,10.7c8.9,0,15.6-5.8,15.6-13.2
			c0-8.8-7.4-14.8-21.8-20.6c-16.1-6.5-32.3-16.8-32.3-37.1c0-15.3,11.3-33,38.7-33c17.5,0,30.9,8.9,34.4,11.5c1.7,1,2.2,4,1,5.7
			l-6.5,9.8c-1.4,2.1-4,3.4-6,2.1c-1.4-0.9-14.4-9.4-23.9-9.4c-9.8,0-15.1,6.5-15.1,12c0,8.1,6.4,13.6,20.3,19.2
			c16.7,6.7,35.9,16.7,35.9,38.8c0,17.7-15.3,34-39.5,34c-21.6,0-34.4-10.1-37.8-13.4C778.2,560.1,777.4,559.2,778.9,556.5z"/>
	</g>
	<g>
		<path class="st0" d="M239.1,615.9c0-0.4,0.3-0.7,0.7-0.7h10.9c4.6,0,8.3,3.7,8.3,8.2c0,3.5-2.3,6.4-5.6,7.7l5.2,9.7
			c0.3,0.5,0,1.1-0.7,1.1h-4c-0.3,0-0.5-0.2-0.6-0.3l-5.1-10.1H244v9.7c0,0.4-0.3,0.7-0.7,0.7h-3.5c-0.4,0-0.7-0.3-0.7-0.7V615.9z
			 M250.3,627.3c2,0,3.8-1.8,3.8-3.9c0-2-1.8-3.7-3.8-3.7h-6.2v7.6H250.3z"/>
		<path class="st0" d="M284.7,615.9c0-0.4,0.3-0.7,0.7-0.7H301c0.4,0,0.7,0.3,0.7,0.7v3.1c0,0.4-0.3,0.7-0.7,0.7h-11.3v6.3h9.4
			c0.4,0,0.7,0.3,0.7,0.7v3.2c0,0.4-0.3,0.7-0.7,0.7h-9.4v6.7H301c0.4,0,0.7,0.3,0.7,0.7v3.1c0,0.4-0.3,0.7-0.7,0.7h-15.5
			c-0.4,0-0.7-0.3-0.7-0.7V615.9z"/>
		<path class="st0" d="M325.1,638.1l1.4-2.4c0.3-0.5,1-0.5,1.3-0.3c0.2,0.1,3.3,2.4,5.8,2.4c2,0,3.5-1.3,3.5-2.9
			c0-1.9-1.6-3.3-4.8-4.6c-3.6-1.5-7.2-3.7-7.2-8.2c0-3.4,2.5-7.3,8.6-7.3c3.9,0,6.9,2,7.6,2.6c0.4,0.2,0.5,0.9,0.2,1.3l-1.4,2.2
			c-0.3,0.5-0.9,0.8-1.3,0.5c-0.3-0.2-3.2-2.1-5.3-2.1c-2.2,0-3.4,1.5-3.4,2.7c0,1.8,1.4,3,4.5,4.3c3.7,1.5,8,3.7,8,8.6
			c0,3.9-3.4,7.6-8.8,7.6c-4.8,0-7.6-2.2-8.4-3C324.9,638.9,324.7,638.7,325.1,638.1z"/>
		<path class="st0" d="M371.9,619.7h-5.8c-0.4,0-0.7-0.3-0.7-0.7v-3.1c0-0.4,0.3-0.7,0.7-0.7h16.7c0.4,0,0.7,0.3,0.7,0.7v3.1
			c0,0.4-0.3,0.7-0.7,0.7h-5.8v21.4c0,0.4-0.3,0.7-0.7,0.7h-3.5c-0.4,0-0.7-0.3-0.7-0.7V619.7z"/>
		<path class="st0" d="M405.1,640.9l11.9-25.7c0.1-0.2,0.3-0.4,0.6-0.4h0.4c0.4,0,0.5,0.2,0.7,0.4l11.8,25.7c0.2,0.5-0.1,1-0.7,1
			h-3.3c-0.6,0-0.8-0.2-1.1-0.8l-1.9-4.1H412l-1.9,4.1c-0.2,0.4-0.5,0.8-1.1,0.8h-3.3C405.2,641.9,404.8,641.4,405.1,640.9z
			 M421.6,632.7l-3.8-8.4h-0.1l-3.7,8.4H421.6z"/>
		<path class="st0" d="M447.2,615.9c0-0.4,0.3-0.7,0.7-0.7h3.6c0.4,0,0.7,0.3,0.7,0.7v15.6c0,3.2,2.2,5.8,5.5,5.8
			c3.3,0,5.6-2.6,5.6-5.8v-15.6c0-0.4,0.3-0.7,0.7-0.7h3.6c0.4,0,0.7,0.3,0.7,0.7v15.9c0,5.8-4.6,10.5-10.6,10.5
			c-6,0-10.6-4.7-10.6-10.5V615.9z"/>
		<path class="st0" d="M496.1,615.9c0-0.4,0.3-0.7,0.7-0.7h10.9c4.6,0,8.3,3.7,8.3,8.2c0,3.5-2.3,6.4-5.6,7.7l5.2,9.7
			c0.3,0.5,0,1.1-0.7,1.1h-4c-0.3,0-0.5-0.2-0.6-0.3l-5.1-10.1H501v9.7c0,0.4-0.3,0.7-0.7,0.7h-3.5c-0.4,0-0.7-0.3-0.7-0.7V615.9z
			 M507.3,627.3c2,0,3.8-1.8,3.8-3.9c0-2-1.8-3.7-3.8-3.7h-6.2v7.6H507.3z"/>
		<path class="st0" d="M538.3,640.9l11.9-25.7c0.1-0.2,0.3-0.4,0.7-0.4h0.4c0.4,0,0.5,0.2,0.6,0.4l11.7,25.7c0.2,0.5-0.1,1-0.6,1
			h-3.3c-0.6,0-0.8-0.2-1.1-0.8l-1.9-4.1h-11.4l-1.9,4.1c-0.2,0.4-0.5,0.8-1.1,0.8h-3.3C538.3,641.9,538,641.4,538.3,640.9z
			 M554.7,632.7l-3.8-8.4h-0.1l-3.7,8.4H554.7z"/>
		<path class="st0" d="M585.8,615.5c0-0.4,0.3-0.7,0.7-0.7h1l15.9,16.9h0v-15.8c0-0.4,0.3-0.7,0.7-0.7h3.5c0.4,0,0.7,0.3,0.7,0.7
			v25.7c0,0.4-0.3,0.7-0.7,0.7h-0.9l-16-17.5h0v16.4c0,0.4-0.3,0.7-0.7,0.7h-3.5c-0.4,0-0.7-0.3-0.7-0.7V615.5z"/>
		<path class="st0" d="M639.9,619.7H634c-0.4,0-0.7-0.3-0.7-0.7v-3.1c0-0.4,0.3-0.7,0.7-0.7h16.7c0.4,0,0.7,0.3,0.7,0.7v3.1
			c0,0.4-0.3,0.7-0.7,0.7h-5.8v21.4c0,0.4-0.3,0.7-0.7,0.7h-3.5c-0.4,0-0.7-0.3-0.7-0.7V619.7z"/>
	</g>
	<g>
		<g class="st1">
			<g>
				<g>
					<defs>
						<path id="SVGID_181_" d="M446,21.4c-75,0-135.9,60.8-135.9,135.9c0,75,60.8,135.9,135.9,135.9s135.9-60.8,135.9-135.9
							C581.9,82.2,521.1,21.4,446,21.4z M442.8,259.6l-0.3,0.6l-2.8,1.3l-0.2,0.5l-1.8,0.6l-0.7,0l-1,0l-2.2,0.2l-1.9,1.2l-2,0.8
							l-2.4,1.3l-2.8,0.2l-0.2,0l-0.3,0.2l-5.5,2.7l-1.5,0.2l-1.2-0.3l-1.8,0.5l0,0.1l-0.4,0.3c-0.5,0.2-0.7,0.2-0.9,0.3l-0.8,0
							l0,0.7l-6.4,0.3l-1.5-0.3l-2.3-0.9l-3.6-0.5l-2.2-1.5l-2.4-3.1l-2.5-4.7l-0.9-4.3l0-0.8l-1.2-5.4l0.4-0.9
							c0.1-0.3,0.2-0.4,0.3-0.5l0.1-1.6l-0.1-4.3l0.4-2.8l0-1.3l0.3-2.3l-0.1-0.4l0.3-2.6l-0.2-0.7l0.1-0.7l0-2.4l0.5-0.4
							c0.1-0.1,0.2-0.2,0.3-0.2l0-1.2l0-2.1l-0.2-7.4l0.6-1l0.3-2.3l-0.2-1.2l0.1-0.8l-0.1-1.7c0-0.6-0.1-1.2,0.6-1.7l0.4-0.2
							l-1-0.6l-0.1-1.2l0.3-2.1l0.4-1.1l0.6-0.5l0-1l0.2-0.6l-0.1-1l0.8-0.5l0.2-2l0,0l0.1-3.1l0.7-0.6l-0.2-3.8l0.2-0.9l-0.1-0.7
							c-0.1-0.2-0.1-0.4-0.1-0.5l-0.2-0.5l0-0.2c0-0.5,0.1-1,0.3-1.4l0.4-1.5l0.3-4.5l0.4-1.4v-0.9l0.7-1.4l0.1-1.9l0-0.6l0.3-2.1
							l0.6-1.8l-0.1-1.1l0.2-1.3l0.3-0.7c0.1-0.2,0.2-0.3,0.3-0.4v-0.6l0.8-1.7l0-0.4l-0.1-2.6l0.3-2.7l0.3-1.1l0-0.7l0.8-2.2
							l0.2-1.4l0.4-1.2c0.1-0.5,0.2-0.8,0.4-1.1c0.1-0.3,0.1-0.4,0.2-0.6l0.5-0.8l0-0.3c-0.1-0.7-0.1-1,0-1.2l0.1-0.4l0.3-0.3
							c0.4-0.4,0.5-0.5,0.5-0.6l0.3-0.5l2.2-3.8c0,0,0.1-0.1,0.1-0.2c0.1-0.4,0.1-0.6,0.3-0.9l0.3-0.4l1.6-1.7
							c0.4-0.3,0.5-0.4,0.6-0.5l0.4-0.2l5.4-1.3l0.8,0l0.6,0l0.7-0.2c0.2-0.2,0.4-0.3,0.5-0.4l2.2-1.7c0.5-0.3,0.6-0.3,0.6-0.4
							l3-2.8l3.2-4.1l0.3-1.2l0.5-0.7c0.7-0.7,0.7-0.8,0.9-0.9l0.3-0.3c0,0,0.1-0.1,0.1-0.3l0.7-1.6c0.2-0.4,0.2-0.5,0.3-0.6l0-0.4
							l0-0.4l0.3-1.3l0.6-0.9l0.7-0.9l-0.2-2.1l0.1-1.5l-0.1-2.1l0-0.2c0.1-0.5,0.2-0.7,0.2-0.8l1.5-2.9l-0.1-0.9l0.1-1.6l0-0.7
							l0.1-1.3l0-0.6l0.3-2.3l0-0.5l0.2-2.1l0-0.3l0.6-6.7l0.2-0.3l-0.1-0.8l0.1-1.4l-0.2-6.4l1.4-4.2l0-0.3l0.1-0.8l3.5-8.9l1.3-2
							c0-0.1,0.1-0.2,0.1-0.3v-0.4l0.2-0.1c0.3-0.5,0.6-0.7,0.7-0.8l2.4-2.4l1.6-0.3l0.8-0.4l6.7-0.5l1.7,0.4l0.7,2.7l-4.8,1.8
							c-0.3,0.2-0.4,0.2-0.4,0.3l-0.8,0.3l-2.2,1.6l-2.4,4.8c-0.3,0.5-0.4,0.7-0.5,0.9l-3,5.4l-0.1,2.1l0.4,3.1l-0.2,1.8l-0.9,2
							l0.2,1.7l-0.2,1.9l-0.6,2l0.1,6.2l-0.8,5.3l0.2,5.6l-0.1,2.1c0,0.6-0.1,0.9-0.3,1.3l-0.2,0.4c-0.2,0.4-0.3,0.5-0.3,0.6l0,0.3
							l0.1,1l-0.1,0.9l0.1,0.7c0,0.7,0,0.9-0.1,1.2l-0.8,5.5l-1.1,1.9c-0.3,0.6-0.4,0.8-0.5,0.9l-0.7,1.2l-0.8,0.9
							c-0.5,0.5-0.6,0.6-0.7,0.7l-1.7,2c-0.3,0.5-0.5,0.6-0.7,0.8l-0.9,0.9l-0.7,1.3l-2.7,3.6l-0.3,1.5l-0.5,1.2l-1,0.7l0.1,0.8
							l-0.8,1.3l-1.1,0.5l-2.7,0.5l-2.6,2.4l-0.6,1.1l-1.1-0.5c-0.5-0.2-0.6-0.3-0.8-0.4l-0.5-0.3l-0.5,0.5l-2.1-0.1l-0.6,1.2
							l0.1,1.5l-0.4,1.2l-0.3,0.2c-0.3,0.2-0.5,0.4-0.8,0.5l-0.3,0.4l-0.2,0.5l-0.8,1.3c-0.1,0.5-0.2,0.7-0.2,0.8l-0.3,0.7l0.2,0.3
							l-0.3,1.6l-0.8,0.7c-0.1,0.1-0.2,0.1-0.3,0.2l-0.4,1.2l0,0.5l-0.7,2.1l0.2,1.5L405,167l0.1,3.4l-1,0.5l-0.6,0.7l0.2,3.1
							l-0.8,1.3l-0.1,1.2l0,0.2l-0.1,1.2l0.2,1.4l-0.2,1.8l-0.5,1.3l0,0.4l-0.3,1.3c-0.2,0.3-0.4,0.5-0.5,0.7l-0.8,3l0,0.7l0.2,9
							l-0.2,1.7l0,0.1l0,0l-0.1,0.6h-0.2l0.4,0.9l0.1,1.1c-0.1,0.8-0.1,1.1-0.3,1.5l-0.3,0.3l-0.5,0.4l0,0c0.1,0.1,0.1,0.1,0.1,0.1
							c0.5,0.7,0.6,0.9,0.7,1.2l0.1,0.3l-0.3,1.2l-1.1,2.7l0.2,0.9l0,0.5l0.2,0.8l-0.2,0.9l0,1l-0.1,0.5l0.2,0.8l-0.7,1.7l-0.2,1.5
							c-0.2,0.6-0.2,0.8-0.4,1l-0.2,0.3l0.3,1.6l-0.4,1.1l0.2,1.2l-0.2,1.7l-0.9,2.7l0,2.2c-0.1,0.6-0.2,0.9-0.3,1.1l-0.2,0.8
							l0.3,1.9c0.2,0.7,0.2,1.4-0.2,2l-0.1,0.6l0,0.3l-0.1,1.2l0.2,1.2l-0.1,0.3c-0.1,0.3-0.2,0.6-0.4,0.8l-0.4,0.8l0.2,2.8l0.4,1.5
							l-0.2,1.2l-0.3,0.9l0.1,0.6l0.8,1.5c0.2,0.9,0.2,1.2,0.2,1.4l-0.1,1.5l0.2,0.8l0.4,0.9l0.2,1.6c0,0,0.1,0.2,0.1,0.3l0.3,0.6
							l0.4,1.2c0,0.2,0,0.3,0,0.4l0.4,0.6l1.6,1.5c0.4,0.4,0.5,0.5,0.6,0.6l1.8,0.5l3,1.2l2.4-0.2l0.5,0l0.1-0.3l1.5-1
							c0.4-0.1,0.6-0.1,0.8-0.1l0.4,0l3.1,0.5l0.4-0.4c0.6-0.5,0.8-0.6,1.1-0.7l2-0.4l1.9,0.1l0.1-0.6l2.9-0.6l1.9-0.1
							c0.3-0.3,0.3-0.3,0.4-0.4l0.5-0.2l7.2-0.9c0.2-0.2,0.3-0.2,0.4-0.3c0.7-0.5,0.9-0.7,1.2-0.7l0.7-0.1l1.4,0l0.7-0.5l0.8-0.8
							l1-0.2l2.1,0.1l1.2,1l0.5,1.5L442.8,259.6z M498.2,48.2c-0.3,0.2-0.3,0.2-0.4,0.3l-0.8,0.4l-3,2.9l-1.6,3.5
							c-0.2,0.3-0.3,0.5-0.4,0.7c-0.5,0.7-0.6,0.8-0.7,1l-2.5,5l-0.1,1.7l0.4,3.1l-0.2,1.8l-0.9,1.9l0.1,1.7l-0.2,1.8l-0.6,2.1
							l0.1,6.1l-0.8,4.9l0.2,6l-0.1,2.1c-0.1,0.7-0.1,0.9-0.2,1.2l-0.2,0.5c-0.2,0.3-0.3,0.5-0.3,0.6v0.4l0,1.1l-0.1,0.8l0,0.3
							c0,0.3,0,0.5,0,0.6c0,0.6,0,0.7-0.1,0.9l-0.8,5.7l-1.3,2.4c-0.1,0.2-0.2,0.4-0.3,0.5l-0.7,1.1l-0.8,0.9
							c-0.5,0.5-0.6,0.6-0.7,0.7l-1.7,2c-0.4,0.6-0.6,0.7-0.6,0.8l-0.9,0.9l-0.7,1.3l-2.1,2.9c-0.3,0.4-0.5,0.6-0.7,0.8
							c0,0.3,0,0.4,0,0.5l-0.1,0.4l-0.7,1.8l-1,0.7l0.1,0.8l-0.8,1.2l-1.1,0.5l-2.7,0.5l-2.6,2.4l-0.6,1.1l-1.2-0.5
							c-0.6-0.3-0.7-0.3-0.7-0.3l-0.5-0.4l-0.5,0.5l-1.6,0l-0.6-0.1l-0.6,1.2l0.1,1.5l-0.4,1.2l-0.3,0.2c-0.3,0.2-0.5,0.4-0.8,0.6
							l-0.5,0.9l-0.8,1.3c-0.1,0.5-0.2,0.6-0.2,0.7l-0.4,0.9l0.3,0.5l-1.2,2c-0.1,0.1-0.2,0.1-0.3,0.2l-0.4,1.1l0.1,0.5l-0.7,2.1
							l0.2,1.4l-0.2,1.6l0.1,2.4l0,1l-0.9,0.5l-0.6,0.7l0.2,1.9c0,0.4,0,0.7,0,0.9l0,0.4l-0.7,1.2l-0.1,1.2l0,0.2l-0.1,1.2l0.2,1.4
							l-0.2,1.8l-0.5,1.3l0,0.4l-0.3,1.3c-0.2,0.3-0.4,0.5-0.5,0.7l-0.8,3l0,0.7l0.2,8.5v0l0,0.5l-0.3,2.3h-0.2l0.4,0.9l0.1,1.3
							l0,0.2c-0.1,0.5-0.1,0.7-0.2,1l-0.4,0.5l-0.5,0.4l0.1,0.1c0.5,0.7,0.6,0.9,0.7,1.1l0.1,0.3l-0.2,0.9l-1.2,3l0.2,1l0,0.5
							l0.2,0.8l-0.2,0.9l0,1.2l-0.1,0.4l0.2,0.7l-0.6,1.4v0.3l-0.3,1.5c-0.1,0.6-0.2,0.8-0.4,1.1L447,202l0.3,1.6l-0.4,1l0.2,1.2
							l-0.1,1.7l-1,2.8l0,2.2c-0.1,0.7-0.2,0.9-0.3,1.1l-0.3,0.8l0.3,1.9c0.2,0.8,0.2,1.3-0.1,1.9l-0.2,1l-0.1,1.2l0.2,1.2l-0.1,0.3
							c-0.1,0.4-0.3,0.6-0.4,0.9l-0.3,0.4l0.4,5.9l-0.4,0.9l0,0.5l0.9,1.7c0.2,0.9,0.2,1.2,0.2,1.4l-0.1,1.8l0.2,0.4l0.4,0.9
							l0.2,1.7c0,0,0.1,0.2,0.1,0.3l0.3,0.5l0.5,1.8l1.9,1.9c0.3,0.3,0.4,0.4,0.5,0.5l1.9,0.5c0.6,0.3,0.8,0.3,0.9,0.4l2.1,0.9
							l2.4-0.2l0.4,0l1.4-1.2l0.3-0.1c0.4-0.1,0.6-0.1,0.7-0.1l0.4,0.1l3.1,0.5l0.4-0.4c0.7-0.5,0.9-0.7,1.3-0.7l1.8-0.4l0.2,0
							c0.4,0,0.6,0,0.8,0l0.9,0.1l0.1-0.6l2.9-0.6l1.9-0.1c0.2-0.3,0.3-0.3,0.4-0.4l0.5-0.2l7.1-0.9c0.2-0.2,0.3-0.2,0.4-0.3
							c0.8-0.6,0.9-0.6,1-0.7l0.5-0.1l0.5-0.1l1.4,0l0.7-0.5l0.8-0.8l1-0.2l2.1,0.1l1.2,1l0.5,1.4l-0.7,2l-1.5,0.3l-0.6,0.6
							l-0.7,0.2l-0.2,0.5l-1.9,0.6l-0.7,0l-1,0l-2.2,0.2l-1.9,1.2l-2,0.8l-1.1,0.8l-1.3,0.5l-2.7,0.2l-0.2,0L473,248l-4.9,2.6
							l-2.1,0.3l-1.2-0.3l-2.1,0.8c-0.4,0.2-0.7,0.2-0.9,0.3l-0.8,0l-0.1,0.7l-6.4,0.3l-1.5-0.3l-2.3-0.9l-3.6-0.5l-2.2-1.5l-2.3-3
							l-2.5-4.7l-0.9-4.3l0-0.8l-1.2-5.4l0.7-1.7l0.1-1.3l-0.1-2.4l0-0.6l-0.1-1.3l0.4-2.8l0-1.3l0.3-1.9l-0.1-0.8l0.3-2.6l-0.2-0.7
							l0.1-0.8l0-2.4l0.8-0.6l0-1.2l0-2.1l-0.1-3.8l0-1.1l-0.1-2.5l0.5-0.9l0.4-2.4l-0.3-1.1l0.1-0.8l-0.1-1.7
							c0-0.4-0.1-0.8,0.2-1.2l0.2-0.4l0.6-0.3l-1-0.6l-0.1-1.2l0.3-2.1l0.4-1.1l0.6-0.6l0-1l0.2-0.6l-0.1-1l0.8-0.5l0.1-1.3l0.2-3.8
							l0.6-0.6l-0.2-3.7l0.2-0.9l-0.1-0.7c0-0.1-0.1-0.2-0.1-0.3l-0.2-0.7l0-0.2c0-0.6,0.1-0.9,0.3-1.3l0.4-1.6l0.3-4.5l0.4-1.5
							l0-0.9l0.8-1.4l0.1-1.9l0-0.6l0.2-2.1l0.5-1c0-0.2,0-0.3,0.1-0.4l0-0.4l-0.1-1.1l0.2-1.3l0.3-0.7c0.1-0.2,0.2-0.3,0.3-0.4
							l0.2-0.9c0.2-0.3,0.3-0.5,0.4-0.7l0.3-1.2l-0.1-2.6l0.3-2.6l0.3-1.1l0-0.7l0.8-2.2l0.3-1.7l0.3-0.9c0.1-0.6,0.3-0.8,0.3-1
							c0.1-0.4,0.2-0.5,0.3-0.7l0.5-0.9l0-0.3c-0.1-0.6,0-0.8,0-0.9l0-0.5l0.4-0.4c0.6-0.6,0.6-0.6,0.6-0.7l2.4-4.2
							c0-0.1,0.1-0.2,0.1-0.2c0-0.3,0.1-0.5,0.2-0.8l0.3-0.4l0.5-0.4c0.5-0.4,0.6-0.5,0.7-0.6l0.5-0.7l0.9-0.6l5.4-1.3l0.8,0l0.6,0
							l0.3,0l4.1-3l2.6-2.4l3.2-4.1l0.3-1.1l0.4-0.7c0.4-0.4,0.6-0.6,0.7-0.7l0.5-0.5c0,0,0.1-0.2,0.1-0.3l0.7-1.6
							c0.1-0.2,0.2-0.4,0.2-0.5l0-0.5v-0.5l0.3-1.3l0.6-0.9l0.7-0.8l-0.2-2.1l0.1-1.5l-0.1-1.9l0.3-1.3c0.2-0.5,0.3-0.7,0.4-0.8
							l1.1-1.9l0-0.9l0-1.6l0-0.7l0.1-1.4v-0.5l0.3-2.3l0-0.5l0.2-2.1l0-0.4l0.6-6.6c0.1-0.1,0.1-0.2,0.2-0.3l-0.1-0.8l0.1-1.5
							l-0.2-6.4l0.3-1.2l0.3-0.7l0.1-0.6l0.3-0.8c0.1-0.3,0.2-0.4,0.3-0.5l0.5-2.3l4.4-9.9c0-0.1,0.1-0.2,0.1-0.2l0-0.4l0.2-0.2
							c0.3-0.4,0.5-0.7,0.7-0.8l2.4-2.5l1.7-0.4l1.3-0.5l6-0.3l1.7,0.4l0.7,2.7L498.2,48.2z"/>
					</defs>
					<use xlink:href="#SVGID_181_"  style="overflow:visible;fill:#FFFFFF;"/>
					<clipPath id="SVGID_1_">
						<use xlink:href="#SVGID_181_"  style="overflow:visible;"/>
					</clipPath>
					<g class="st2">
						<defs>
							<rect id="SVGID_183_" x="310.2" y="19.2" width="273.9" height="273.9"/>
						</defs>
						<use xlink:href="#SVGID_183_"  style="overflow:visible;fill:#FFFFFF;"/>
						<clipPath id="SVGID_2_">
							<use xlink:href="#SVGID_183_"  style="overflow:visible;"/>
						</clipPath>
						<rect x="289.7" y="0.9" class="st3" width="312.6" height="312.6"/>
					</g>
				</g>
			</g>
		</g>
	</g>
</g>
</svg>
