<svg id="Capa_1" data-name="Capa 1" xmlns="http://www.w3.org/2000/svg" xmlns:xlink="http://www.w3.org/1999/xlink" viewBox="0 0 890.65 692.45"><defs><clipPath id="clip-path"><path id="SVGID" d="M446.35,36.06A135.88,135.88,0,1,0,582.22,171.94,135.88,135.88,0,0,0,446.35,36.06Zm-3.26,238.25-.3.58L440,276.2l-.24.47-1.84.57-.72,0-1,0-2.18.2-1.85,1.16-2,.83-2.39,1.28-2.75.19h-.15l-.31.16L419,283.8l-1.48.19-1.21-.33-1.75.54,0,.06-.41.26a3.59,3.59,0,0,1-.89.26l-.83.05,0,.67-6.42.34-1.5-.34-2.27-.89-3.63-.53-2.2-1.48L394,279.53l-2.51-4.66-.85-4.27,0-.8-1.24-5.4.37-.93.26-.49.07-1.56-.13-4.34.35-2.82,0-1.34.32-2.33-.06-.4.29-2.59-.19-.72.07-.74,0-2.44.49-.41a2.6,2.6,0,0,1,.28-.24l0-1.21,0-2.13-.24-7.35.59-1,.34-2.27L392,228l.09-.77-.11-1.69a1.58,1.58,0,0,1,.61-1.66l.43-.21-1-.65-.13-1.24.3-2.11.39-1.1.62-.53,0-1,.24-.63-.07-1,.84-.51.15-1.95h0l.13-3.15.65-.58-.23-3.76.2-.86-.07-.74a3,3,0,0,1-.12-.54l-.16-.46,0-.24a2.88,2.88,0,0,1,.33-1.36l.38-1.49.34-4.53.37-1.43v-.93l.74-1.4.08-1.94,0-.56.26-2.07.57-1.77-.11-1.09.23-1.29.34-.71a4.26,4.26,0,0,1,.27-.44v-.61l.83-1.73,0-.44-.1-2.58.32-2.69.27-1.13,0-.73.82-2.15.22-1.4.44-1.23a4,4,0,0,1,.41-1.12,2.19,2.19,0,0,1,.19-.56l.47-.79,0-.26a4.06,4.06,0,0,1,0-1.22l.07-.39.27-.28a7.27,7.27,0,0,1,.54-.57l.26-.52,2.21-3.8.09-.17a3.24,3.24,0,0,1,.25-.86l.28-.36,1.63-1.68.57-.47.38-.18,5.39-1.31h.85l.61,0,.66-.18.46-.38,2.24-1.65.63-.38,3-2.79,3.16-4.08.34-1.16.46-.67a6.57,6.57,0,0,1,.88-.91l.34-.34a1.85,1.85,0,0,1,.14-.26l.7-1.61a4.26,4.26,0,0,0,.26-.58l0-.42v-.43l.29-1.34.6-.88.73-.89-.2-2.08.09-1.52-.08-2.1.05-.18c.11-.5.15-.66.18-.75l1.52-2.92-.07-.89.06-1.59v-.69l.12-1.33v-.57l.31-2.3,0-.53.22-2.11,0-.33.59-6.71.2-.32-.06-.8.06-1.44-.16-6.43,1.37-4.18,0-.28.08-.76,3.45-8.88,1.26-2c0-.07.08-.19.11-.28v-.44l.23-.12a5.53,5.53,0,0,1,.71-.82l2.4-2.43,1.56-.34.76-.37,6.71-.49,1.72.36.71,2.72-4.77,1.81a1.44,1.44,0,0,1-.41.25l-.77.33-2.21,1.56-2.38,4.8a8.53,8.53,0,0,1-.51.88l-3,5.4-.14,2.08.41,3.06-.19,1.82-.87,2,.17,1.7-.19,1.86-.6,2,.1,6.17-.84,5.26.2,5.63-.1,2.11a3.06,3.06,0,0,1-.29,1.28l-.21.43a5.72,5.72,0,0,0-.3.63v.34l.06,1-.09.88.08.74a4,4,0,0,1-.13,1.17l-.77,5.54-1.08,1.94-.48.9-.74,1.2-.79.87c-.52.5-.64.63-.7.7l-1.69,2a4.22,4.22,0,0,1-.67.79l-.86.86-.71,1.35-2.75,3.58-.28,1.54-.54,1.16-1,.71.12.78-.81,1.26-1.08.5-2.75.54-2.64,2.42-.61,1.07-1.14-.46a3.81,3.81,0,0,1-.81-.39l-.49-.32-.51.55-2.15-.06-.61,1.22.12,1.51-.43,1.23-.29.25a4.08,4.08,0,0,1-.78.54l-.29.4-.22.5-.83,1.3a6.06,6.06,0,0,1-.21.8l-.34.7.17.3-.33,1.56-.84.74c-.11.06-.19.13-.27.18l-.42,1.16,0,.47-.7,2.11.18,1.46-.15,1.59.12,3.38-1,.55-.62.75.25,3.09-.8,1.32-.15,1.23,0,.21-.09,1.21.18,1.41-.19,1.79-.5,1.3,0,.37-.31,1.28a4.88,4.88,0,0,1-.51.67l-.78,3,0,.74.21,8.95-.21,1.66v.07h0l-.07.56h-.25l.42.94.11,1.07a3,3,0,0,1-.29,1.47l-.31.35-.5.43v.05a1.33,1.33,0,0,0,.1.11,3.61,3.61,0,0,1,.73,1.2l.08.31-.31,1.22-1.12,2.67.21.95,0,.55.21.8-.2.9,0,1-.11.49.18.8-.66,1.7-.23,1.46a3.59,3.59,0,0,1-.37,1l-.18.25.35,1.61-.39,1.05.24,1.23-.18,1.71-.95,2.72,0,2.17a4.88,4.88,0,0,1-.27,1.12l-.23.76.32,1.9a2.45,2.45,0,0,1-.2,2l-.09.6v.29l-.12,1.18.15,1.2-.09.29a3.87,3.87,0,0,1-.4.84l-.37.83.21,2.82.37,1.53-.22,1.22-.35.86.11.62.77,1.51a6.56,6.56,0,0,1,.18,1.42l-.09,1.47.17.81.43.91.21,1.64s.07.2.11.27l.33.57.38,1.23c0,.16,0,.27,0,.36l.45.57,1.58,1.51.61.56,1.82.46,3,1.23,2.36-.18.5,0,.1-.25,1.54-1a4.1,4.1,0,0,1,.77-.1l.37.05,3.12.53.44-.39a3.34,3.34,0,0,1,1.07-.66l2-.45,1.86.12.09-.6,3-.61,1.86-.06a2.49,2.49,0,0,1,.38-.35l.53-.23,7.16-.9.35-.28a4.07,4.07,0,0,1,1.2-.73l.73-.12,1.4.05.73-.5.78-.78,1-.16,2.07.06,1.2,1,.5,1.47ZM498.5,62.91a2.23,2.23,0,0,1-.39.25l-.83.35-3,2.86-1.59,3.49a6.56,6.56,0,0,1-.37.68l-.7.95-2.46,5-.13,1.73.41,3.08-.19,1.8-.85,2,.15,1.71-.16,1.84-.63,2.08.11,6.12L487,101.7l.22,6-.12,2.09a4,4,0,0,1-.24,1.21l-.25.52-.3.58v.39l0,1.06-.07.84,0,.33a4,4,0,0,1,0,.56,3.71,3.71,0,0,1-.07.87l-.82,5.74-1.33,2.4c-.12.21-.22.36-.29.46l-.67,1.14-.81.88a9.8,9.8,0,0,0-.69.7l-1.68,2a5.06,5.06,0,0,1-.64.77l-.9.89-.69,1.32-2.13,2.89-.67.76a3.58,3.58,0,0,0,0,.47l-.05.38-.71,1.79-1,.7.12.84-.84,1.24-1.05.49-2.74.53L466,145l-.62,1.13-1.18-.52a4.66,4.66,0,0,1-.73-.34l-.54-.37-.49.53-1.6,0-.55-.06-.63,1.2.11,1.52-.42,1.22-.27.25a4,4,0,0,1-.79.55l-.5.87-.85,1.35a5,5,0,0,1-.19.74l-.42.89.33.49-1.23,1.95a2.59,2.59,0,0,1-.31.2l-.42,1.15,0,.48-.69,2.12.18,1.44-.17,1.62.12,2.41v1l-.94.54-.63.73.22,2a5.34,5.34,0,0,1,0,.86l0,.37-.75,1.23-.14,1.23,0,.25-.09,1.21.18,1.39-.2,1.8-.48,1.29V180l-.31,1.28a4.64,4.64,0,0,1-.49.65l-.79,3,0,.71.2,8.48v0l0,.51-.32,2.27h-.24l.44.92.13,1.27,0,.18a3.38,3.38,0,0,1-.2,1l-.39.5-.51.42.12.15a4.24,4.24,0,0,1,.71,1.14l.1.35-.21.92-1.2,3,.19,1-.05.54.22.79-.18.9,0,1.15-.09.38.16.73-.65,1.39v.29l-.26,1.52a2.91,2.91,0,0,1-.4,1.07l-.11.18.32,1.62-.38,1.05.24,1.21-.15,1.67-1,2.76,0,2.16a6.31,6.31,0,0,1-.27,1.09l-.25.81.32,1.91a2.63,2.63,0,0,1-.11,1.87l-.18,1-.11,1.15.16,1.23-.11.29a3.13,3.13,0,0,1-.44.86l-.31.44.35,5.9-.35.88,0,.47.86,1.67a6.74,6.74,0,0,1,.17,1.41L446,250l.18.42.42.92.21,1.66s.09.22.14.3l.31.52.51,1.79,1.93,1.92.53.46,1.87.5.92.39,2.11.86,2.38-.18.44,0,1.4-1.19.31-.06a4.84,4.84,0,0,1,.74-.1l.38.05,3.12.54.42-.38c.67-.5.89-.66,1.31-.71l1.81-.39h.21a5.27,5.27,0,0,1,.77,0l.87.07.1-.6,2.93-.62,1.9-.07a1.73,1.73,0,0,1,.39-.36l.49-.21,7.15-.89a3.84,3.84,0,0,0,.36-.28c.84-.59.93-.62,1-.66l.47-.13.51-.06,1.39,0,.71-.5.81-.78,1-.16,2.08.07,1.17,1,.54,1.45-.67,2-1.47.33-.61.58-.67.19-.22.48-1.86.59-.74,0-1,0-2.2.21-1.86,1.17-2,.82-1.08.78-1.33.51-2.73.17h-.16l-.28.17-4.93,2.61-2.05.31-1.22-.31-2.11.83a3.75,3.75,0,0,1-.93.28l-.83,0-.06.7-6.39.33-1.47-.34-2.27-.89-3.62-.53-2.25-1.51-2.34-3-2.51-4.67-.85-4.26,0-.79-1.24-5.41.65-1.7.06-1.31-.11-2.35,0-.63-.06-1.31.36-2.85,0-1.34.33-1.94-.06-.78.29-2.58-.2-.73.06-.76,0-2.42.77-.65,0-1.21,0-2.13-.14-3.79v-1.08l-.1-2.53.55-.86.37-2.35-.26-1.12.08-.75-.1-1.71a1.82,1.82,0,0,1,.19-1.24l.22-.35.62-.31-.95-.61-.15-1.24.31-2.11.4-1.11.61-.56,0-1,.24-.64-.06-1,.83-.49.1-1.28.21-3.85.64-.56-.23-3.75.18-.87-.05-.72c0-.09-.06-.24-.09-.34l-.17-.69v-.21a2.88,2.88,0,0,1,.29-1.28l.42-1.59.34-4.53.38-1.47,0-.89.76-1.4.08-1.95v-.57l.25-2.07.48-1a1.65,1.65,0,0,1,.08-.4v-.37l-.1-1.07.24-1.31.33-.71.27-.44.17-.88a7.42,7.42,0,0,1,.4-.66l.28-1.23-.09-2.64.31-2.64.28-1.15,0-.69.82-2.19.32-1.73.35-.88a5.57,5.57,0,0,1,.31-1c.13-.38.21-.54.25-.66l.49-.85,0-.3a4.48,4.48,0,0,1-.05-.92l0-.52.37-.42a4.52,4.52,0,0,1,.64-.65l2.38-4.22a.93.93,0,0,1,.09-.24,2.09,2.09,0,0,1,.2-.76l.31-.41.46-.43c.49-.37.63-.49.7-.55l.47-.7.94-.64,5.4-1.29.83,0,.61,0h.3l4.11-3,2.56-2.4,3.18-4.12.32-1.13.44-.67c.35-.38.56-.6.72-.74l.52-.51a1.83,1.83,0,0,1,.14-.26l.71-1.62.23-.49,0-.46v-.49l.29-1.33.63-.9.69-.83-.18-2.12.1-1.54-.08-1.92.3-1.34c.23-.5.31-.66.37-.77l1.06-1.91,0-.89,0-1.58v-.7l.12-1.35v-.54l.31-2.31-.05-.52.22-2.13v-.36l.59-6.64c.08-.14.14-.25.2-.34l-.06-.79.05-1.47-.16-6.39.31-1.24.35-.73.07-.62.27-.8a3.27,3.27,0,0,1,.27-.54l.48-2.31,4.39-9.88.11-.24,0-.39.19-.16a4.5,4.5,0,0,1,.69-.82l2.44-2.47,1.67-.41,1.32-.46,6-.34,1.73.38.69,2.71Z" style="fill:#010101"/></clipPath><clipPath id="clip-path-2"><rect id="SVGID-2" data-name="SVGID" x="310.47" y="33.92" width="273.89" height="273.89" style="fill:#010101"/></clipPath></defs><title>logo</title><path d="M400.21,393.42a1,1,0,0,1,1-1H406a1,1,0,0,1,1,1v29.46h13.4a1,1,0,0,1,1,1v4.31a1,1,0,0,1-1,1H401.21a1,1,0,0,1-1-1Z" style="fill:#1d1d1c"/><path d="M433.55,393.42a1,1,0,0,1,1-1h21.37a1,1,0,0,1,1,1v4.31a1,1,0,0,1-1,1H440.38v8.61h13a1,1,0,0,1,1,1v4.36a1,1,0,0,1-1,1h-13v9.19h15.54a1,1,0,0,1,1,1v4.31a1,1,0,0,1-1,1H434.55a1,1,0,0,1-1-1Z" style="fill:#1d1d1c"/><path d="M467,424l1.88-3.25a1.22,1.22,0,0,1,1.79-.37c.26.16,4.51,3.26,7.93,3.26,2.73,0,4.77-1.79,4.77-4.05,0-2.68-2.25-4.51-6.66-6.3-4.94-2-9.87-5.15-9.87-11.34,0-4.67,3.46-10.08,11.81-10.08a18.54,18.54,0,0,1,10.5,3.51,1.31,1.31,0,0,1,.32,1.74l-2,3a1.38,1.38,0,0,1-1.84.63c-.42-.26-4.41-2.89-7.3-2.89s-4.61,2-4.61,3.68c0,2.47,1.94,4.15,6.19,5.88,5.09,2.05,11,5.09,11,11.87,0,5.41-4.67,10.39-12.07,10.39a16.9,16.9,0,0,1-11.56-4.09C466.78,425.14,466.52,424.87,467,424Z" style="fill:#1d1d1c"/><path d="M34,583.58,87.46,468a3.09,3.09,0,0,1,2.92-1.9h1.73A2.9,2.9,0,0,1,95,468l52.92,115.62A3,3,0,0,1,145,588h-15c-2.58,0-3.78-1-5-3.43l-8.42-18.56H65.3l-8.41,18.56a5.18,5.18,0,0,1-5,3.43H37A3,3,0,0,1,34,583.58ZM108.25,547,91.07,509.19h-.51L73.72,547Z" style="fill:#1d1d1c"/><path d="M233,466.06c15.46,0,30.24,6,41.92,16a3.33,3.33,0,0,1,.17,4.81L264.44,498c-1.38,1.37-2.92,1.37-4.47,0a38.93,38.93,0,0,0-25.94-10c-21.48,0-38.49,18.38-38.49,39.85,0,21.31,17,39.35,38.66,39.35a53.67,53.67,0,0,0,20.45-4.3v-14.6H240.91a3.13,3.13,0,0,1-3.28-3.1V531.69a3.16,3.16,0,0,1,3.28-3.26h33a3.23,3.23,0,0,1,3.1,3.26v44a3.31,3.31,0,0,1-1.37,2.75A86.82,86.82,0,0,1,233,589.59a61.77,61.77,0,0,1,0-123.53Z" style="fill:#1d1d1c"/><path d="M317.71,471.05a3.39,3.39,0,0,1,3.27-3.27H337.3a3.27,3.27,0,0,1,3.27,3.27v70.26c0,14.61,10,26.12,24.9,26.12s25.09-11.51,25.09-25.94V471.05a3.26,3.26,0,0,1,3.27-3.27h16.32a3.38,3.38,0,0,1,3.26,3.27v71.47c0,26.11-20.79,47.24-47.94,47.24-27,0-47.76-21.13-47.76-47.24Z" style="fill:#1d1d1c"/><path d="M460.15,471.05a3.27,3.27,0,0,1,3.27-3.27h15.8a3.39,3.39,0,0,1,3.27,3.27v96.38H526.3a3.25,3.25,0,0,1,3.26,3.26v14.09A3.25,3.25,0,0,1,526.3,588H463.42a3.26,3.26,0,0,1-3.27-3.26Z" style="fill:#1d1d1c"/><path d="M564.11,471.05a3.26,3.26,0,0,1,3.26-3.27h15.8a3.39,3.39,0,0,1,3.27,3.27v96.38h43.81a3.26,3.26,0,0,1,3.27,3.26v14.09a3.26,3.26,0,0,1-3.27,3.26H567.37a3.25,3.25,0,0,1-3.26-3.26Z" style="fill:#1d1d1c"/><path d="M668.06,471.05a3.26,3.26,0,0,1,3.26-3.27h69.93a3.26,3.26,0,0,1,3.26,3.27v14.08a3.26,3.26,0,0,1-3.26,3.27H690.39v28.17h42.44a3.39,3.39,0,0,1,3.27,3.27V534.1a3.26,3.26,0,0,1-3.27,3.26H690.39v30.07h50.86a3.25,3.25,0,0,1,3.26,3.26v14.09a3.25,3.25,0,0,1-3.26,3.26H671.32a3.25,3.25,0,0,1-3.26-3.26Z" style="fill:#1d1d1c"/><path d="M779.23,571.21l6.18-10.65a4,4,0,0,1,5.85-1.21c.86.52,14.78,10.66,25.94,10.66,8.94,0,15.64-5.85,15.64-13.23,0-8.77-7.39-14.78-21.82-20.62-16.15-6.53-32.3-16.84-32.3-37.11,0-15.29,11.33-33,38.66-33,17.52,0,30.91,8.94,34.36,11.51a4.27,4.27,0,0,1,1,5.67l-6.54,9.8c-1.37,2.06-4,3.43-6,2.06-1.37-.86-14.43-9.45-23.88-9.45-9.79,0-15.12,6.53-15.12,12,0,8.07,6.36,13.57,20.28,19.24,16.66,6.7,35.9,16.66,35.9,38.82,0,17.7-15.28,34-39.51,34-21.65,0-34.36-10.13-37.79-13.4C778.54,574.82,777.69,574,779.23,571.21Z" style="fill:#1d1d1c"/><path d="M239.36,630.59a.72.72,0,0,1,.73-.72H251a8.26,8.26,0,0,1,8.32,8.2,8.43,8.43,0,0,1-5.65,7.71l5.23,9.69a.72.72,0,0,1-.65,1.11h-4a.66.66,0,0,1-.61-.34l-5.08-10.12h-4.23v9.73a.75.75,0,0,1-.73.73h-3.5a.72.72,0,0,1-.73-.73ZM250.57,642a3.9,3.9,0,0,0,3.79-3.9,3.8,3.8,0,0,0-3.79-3.7h-6.21V642Z" style="fill:#1d1d1c"/><path d="M285,630.59a.72.72,0,0,1,.72-.72h15.54a.72.72,0,0,1,.72.72v3.13a.72.72,0,0,1-.72.72H290v6.26h9.43a.75.75,0,0,1,.72.73v3.17a.72.72,0,0,1-.72.72H290V652h11.3a.72.72,0,0,1,.72.72v3.13a.72.72,0,0,1-.72.73H285.75a.72.72,0,0,1-.72-.73Z" style="fill:#1d1d1c"/><path d="M325.39,652.84l1.37-2.37a.9.9,0,0,1,1.3-.27c.19.12,3.28,2.37,5.76,2.37,2,0,3.47-1.3,3.47-2.94,0-1.94-1.63-3.28-4.84-4.58-3.59-1.45-7.18-3.74-7.18-8.24,0-3.4,2.52-7.33,8.59-7.33a13.44,13.44,0,0,1,7.63,2.56,1,1,0,0,1,.23,1.26l-1.45,2.18a1,1,0,0,1-1.33.45c-.3-.19-3.21-2.1-5.31-2.1s-3.36,1.45-3.36,2.67c0,1.8,1.42,3,4.5,4.28,3.71,1.49,8,3.7,8,8.62,0,3.93-3.41,7.56-8.79,7.56a12.24,12.24,0,0,1-8.39-3C325.24,653.64,325,653.45,325.39,652.84Z" style="fill:#1d1d1c"/><path d="M372.24,634.44H366.4a.72.72,0,0,1-.72-.72v-3.13a.72.72,0,0,1,.72-.72h16.68a.72.72,0,0,1,.72.72v3.13a.72.72,0,0,1-.72.72h-5.84v21.41a.75.75,0,0,1-.73.73H373a.75.75,0,0,1-.73-.73Z" style="fill:#1d1d1c"/><path d="M405.38,655.59l11.87-25.69a.7.7,0,0,1,.65-.42h.38a.65.65,0,0,1,.65.42l11.76,25.69a.68.68,0,0,1-.66,1h-3.31a1.1,1.1,0,0,1-1.11-.77l-1.87-4.12H412.33l-1.87,4.12a1.15,1.15,0,0,1-1.11.77H406A.67.67,0,0,1,405.38,655.59Zm16.49-8.13-3.81-8.4h-.13l-3.73,8.4Z" style="fill:#1d1d1c"/><path d="M447.53,630.59a.75.75,0,0,1,.73-.72h3.63a.72.72,0,0,1,.72.72V646.2a5.56,5.56,0,1,0,11.11,0V630.59a.72.72,0,0,1,.72-.72h3.63a.75.75,0,0,1,.72.72v15.88a10.63,10.63,0,0,1-21.26,0Z" style="fill:#1d1d1c"/><path d="M496.37,630.59a.72.72,0,0,1,.73-.72H508a8.26,8.26,0,0,1,8.32,8.2,8.43,8.43,0,0,1-5.65,7.71l5.23,9.69a.73.73,0,0,1-.65,1.11h-4a.66.66,0,0,1-.61-.34l-5.08-10.12h-4.23v9.73a.75.75,0,0,1-.73.73h-3.5a.72.72,0,0,1-.73-.73ZM507.58,642a3.9,3.9,0,0,0,3.79-3.9,3.8,3.8,0,0,0-3.79-3.7h-6.21V642Z" style="fill:#1d1d1c"/><path d="M538.56,655.59l11.87-25.69a.7.7,0,0,1,.65-.42h.38a.64.64,0,0,1,.65.42l11.75,25.69a.67.67,0,0,1-.64,1h-3.33a1.08,1.08,0,0,1-1.1-.77l-1.87-4.12H545.51l-1.87,4.12a1.14,1.14,0,0,1-1.1.77h-3.33A.68.68,0,0,1,538.56,655.59Zm16.49-8.13-3.82-8.4h-.11l-3.73,8.4Z" style="fill:#1d1d1c"/><path d="M586.06,630.17a.72.72,0,0,1,.73-.69h1l15.88,16.87h0V630.59a.73.73,0,0,1,.73-.72h3.51a.75.75,0,0,1,.73.72v25.68a.72.72,0,0,1-.73.69H607l-16-17.52h0v16.41a.71.71,0,0,1-.72.73h-3.47a.75.75,0,0,1-.73-.73Z" style="fill:#1d1d1c"/><path d="M640.17,634.44h-5.84a.73.73,0,0,1-.73-.72v-3.13a.73.73,0,0,1,.73-.72H651a.72.72,0,0,1,.72.72v3.13a.72.72,0,0,1-.72.72h-5.85v21.41a.75.75,0,0,1-.72.73h-3.55a.75.75,0,0,1-.72-.73Z" style="fill:#1d1d1c"/><g style="isolation:isolate"><path id="SVGID-3" data-name="SVGID" d="M446.35,36.06A135.88,135.88,0,1,0,582.22,171.94,135.88,135.88,0,0,0,446.35,36.06Zm-3.26,238.25-.3.58L440,276.2l-.24.47-1.84.57-.72,0-1,0-2.18.2-1.85,1.16-2,.83-2.39,1.28-2.75.19h-.15l-.31.16L419,283.8l-1.48.19-1.21-.33-1.75.54,0,.06-.41.26a3.59,3.59,0,0,1-.89.26l-.83.05,0,.67-6.42.34-1.5-.34-2.27-.89-3.63-.53-2.2-1.48L394,279.53l-2.51-4.66-.85-4.27,0-.8-1.24-5.4.37-.93.26-.49.07-1.56-.13-4.34.35-2.82,0-1.34.32-2.33-.06-.4.29-2.59-.19-.72.07-.74,0-2.44.49-.41a2.6,2.6,0,0,1,.28-.24l0-1.21,0-2.13-.24-7.35.59-1,.34-2.27L392,228l.09-.77-.11-1.69a1.58,1.58,0,0,1,.61-1.66l.43-.21-1-.65-.13-1.24.3-2.11.39-1.1.62-.53,0-1,.24-.63-.07-1,.84-.51.15-1.95h0l.13-3.15.65-.58-.23-3.76.2-.86-.07-.74a3,3,0,0,1-.12-.54l-.16-.46,0-.24a2.88,2.88,0,0,1,.33-1.36l.38-1.49.34-4.53.37-1.43v-.93l.74-1.4.08-1.94,0-.56.26-2.07.57-1.77-.11-1.09.23-1.29.34-.71a4.26,4.26,0,0,1,.27-.44v-.61l.83-1.73,0-.44-.1-2.58.32-2.69.27-1.13,0-.73.82-2.15.22-1.4.44-1.23a4,4,0,0,1,.41-1.12,2.19,2.19,0,0,1,.19-.56l.47-.79,0-.26a4.06,4.06,0,0,1,0-1.22l.07-.39.27-.28a7.27,7.27,0,0,1,.54-.57l.26-.52,2.21-3.8.09-.17a3.24,3.24,0,0,1,.25-.86l.28-.36,1.63-1.68.57-.47.38-.18,5.39-1.31h.85l.61,0,.66-.18.46-.38,2.24-1.65.63-.38,3-2.79,3.16-4.08.34-1.16.46-.67a6.57,6.57,0,0,1,.88-.91l.34-.34a1.85,1.85,0,0,1,.14-.26l.7-1.61a4.26,4.26,0,0,0,.26-.58l0-.42v-.43l.29-1.34.6-.88.73-.89-.2-2.08.09-1.52-.08-2.1.05-.18c.11-.5.15-.66.18-.75l1.52-2.92-.07-.89.06-1.59v-.69l.12-1.33v-.57l.31-2.3,0-.53.22-2.11,0-.33.59-6.71.2-.32-.06-.8.06-1.44-.16-6.43,1.37-4.18,0-.28.08-.76,3.45-8.88,1.26-2c0-.07.08-.19.11-.28v-.44l.23-.12a5.53,5.53,0,0,1,.71-.82l2.4-2.43,1.56-.34.76-.37,6.71-.49,1.72.36.71,2.72-4.77,1.81a1.44,1.44,0,0,1-.41.25l-.77.33-2.21,1.56-2.38,4.8a8.53,8.53,0,0,1-.51.88l-3,5.4-.14,2.08.41,3.06-.19,1.82-.87,2,.17,1.7-.19,1.86-.6,2,.1,6.17-.84,5.26.2,5.63-.1,2.11a3.06,3.06,0,0,1-.29,1.28l-.21.43a5.72,5.72,0,0,0-.3.63v.34l.06,1-.09.88.08.74a4,4,0,0,1-.13,1.17l-.77,5.54-1.08,1.94-.48.9-.74,1.2-.79.87c-.52.5-.64.63-.7.7l-1.69,2a4.22,4.22,0,0,1-.67.79l-.86.86-.71,1.35-2.75,3.58-.28,1.54-.54,1.16-1,.71.12.78-.81,1.26-1.08.5-2.75.54-2.64,2.42-.61,1.07-1.14-.46a3.81,3.81,0,0,1-.81-.39l-.49-.32-.51.55-2.15-.06-.61,1.22.12,1.51-.43,1.23-.29.25a4.08,4.08,0,0,1-.78.54l-.29.4-.22.5-.83,1.3a6.06,6.06,0,0,1-.21.8l-.34.7.17.3-.33,1.56-.84.74c-.11.06-.19.13-.27.18l-.42,1.16,0,.47-.7,2.11.18,1.46-.15,1.59.12,3.38-1,.55-.62.75.25,3.09-.8,1.32-.15,1.23,0,.21-.09,1.21.18,1.41-.19,1.79-.5,1.3,0,.37-.31,1.28a4.88,4.88,0,0,1-.51.67l-.78,3,0,.74.21,8.95-.21,1.66v.07h0l-.07.56h-.25l.42.94.11,1.07a3,3,0,0,1-.29,1.47l-.31.35-.5.43v.05a1.33,1.33,0,0,0,.1.11,3.61,3.61,0,0,1,.73,1.2l.08.31-.31,1.22-1.12,2.67.21.95,0,.55.21.8-.2.9,0,1-.11.49.18.8-.66,1.7-.23,1.46a3.59,3.59,0,0,1-.37,1l-.18.25.35,1.61-.39,1.05.24,1.23-.18,1.71-.95,2.72,0,2.17a4.88,4.88,0,0,1-.27,1.12l-.23.76.32,1.9a2.45,2.45,0,0,1-.2,2l-.09.6v.29l-.12,1.18.15,1.2-.09.29a3.87,3.87,0,0,1-.4.84l-.37.83.21,2.82.37,1.53-.22,1.22-.35.86.11.62.77,1.51a6.56,6.56,0,0,1,.18,1.42l-.09,1.47.17.81.43.91.21,1.64s.07.2.11.27l.33.57.38,1.23c0,.16,0,.27,0,.36l.45.57,1.58,1.51.61.56,1.82.46,3,1.23,2.36-.18.5,0,.1-.25,1.54-1a4.1,4.1,0,0,1,.77-.1l.37.05,3.12.53.44-.39a3.34,3.34,0,0,1,1.07-.66l2-.45,1.86.12.09-.6,3-.61,1.86-.06a2.49,2.49,0,0,1,.38-.35l.53-.23,7.16-.9.35-.28a4.07,4.07,0,0,1,1.2-.73l.73-.12,1.4.05.73-.5.78-.78,1-.16,2.07.06,1.2,1,.5,1.47ZM498.5,62.91a2.23,2.23,0,0,1-.39.25l-.83.35-3,2.86-1.59,3.49a6.56,6.56,0,0,1-.37.68l-.7.95-2.46,5-.13,1.73.41,3.08-.19,1.8-.85,2,.15,1.71-.16,1.84-.63,2.08.11,6.12L487,101.7l.22,6-.12,2.09a4,4,0,0,1-.24,1.21l-.25.52-.3.58v.39l0,1.06-.07.84,0,.33a4,4,0,0,1,0,.56,3.71,3.71,0,0,1-.07.87l-.82,5.74-1.33,2.4c-.12.21-.22.36-.29.46l-.67,1.14-.81.88a9.8,9.8,0,0,0-.69.7l-1.68,2a5.06,5.06,0,0,1-.64.77l-.9.89-.69,1.32-2.13,2.89-.67.76a3.58,3.58,0,0,0,0,.47l-.05.38-.71,1.79-1,.7.12.84-.84,1.24-1.05.49-2.74.53L466,145l-.62,1.13-1.18-.52a4.66,4.66,0,0,1-.73-.34l-.54-.37-.49.53-1.6,0-.55-.06-.63,1.2.11,1.52-.42,1.22-.27.25a4,4,0,0,1-.79.55l-.5.87-.85,1.35a5,5,0,0,1-.19.74l-.42.89.33.49-1.23,1.95a2.59,2.59,0,0,1-.31.2l-.42,1.15,0,.48-.69,2.12.18,1.44-.17,1.62.12,2.41v1l-.94.54-.63.73.22,2a5.34,5.34,0,0,1,0,.86l0,.37-.75,1.23-.14,1.23,0,.25-.09,1.21.18,1.39-.2,1.8-.48,1.29V180l-.31,1.28a4.64,4.64,0,0,1-.49.65l-.79,3,0,.71.2,8.48v0l0,.51-.32,2.27h-.24l.44.92.13,1.27,0,.18a3.38,3.38,0,0,1-.2,1l-.39.5-.51.42.12.15a4.24,4.24,0,0,1,.71,1.14l.1.35-.21.92-1.2,3,.19,1-.05.54.22.79-.18.9,0,1.15-.09.38.16.73-.65,1.39v.29l-.26,1.52a2.91,2.91,0,0,1-.4,1.07l-.11.18.32,1.62-.38,1.05.24,1.21-.15,1.67-1,2.76,0,2.16a6.31,6.31,0,0,1-.27,1.09l-.25.81.32,1.91a2.63,2.63,0,0,1-.11,1.87l-.18,1-.11,1.15.16,1.23-.11.29a3.13,3.13,0,0,1-.44.86l-.31.44.35,5.9-.35.88,0,.47.86,1.67a6.74,6.74,0,0,1,.17,1.41L446,250l.18.42.42.92.21,1.66s.09.22.14.3l.31.52.51,1.79,1.93,1.92.53.46,1.87.5.92.39,2.11.86,2.38-.18.44,0,1.4-1.19.31-.06a4.84,4.84,0,0,1,.74-.1l.38.05,3.12.54.42-.38c.67-.5.89-.66,1.31-.71l1.81-.39h.21a5.27,5.27,0,0,1,.77,0l.87.07.1-.6,2.93-.62,1.9-.07a1.73,1.73,0,0,1,.39-.36l.49-.21,7.15-.89a3.84,3.84,0,0,0,.36-.28c.84-.59.93-.62,1-.66l.47-.13.51-.06,1.39,0,.71-.5.81-.78,1-.16,2.08.07,1.17,1,.54,1.45-.67,2-1.47.33-.61.58-.67.19-.22.48-1.86.59-.74,0-1,0-2.2.21-1.86,1.17-2,.82-1.08.78-1.33.51-2.73.17h-.16l-.28.17-4.93,2.61-2.05.31-1.22-.31-2.11.83a3.75,3.75,0,0,1-.93.28l-.83,0-.06.7-6.39.33-1.47-.34-2.27-.89-3.62-.53-2.25-1.51-2.34-3-2.51-4.67-.85-4.26,0-.79-1.24-5.41.65-1.7.06-1.31-.11-2.35,0-.63-.06-1.31.36-2.85,0-1.34.33-1.94-.06-.78.29-2.58-.2-.73.06-.76,0-2.42.77-.65,0-1.21,0-2.13-.14-3.79v-1.08l-.1-2.53.55-.86.37-2.35-.26-1.12.08-.75-.1-1.71a1.82,1.82,0,0,1,.19-1.24l.22-.35.62-.31-.95-.61-.15-1.24.31-2.11.4-1.11.61-.56,0-1,.24-.64-.06-1,.83-.49.1-1.28.21-3.85.64-.56-.23-3.75.18-.87-.05-.72c0-.09-.06-.24-.09-.34l-.17-.69v-.21a2.88,2.88,0,0,1,.29-1.28l.42-1.59.34-4.53.38-1.47,0-.89.76-1.4.08-1.95v-.57l.25-2.07.48-1a1.65,1.65,0,0,1,.08-.4v-.37l-.1-1.07.24-1.31.33-.71.27-.44.17-.88a7.42,7.42,0,0,1,.4-.66l.28-1.23-.09-2.64.31-2.64.28-1.15,0-.69.82-2.19.32-1.73.35-.88a5.57,5.57,0,0,1,.31-1c.13-.38.21-.54.25-.66l.49-.85,0-.3a4.48,4.48,0,0,1-.05-.92l0-.52.37-.42a4.52,4.52,0,0,1,.64-.65l2.38-4.22a.93.93,0,0,1,.09-.24,2.09,2.09,0,0,1,.2-.76l.31-.41.46-.43c.49-.37.63-.49.7-.55l.47-.7.94-.64,5.4-1.29.83,0,.61,0h.3l4.11-3,2.56-2.4,3.18-4.12.32-1.13.44-.67c.35-.38.56-.6.72-.74l.52-.51a1.83,1.83,0,0,1,.14-.26l.71-1.62.23-.49,0-.46v-.49l.29-1.33.63-.9.69-.83-.18-2.12.1-1.54-.08-1.92.3-1.34c.23-.5.31-.66.37-.77l1.06-1.91,0-.89,0-1.58v-.7l.12-1.35v-.54l.31-2.31-.05-.52.22-2.13v-.36l.59-6.64c.08-.14.14-.25.2-.34l-.06-.79.05-1.47-.16-6.39.31-1.24.35-.73.07-.62.27-.8a3.27,3.27,0,0,1,.27-.54l.48-2.31,4.39-9.88.11-.24,0-.39.19-.16a4.5,4.5,0,0,1,.69-.82l2.44-2.47,1.67-.41,1.32-.46,6-.34,1.73.38.69,2.71Z" style="fill:#010101"/><g style="clip-path:url(#clip-path)"><rect id="SVGID-4" data-name="SVGID" x="310.47" y="33.92" width="273.89" height="273.89" style="fill:#010101"/><g style="clip-path:url(#clip-path-2)"><rect x="290.03" y="15.62" width="312.63" height="312.63" style="fill:#010101"/></g></g></g></svg>